%TF.GenerationSoftware,KiCad,Pcbnew,8.0.6*%
%TF.CreationDate,2025-02-16T20:33:08+01:00*%
%TF.ProjectId,LCD_PCF_v4,4c43445f-5043-4465-9f76-342e6b696361,rev?*%
%TF.SameCoordinates,Original*%
%TF.FileFunction,Copper,L2,Bot*%
%TF.FilePolarity,Positive*%
%FSLAX46Y46*%
G04 Gerber Fmt 4.6, Leading zero omitted, Abs format (unit mm)*
G04 Created by KiCad (PCBNEW 8.0.6) date 2025-02-16 20:33:08*
%MOMM*%
%LPD*%
G01*
G04 APERTURE LIST*
%TA.AperFunction,ComponentPad*%
%ADD10R,1.905000X1.905000*%
%TD*%
%TA.AperFunction,ComponentPad*%
%ADD11R,1.524000X2.540000*%
%TD*%
%TA.AperFunction,ComponentPad*%
%ADD12R,1.700000X1.700000*%
%TD*%
%TA.AperFunction,ComponentPad*%
%ADD13R,2.540000X1.524000*%
%TD*%
%TA.AperFunction,ComponentPad*%
%ADD14R,1.905000X1.397000*%
%TD*%
%TA.AperFunction,ComponentPad*%
%ADD15R,1.905000X1.524000*%
%TD*%
%TA.AperFunction,ComponentPad*%
%ADD16C,1.905000*%
%TD*%
%TA.AperFunction,ComponentPad*%
%ADD17O,1.905000X1.905000*%
%TD*%
%TA.AperFunction,ComponentPad*%
%ADD18R,1.397000X2.540000*%
%TD*%
%TA.AperFunction,ComponentPad*%
%ADD19O,2.540000X1.143000*%
%TD*%
%TA.AperFunction,ComponentPad*%
%ADD20O,1.524000X2.540000*%
%TD*%
%TA.AperFunction,ViaPad*%
%ADD21C,3.635000*%
%TD*%
%TA.AperFunction,Conductor*%
%ADD22C,1.016000*%
%TD*%
%TA.AperFunction,Conductor*%
%ADD23C,0.635000*%
%TD*%
%TA.AperFunction,Conductor*%
%ADD24C,0.381000*%
%TD*%
G04 APERTURE END LIST*
D10*
%TO.P,J11,1,Pin_1*%
%TO.N,Net-(J11-Pin_1)*%
X60300000Y-64740000D03*
%TO.P,J11,2,Pin_2*%
X60300000Y-67280000D03*
%TD*%
%TO.P,J23,1,Pin_1*%
%TO.N,GND*%
X29000000Y-87000000D03*
%TO.P,J23,2,Pin_2*%
X26460000Y-87000000D03*
%TO.P,J23,3,Pin_3*%
X29000000Y-89540000D03*
%TO.P,J23,4,Pin_4*%
X26460000Y-89540000D03*
%TD*%
%TO.P,R4,1*%
%TO.N,Net-(J18-Pin_1)*%
X27300000Y-32080000D03*
%TO.P,R4,2*%
%TO.N,VCC*%
X27300000Y-21920000D03*
%TD*%
%TO.P,J25,1,Pin_1*%
%TO.N,VCC*%
X50300000Y-64740000D03*
%TO.P,J25,2,Pin_2*%
X50300000Y-67280000D03*
%TD*%
D11*
%TO.P,J13,1,Pin_1*%
%TO.N,GND*%
X86300000Y-47280000D03*
%TO.P,J13,2,Pin_2*%
%TO.N,Net-(J13-Pin_2)*%
X88840000Y-47280000D03*
%TO.P,J13,3,Pin_3*%
%TO.N,Net-(J12-Pin_3)*%
X91380000Y-47280000D03*
%TD*%
D10*
%TO.P,C1,1*%
%TO.N,GND*%
X108800000Y-31280000D03*
%TO.P,C1,2*%
%TO.N,VCC*%
X113800000Y-31280000D03*
%TD*%
%TO.P,J5,1,Pin_1*%
%TO.N,Net-(J1-Pin_6)*%
X90300000Y-98850000D03*
%TO.P,J5,2,Pin_2*%
X90300000Y-101390000D03*
%TD*%
D12*
%TO.P,J19,1,Pin_1*%
%TO.N,Net-(J18-Pin_2)*%
X27000000Y-65460000D03*
%TO.P,J19,2,Pin_2*%
%TO.N,GND*%
X27000000Y-68000000D03*
%TD*%
D10*
%TO.P,J22,1,Pin_1*%
%TO.N,VCC*%
X29000000Y-76000000D03*
%TO.P,J22,2,Pin_2*%
X26460000Y-76000000D03*
%TO.P,J22,3,Pin_3*%
X29000000Y-78540000D03*
%TO.P,J22,4,Pin_4*%
X26460000Y-78540000D03*
%TD*%
D13*
%TO.P,J18,1,Pin_1*%
%TO.N,Net-(J18-Pin_1)*%
X27000000Y-52460000D03*
%TO.P,J18,2,Pin_2*%
%TO.N,Net-(J18-Pin_2)*%
X27000000Y-55000000D03*
%TO.P,J18,3,Pin_3*%
X27000000Y-57540000D03*
%TD*%
D14*
%TO.P,J20,1,Pin_1*%
%TO.N,/PCF_SIGNAL_BUS7*%
X127130000Y-75390000D03*
%TO.P,J20,2,Pin_2*%
%TO.N,/PCF_SIGNAL_BUS5*%
X127130000Y-77930000D03*
%TO.P,J20,3,Pin_3*%
%TO.N,/PCF_SIGNAL_BUS3*%
X127130000Y-80470000D03*
%TO.P,J20,4,Pin_4*%
%TO.N,/PCF_SIGNAL_BUS1*%
X127130000Y-83010000D03*
D15*
%TO.P,J20,5,Pin_5*%
%TO.N,unconnected-(J20-Pin_5-Pad5)*%
X127130000Y-85550000D03*
D16*
%TO.P,J20,6,Pin_6*%
%TO.N,unconnected-(J20-Pin_6-Pad6)*%
X129670000Y-85550000D03*
%TO.P,J20,7,Pin_7*%
%TO.N,/PCF_SIGNAL_BUS0*%
X129670000Y-83010000D03*
D17*
%TO.P,J20,8,Pin_8*%
%TO.N,/PCF_SIGNAL_BUS2*%
X129670000Y-80470000D03*
D16*
%TO.P,J20,9,Pin_9*%
%TO.N,/PCF_SIGNAL_BUS4*%
X129670000Y-77930000D03*
%TO.P,J20,10,Pin_10*%
%TO.N,/PCF_SIGNAL_BUS6*%
X129670000Y-75390000D03*
%TD*%
D10*
%TO.P,R2,1*%
%TO.N,VCC*%
X53800000Y-22000000D03*
%TO.P,R2,2*%
%TO.N,Net-(J16-Pin_1)*%
X53800000Y-32160000D03*
%TD*%
D16*
%TO.P,J21,1,Pin_1*%
%TO.N,/PCF_CONN_BUS7*%
X86190000Y-75190000D03*
D17*
%TO.P,J21,2,Pin_2*%
%TO.N,/PCF_CONN_BUS5*%
X86190000Y-77730000D03*
%TO.P,J21,3,Pin_3*%
%TO.N,/PCF_CONN_BUS3*%
X86190000Y-80270000D03*
%TO.P,J21,4,Pin_4*%
%TO.N,/PCF_CONN_BUS1*%
X86190000Y-82810000D03*
%TO.P,J21,5,Pin_5*%
%TO.N,unconnected-(J21-Pin_5-Pad5)*%
X86190000Y-85350000D03*
D14*
%TO.P,J21,6,Pin_6*%
%TO.N,unconnected-(J21-Pin_6-Pad6)*%
X88730000Y-85350000D03*
%TO.P,J21,7,Pin_7*%
%TO.N,/PCF_CONN_BUS0*%
X88730000Y-82810000D03*
%TO.P,J21,8,Pin_8*%
%TO.N,/PCF_CONN_BUS2*%
X88730000Y-80270000D03*
%TO.P,J21,9,Pin_9*%
%TO.N,/PCF_CONN_BUS4*%
X88730000Y-77730000D03*
%TO.P,J21,10,Pin_10*%
%TO.N,/PCF_CONN_BUS6*%
X88730000Y-75190000D03*
%TD*%
D10*
%TO.P,J9,1,Pin_1*%
%TO.N,Net-(J1-Pin_2)*%
X50300000Y-98840000D03*
%TO.P,J9,2,Pin_2*%
X50300000Y-101380000D03*
%TD*%
D11*
%TO.P,J12,1,Pin_1*%
%TO.N,GND*%
X86300000Y-39280000D03*
D18*
%TO.P,J12,2,Pin_2*%
%TO.N,Net-(J12-Pin_2)*%
X88840000Y-39280000D03*
%TO.P,J12,3,Pin_3*%
%TO.N,Net-(J12-Pin_3)*%
X91380000Y-39280000D03*
%TD*%
D11*
%TO.P,J1,1,Pin_1*%
%TO.N,Net-(J1-Pin_1)*%
X59985000Y-125800000D03*
%TO.P,J1,2,Pin_2*%
%TO.N,Net-(J1-Pin_2)*%
X62525000Y-125800000D03*
%TO.P,J1,3,Pin_3*%
%TO.N,Net-(J1-Pin_3)*%
X65065000Y-125800000D03*
%TO.P,J1,4,Pin_4*%
%TO.N,Net-(J1-Pin_4)*%
X67605000Y-125800000D03*
%TO.P,J1,5,Pin_5*%
%TO.N,Net-(J1-Pin_5)*%
X70145000Y-125800000D03*
%TO.P,J1,6,Pin_6*%
%TO.N,Net-(J1-Pin_6)*%
X72685000Y-125800000D03*
%TO.P,J1,7,Pin_7*%
%TO.N,/PCF_CONN_BUS0*%
X75225000Y-125800000D03*
%TO.P,J1,8,Pin_8*%
%TO.N,/PCF_CONN_BUS1*%
X77765000Y-125800000D03*
%TO.P,J1,9,Pin_9*%
%TO.N,/PCF_CONN_BUS2*%
X80305000Y-125800000D03*
%TO.P,J1,10,Pin_10*%
%TO.N,/PCF_CONN_BUS3*%
X82845000Y-125800000D03*
%TO.P,J1,11,Pin_11*%
%TO.N,/PCF_CONN_BUS4*%
X85385000Y-125800000D03*
%TO.P,J1,12,Pin_12*%
%TO.N,/PCF_CONN_BUS5*%
X87925000Y-125800000D03*
%TO.P,J1,13,Pin_13*%
%TO.N,/PCF_CONN_BUS6*%
X90465000Y-125800000D03*
%TO.P,J1,14,Pin_14*%
%TO.N,/PCF_CONN_BUS7*%
X93005000Y-125800000D03*
%TO.P,J1,15,Pin_15*%
%TO.N,Net-(J1-Pin_15)*%
X95545000Y-125800000D03*
%TO.P,J1,16,Pin_16*%
%TO.N,Net-(J1-Pin_16)*%
X98085000Y-125800000D03*
%TD*%
D19*
%TO.P,U1,1,A0*%
%TO.N,Net-(J12-Pin_2)*%
X107680000Y-38280000D03*
%TO.P,U1,2,A1*%
%TO.N,Net-(J13-Pin_2)*%
X107680000Y-40820000D03*
%TO.P,U1,3,A2*%
%TO.N,Net-(J14-Pin_2)*%
X107680000Y-43360000D03*
%TO.P,U1,4,P0*%
%TO.N,/PCF_SIGNAL_BUS0*%
X107680000Y-45900000D03*
%TO.P,U1,5,P1*%
%TO.N,/PCF_SIGNAL_BUS1*%
X107680000Y-48440000D03*
%TO.P,U1,6,P2*%
%TO.N,/PCF_SIGNAL_BUS2*%
X107680000Y-50980000D03*
%TO.P,U1,7,P3*%
%TO.N,/PCF_SIGNAL_BUS3*%
X107680000Y-53520000D03*
%TO.P,U1,8,VSS*%
%TO.N,GND*%
X107680000Y-56060000D03*
%TO.P,U1,9,P4*%
%TO.N,/PCF_SIGNAL_BUS4*%
X115300000Y-56060000D03*
%TO.P,U1,10,P5*%
%TO.N,/PCF_SIGNAL_BUS5*%
X115300000Y-53520000D03*
%TO.P,U1,11,P6*%
%TO.N,/PCF_SIGNAL_BUS6*%
X115300000Y-50980000D03*
%TO.P,U1,12,P7*%
%TO.N,/PCF_SIGNAL_BUS7*%
X115300000Y-48440000D03*
%TO.P,U1,13,~{INT}*%
%TO.N,Net-(J18-Pin_2)*%
X115300000Y-45900000D03*
%TO.P,U1,14,SCL*%
%TO.N,Net-(J15-Pin_1)*%
X115300000Y-43360000D03*
%TO.P,U1,15,SDA*%
%TO.N,Net-(J15-Pin_2)*%
X115300000Y-40820000D03*
%TO.P,U1,16,VDD*%
%TO.N,VCC*%
X115300000Y-38280000D03*
%TD*%
D10*
%TO.P,J10,1,Pin_1*%
%TO.N,Net-(J1-Pin_1)*%
X40300000Y-98840000D03*
%TO.P,J10,2,Pin_2*%
X40300000Y-101380000D03*
%TD*%
D13*
%TO.P,J17,1,Pin_1*%
%TO.N,Net-(J17-Pin_1)*%
X63800000Y-39740000D03*
%TO.P,J17,2,Pin_2*%
%TO.N,Net-(J15-Pin_1)*%
X63800000Y-42280000D03*
%TO.P,J17,3,Pin_3*%
X63800000Y-44820000D03*
%TD*%
%TO.P,J15,1,Pin_1*%
%TO.N,Net-(J15-Pin_2)*%
X26975000Y-39250000D03*
%TO.P,J15,2,Pin_2*%
%TO.N,Net-(J15-Pin_1)*%
X26975000Y-41790000D03*
%TO.P,J15,3,Pin_3*%
%TO.N,GND*%
X26975000Y-44330000D03*
%TD*%
D10*
%TO.P,J24,1,Pin_1*%
%TO.N,GND*%
X40300000Y-64740000D03*
%TO.P,J24,2,Pin_2*%
X40300000Y-67280000D03*
%TD*%
D18*
%TO.P,J14,1,Pin_1*%
%TO.N,GND*%
X86295000Y-55280000D03*
%TO.P,J14,2,Pin_2*%
%TO.N,Net-(J14-Pin_2)*%
X88835000Y-55280000D03*
D11*
%TO.P,J14,3,Pin_3*%
%TO.N,Net-(J12-Pin_3)*%
X91375000Y-55280000D03*
%TD*%
D10*
%TO.P,J8,1,Pin_1*%
%TO.N,Net-(J1-Pin_3)*%
X60300000Y-98840000D03*
%TO.P,J8,2,Pin_2*%
X60300000Y-101380000D03*
%TD*%
%TO.P,R3,1*%
%TO.N,VCC*%
X63800000Y-22000000D03*
%TO.P,R3,2*%
%TO.N,Net-(J17-Pin_1)*%
X63800000Y-32160000D03*
%TD*%
%TO.P,R1,1*%
%TO.N,VCC*%
X77000000Y-66000000D03*
%TO.P,R1,2*%
%TO.N,Net-(J12-Pin_3)*%
X77000000Y-55840000D03*
%TD*%
D13*
%TO.P,J16,1,Pin_1*%
%TO.N,Net-(J16-Pin_1)*%
X53825000Y-39740000D03*
%TO.P,J16,2,Pin_2*%
%TO.N,Net-(J15-Pin_2)*%
X53825000Y-42280000D03*
%TO.P,J16,3,Pin_3*%
X53825000Y-44820000D03*
%TD*%
D20*
%TO.P,J2,1,Pin_1*%
%TO.N,/PCF_CONN_BUS0*%
X100680000Y-101340000D03*
%TO.P,J2,2,Pin_2*%
%TO.N,/PCF_CONN_BUS1*%
X103220000Y-101340000D03*
%TO.P,J2,3,Pin_3*%
%TO.N,/PCF_CONN_BUS2*%
X105760000Y-101340000D03*
%TO.P,J2,4,Pin_4*%
%TO.N,/PCF_CONN_BUS3*%
X108300000Y-101340000D03*
%TO.P,J2,5,Pin_5*%
%TO.N,/PCF_CONN_BUS4*%
X110840000Y-101340000D03*
%TO.P,J2,6,Pin_6*%
%TO.N,/PCF_CONN_BUS5*%
X113380000Y-101340000D03*
%TO.P,J2,7,Pin_7*%
%TO.N,/PCF_CONN_BUS6*%
X115920000Y-101340000D03*
%TO.P,J2,8,Pin_8*%
%TO.N,/PCF_CONN_BUS7*%
X118460000Y-101340000D03*
%TO.P,J2,9,Pin_9*%
X118460000Y-98800000D03*
%TO.P,J2,10,Pin_10*%
%TO.N,/PCF_CONN_BUS6*%
X115920000Y-98800000D03*
%TO.P,J2,11,Pin_11*%
%TO.N,/PCF_CONN_BUS5*%
X113380000Y-98800000D03*
%TO.P,J2,12,Pin_12*%
%TO.N,/PCF_CONN_BUS4*%
X110840000Y-98800000D03*
%TO.P,J2,13,Pin_13*%
%TO.N,/PCF_CONN_BUS3*%
X108300000Y-98800000D03*
%TO.P,J2,14,Pin_14*%
%TO.N,/PCF_CONN_BUS2*%
X105760000Y-98800000D03*
%TO.P,J2,15,Pin_15*%
%TO.N,/PCF_CONN_BUS1*%
X103220000Y-98800000D03*
%TO.P,J2,16,Pin_16*%
%TO.N,/PCF_CONN_BUS0*%
X100680000Y-98800000D03*
%TD*%
D10*
%TO.P,J7,1,Pin_1*%
%TO.N,Net-(J1-Pin_4)*%
X70300000Y-98840000D03*
%TO.P,J7,2,Pin_2*%
X70300000Y-101380000D03*
%TD*%
%TO.P,J4,1,Pin_1*%
%TO.N,Net-(J1-Pin_16)*%
X139300000Y-98840000D03*
%TO.P,J4,2,Pin_2*%
X139300000Y-101380000D03*
%TD*%
%TO.P,J3,1,Pin_1*%
%TO.N,Net-(J1-Pin_15)*%
X129300000Y-98840000D03*
%TO.P,J3,2,Pin_2*%
X129300000Y-101380000D03*
%TD*%
%TO.P,RV1,1,1*%
%TO.N,VCC*%
X43300000Y-50500000D03*
%TO.P,RV1,2,2*%
%TO.N,Net-(J11-Pin_1)*%
X40800000Y-55500000D03*
%TO.P,RV1,3,3*%
%TO.N,GND*%
X38300000Y-50500000D03*
%TD*%
%TO.P,J6,1,Pin_1*%
%TO.N,Net-(J1-Pin_5)*%
X80300000Y-98840000D03*
%TO.P,J6,2,Pin_2*%
X80300000Y-101380000D03*
%TD*%
D21*
%TO.N,*%
X17000000Y-18100000D03*
X147000000Y-128000000D03*
X17000000Y-128100000D03*
X73250000Y-79750000D03*
X147000000Y-18200000D03*
%TD*%
D22*
%TO.N,GND*%
X29000000Y-87000000D02*
X29000000Y-89540000D01*
X30500000Y-34250000D02*
X30500000Y-29500000D01*
X108800000Y-30800000D02*
X108800000Y-31280000D01*
X17412500Y-34587500D02*
X24720000Y-27280000D01*
X38300000Y-50500000D02*
X38300000Y-48700000D01*
X34000000Y-44330000D02*
X47095064Y-44330000D01*
X30500000Y-29500000D02*
X28280000Y-27280000D01*
X39000000Y-48000000D02*
X45920000Y-48000000D01*
X28000000Y-27280000D02*
X105280000Y-27280000D01*
X21500000Y-44750000D02*
X21500000Y-36750000D01*
X47095064Y-44330000D02*
X54645064Y-51880000D01*
X40300000Y-67280000D02*
X40300000Y-74700000D01*
X86300000Y-38150000D02*
X86300000Y-39280000D01*
X25134000Y-68000000D02*
X24000000Y-66866000D01*
X105280000Y-27280000D02*
X108800000Y-30800000D01*
X21500000Y-44750000D02*
X21920000Y-44330000D01*
X101776000Y-62144500D02*
X107680000Y-56240500D01*
X38300000Y-48700000D02*
X39000000Y-48000000D01*
X85000000Y-48580000D02*
X85000000Y-54330468D01*
X85000000Y-54330468D02*
X85949532Y-55280000D01*
X26460000Y-87000000D02*
X26460000Y-89540000D01*
X26460000Y-89540000D02*
X29000000Y-89540000D01*
X86300000Y-47280000D02*
X86300000Y-39280000D01*
X24000000Y-59000000D02*
X17412500Y-52412500D01*
X37500000Y-50500000D02*
X35000000Y-53000000D01*
X24000000Y-47250000D02*
X31080000Y-47250000D01*
X39580000Y-68000000D02*
X40300000Y-67280000D01*
X27000000Y-68000000D02*
X25134000Y-68000000D01*
X17412500Y-52412500D02*
X17412500Y-34587500D01*
X24720000Y-27280000D02*
X28000000Y-27280000D01*
X83590000Y-35440000D02*
X86300000Y-38150000D01*
X54645064Y-51880000D02*
X60840000Y-51880000D01*
X22750000Y-35500000D02*
X29250000Y-35500000D01*
X26460000Y-87000000D02*
X29000000Y-87000000D01*
X29250000Y-35500000D02*
X30500000Y-34250000D01*
X38300000Y-50500000D02*
X37500000Y-50500000D01*
X21920000Y-44330000D02*
X26975000Y-44330000D01*
X40300000Y-74700000D02*
X29000000Y-86000000D01*
X29000000Y-86000000D02*
X29000000Y-87000000D01*
X27000000Y-68000000D02*
X39580000Y-68000000D01*
X21500000Y-44750000D02*
X24000000Y-47250000D01*
X35000000Y-59440000D02*
X40300000Y-64740000D01*
X70144500Y-62144500D02*
X101776000Y-62144500D01*
X60840000Y-51880000D02*
X77280000Y-35440000D01*
X45920000Y-48000000D02*
X53860000Y-55940000D01*
X86300000Y-47280000D02*
X85000000Y-48580000D01*
X63940000Y-55940000D02*
X70144500Y-62144500D01*
X53860000Y-55940000D02*
X63940000Y-55940000D01*
X28280000Y-27280000D02*
X28000000Y-27280000D01*
X86300000Y-47280000D02*
X86300000Y-47255000D01*
X35000000Y-53000000D02*
X35000000Y-59440000D01*
X24000000Y-66866000D02*
X24000000Y-59000000D01*
X40300000Y-64740000D02*
X40300000Y-67280000D01*
X31080000Y-47250000D02*
X34000000Y-44330000D01*
X21500000Y-36750000D02*
X22750000Y-35500000D01*
X77280000Y-35440000D02*
X83590000Y-35440000D01*
%TO.N,VCC*%
X52300000Y-58280000D02*
X52800000Y-58280000D01*
X26460000Y-76000000D02*
X29000000Y-76000000D01*
X113800000Y-31280000D02*
X107520000Y-25000000D01*
X29000000Y-76000000D02*
X29000000Y-78540000D01*
X14470000Y-27340000D02*
X14470000Y-62470000D01*
X70940000Y-66000000D02*
X64080000Y-59140000D01*
X68990000Y-22000000D02*
X27380000Y-22000000D01*
X77000000Y-66000000D02*
X70940000Y-66000000D01*
X27380000Y-22000000D02*
X27300000Y-21920000D01*
X22000000Y-91000000D02*
X22000000Y-83000000D01*
X22000000Y-83000000D02*
X26460000Y-78540000D01*
X63220000Y-58280000D02*
X64080000Y-59140000D01*
X14470000Y-62470000D02*
X26460000Y-74460000D01*
X20810000Y-21000000D02*
X14470000Y-27340000D01*
X50300000Y-60280000D02*
X52300000Y-58280000D01*
X26460000Y-78540000D02*
X26460000Y-76000000D01*
X71990000Y-25000000D02*
X68990000Y-22000000D01*
X42500000Y-50500000D02*
X40000000Y-53000000D01*
X50300000Y-64740000D02*
X50300000Y-60280000D01*
X50300000Y-67280000D02*
X50300000Y-64740000D01*
X26380000Y-21000000D02*
X20810000Y-21000000D01*
X32000000Y-93000000D02*
X24000000Y-93000000D01*
X60290000Y-58280000D02*
X63220000Y-58280000D01*
X26460000Y-78540000D02*
X29000000Y-78540000D01*
X26460000Y-74460000D02*
X26460000Y-76000000D01*
X43300000Y-50500000D02*
X42500000Y-50500000D01*
X44000000Y-74000000D02*
X34000000Y-84000000D01*
X40000000Y-53000000D02*
X38000000Y-53000000D01*
X115300000Y-32780000D02*
X113800000Y-31280000D01*
X37000000Y-56995000D02*
X44000000Y-63995000D01*
X115300000Y-38280000D02*
X115300000Y-32780000D01*
X107520000Y-25000000D02*
X71990000Y-25000000D01*
X24000000Y-93000000D02*
X22000000Y-91000000D01*
X27300000Y-21920000D02*
X26380000Y-21000000D01*
X34000000Y-91000000D02*
X32000000Y-93000000D01*
X34000000Y-84000000D02*
X34000000Y-91000000D01*
X52800000Y-58280000D02*
X60290000Y-58280000D01*
X44520000Y-50500000D02*
X52300000Y-58280000D01*
X37000000Y-54000000D02*
X37000000Y-56995000D01*
X43300000Y-50500000D02*
X44520000Y-50500000D01*
X44000000Y-63995000D02*
X44000000Y-74000000D01*
X38000000Y-53000000D02*
X37000000Y-54000000D01*
%TO.N,Net-(J1-Pin_1)*%
X40300000Y-98840000D02*
X40300000Y-101380000D01*
X40300000Y-102300000D02*
X59985000Y-121985000D01*
X40300000Y-101380000D02*
X40300000Y-102300000D01*
X59985000Y-121985000D02*
X59985000Y-125800000D01*
D23*
%TO.N,/PCF_CONN_BUS7*%
X93005000Y-124470000D02*
X93005000Y-125800000D01*
X118460000Y-102102000D02*
X106312000Y-114250000D01*
X118460000Y-98800000D02*
X118460000Y-91460000D01*
X118460000Y-91460000D02*
X100506000Y-73506000D01*
X103225000Y-114250000D02*
X93005000Y-124470000D01*
X106312000Y-114250000D02*
X103225000Y-114250000D01*
X100506000Y-73506000D02*
X87874000Y-73506000D01*
X118460000Y-101340000D02*
X118460000Y-98800000D01*
X118460000Y-101340000D02*
X118460000Y-102102000D01*
X87874000Y-73506000D02*
X86190000Y-75190000D01*
%TO.N,/PCF_CONN_BUS4*%
X110840000Y-102102000D02*
X103942000Y-109000000D01*
X93894344Y-77730000D02*
X93896344Y-77728000D01*
X100500000Y-109000000D02*
X85385000Y-124115000D01*
X110840000Y-92665000D02*
X110840000Y-98800000D01*
X110840000Y-101340000D02*
X110840000Y-98800000D01*
X88730000Y-77730000D02*
X93894344Y-77730000D01*
X85385000Y-124115000D02*
X85385000Y-125800000D01*
X110840000Y-101340000D02*
X110840000Y-102102000D01*
X93896344Y-77728000D02*
X95903000Y-77728000D01*
X95903000Y-77728000D02*
X110840000Y-92665000D01*
X103942000Y-109000000D02*
X100500000Y-109000000D01*
%TO.N,Net-(J1-Pin_15)*%
X129300000Y-101380000D02*
X129300000Y-98840000D01*
X104000000Y-116000000D02*
X95545000Y-124455000D01*
X129300000Y-101380000D02*
X129300000Y-108700000D01*
X122000000Y-116000000D02*
X104000000Y-116000000D01*
X129300000Y-108700000D02*
X122000000Y-116000000D01*
X95545000Y-124455000D02*
X95545000Y-125800000D01*
%TO.N,/PCF_CONN_BUS6*%
X102250000Y-112500000D02*
X90465000Y-124285000D01*
X115920000Y-91920000D02*
X115920000Y-98800000D01*
X89017000Y-74903000D02*
X98903000Y-74903000D01*
X115920000Y-101340000D02*
X115920000Y-102102000D01*
X88730000Y-75190000D02*
X89017000Y-74903000D01*
X90465000Y-124285000D02*
X90465000Y-125800000D01*
X115920000Y-102102000D02*
X105522000Y-112500000D01*
X98903000Y-74903000D02*
X115920000Y-91920000D01*
X105522000Y-112500000D02*
X102250000Y-112500000D01*
X115920000Y-101340000D02*
X115920000Y-98800000D01*
%TO.N,Net-(J1-Pin_5)*%
X80300000Y-101380000D02*
X80300000Y-98840000D01*
X80300000Y-114450000D02*
X70145000Y-124605000D01*
X80300000Y-101380000D02*
X80300000Y-114450000D01*
X70145000Y-124605000D02*
X70145000Y-125800000D01*
%TO.N,Net-(J1-Pin_3)*%
X60300000Y-98840000D02*
X60300000Y-101380000D01*
X65065000Y-120895000D02*
X65065000Y-125800000D01*
X60300000Y-116130000D02*
X65065000Y-120895000D01*
X60300000Y-101380000D02*
X60300000Y-116130000D01*
%TO.N,/PCF_CONN_BUS2*%
X88730000Y-80270000D02*
X92863586Y-80270000D01*
X80305000Y-124195000D02*
X80305000Y-125800000D01*
X101990367Y-105603000D02*
X98897000Y-105603000D01*
X105760000Y-101340000D02*
X105760000Y-98800000D01*
X105760000Y-93166414D02*
X105760000Y-98800000D01*
X105760000Y-101340000D02*
X105760000Y-101833367D01*
X98897000Y-105603000D02*
X80305000Y-124195000D01*
X92863586Y-80270000D02*
X105760000Y-93166414D01*
X105760000Y-101833367D02*
X101990367Y-105603000D01*
D24*
%TO.N,/PCF_CONN_BUS3*%
X87000000Y-79000000D02*
X86190000Y-79810000D01*
D23*
X82845000Y-124155000D02*
X82845000Y-125800000D01*
X102883367Y-107250000D02*
X99750000Y-107250000D01*
X108300000Y-101833367D02*
X102883367Y-107250000D01*
X99750000Y-107250000D02*
X82845000Y-124155000D01*
X108300000Y-101340000D02*
X108300000Y-101833367D01*
D24*
X94475000Y-79275000D02*
X94475000Y-79125000D01*
D23*
X94475000Y-79125000D02*
X108300000Y-92950000D01*
X108300000Y-92950000D02*
X108300000Y-98800000D01*
D24*
X94350000Y-79000000D02*
X87000000Y-79000000D01*
D23*
X108300000Y-101340000D02*
X108300000Y-98800000D01*
D24*
X94475000Y-79125000D02*
X94350000Y-79000000D01*
D23*
%TO.N,Net-(J1-Pin_6)*%
X90300000Y-101390000D02*
X90300000Y-106950000D01*
X72685000Y-124565000D02*
X72685000Y-125800000D01*
X90300000Y-106950000D02*
X72685000Y-124565000D01*
X90300000Y-101390000D02*
X90300000Y-98850000D01*
%TO.N,/PCF_CONN_BUS1*%
X77765000Y-124485000D02*
X77765000Y-125800000D01*
X103220000Y-101340000D02*
X103220000Y-101833367D01*
D24*
X91440000Y-81540000D02*
X91567000Y-81667000D01*
D23*
X103220000Y-101833367D02*
X101053367Y-104000000D01*
X103220000Y-93320000D02*
X91567000Y-81667000D01*
D24*
X87460000Y-81540000D02*
X91440000Y-81540000D01*
D23*
X103220000Y-101340000D02*
X103220000Y-98800000D01*
X101053367Y-104000000D02*
X98250000Y-104000000D01*
X98250000Y-104000000D02*
X77765000Y-124485000D01*
D24*
X86190000Y-82810000D02*
X87460000Y-81540000D01*
D23*
X103220000Y-98800000D02*
X103220000Y-93320000D01*
%TO.N,Net-(J1-Pin_4)*%
X67605000Y-120935000D02*
X67605000Y-125800000D01*
X70300000Y-101380000D02*
X70300000Y-118240000D01*
X70300000Y-118240000D02*
X67605000Y-120935000D01*
X70300000Y-98840000D02*
X70300000Y-101380000D01*
%TO.N,/PCF_CONN_BUS0*%
X100680000Y-101340000D02*
X98410000Y-101340000D01*
X88730000Y-82810000D02*
X90435000Y-82810000D01*
X90435000Y-82810000D02*
X100680000Y-93055000D01*
X98410000Y-101340000D02*
X75225000Y-124525000D01*
X100680000Y-101340000D02*
X100680000Y-98800000D01*
X75225000Y-124525000D02*
X75225000Y-125800000D01*
X100680000Y-93055000D02*
X100680000Y-98800000D01*
%TO.N,Net-(J1-Pin_16)*%
X122930000Y-117750000D02*
X139300000Y-101380000D01*
X98085000Y-124665000D02*
X105000000Y-117750000D01*
X139300000Y-101380000D02*
X139300000Y-98840000D01*
X98085000Y-125800000D02*
X98085000Y-124665000D01*
X105000000Y-117750000D02*
X122930000Y-117750000D01*
D22*
%TO.N,Net-(J1-Pin_2)*%
X62525000Y-121175000D02*
X62525000Y-125800000D01*
X50300000Y-98840000D02*
X50300000Y-101380000D01*
X50300000Y-108950000D02*
X62525000Y-121175000D01*
X50300000Y-101380000D02*
X50300000Y-108950000D01*
D24*
%TO.N,/PCF_CONN_BUS5*%
X90406000Y-76300000D02*
X90246000Y-76460000D01*
D23*
X104750000Y-110750000D02*
X101500000Y-110750000D01*
D24*
X90373000Y-76333000D02*
X90406000Y-76300000D01*
X90246000Y-76460000D02*
X87000000Y-76460000D01*
D23*
X97300000Y-76300000D02*
X90406000Y-76300000D01*
X101500000Y-110750000D02*
X87925000Y-124325000D01*
X87925000Y-124325000D02*
X87925000Y-125800000D01*
D24*
X87000000Y-76460000D02*
X86190000Y-77270000D01*
D23*
X113380000Y-101340000D02*
X113380000Y-102120000D01*
X113380000Y-92380000D02*
X97300000Y-76300000D01*
D24*
X86190000Y-77270000D02*
X86190000Y-77730000D01*
D23*
X113380000Y-98800000D02*
X113380000Y-92380000D01*
X113380000Y-101340000D02*
X113380000Y-98800000D01*
X113380000Y-102120000D02*
X104750000Y-110750000D01*
%TO.N,Net-(J11-Pin_1)*%
X60300000Y-64740000D02*
X60300000Y-67280000D01*
X46000000Y-63000000D02*
X46000000Y-70000000D01*
X48000000Y-72000000D02*
X57000000Y-72000000D01*
X40800000Y-55500000D02*
X40800000Y-57800000D01*
X57000000Y-72000000D02*
X60300000Y-68700000D01*
X46000000Y-70000000D02*
X48000000Y-72000000D01*
X60300000Y-68700000D02*
X60300000Y-67280000D01*
X40800000Y-57800000D02*
X46000000Y-63000000D01*
%TO.N,Net-(J12-Pin_2)*%
X90740000Y-33780000D02*
X88650000Y-35870000D01*
X88650000Y-39090000D02*
X88840000Y-39280000D01*
X103800000Y-38280000D02*
X99300000Y-33780000D01*
X88650000Y-35870000D02*
X88650000Y-39090000D01*
X99300000Y-33780000D02*
X90740000Y-33780000D01*
X107680000Y-38280000D02*
X103800000Y-38280000D01*
%TO.N,Net-(J12-Pin_3)*%
X87650000Y-53180000D02*
X91380000Y-49450000D01*
X81400000Y-58580000D02*
X78660000Y-55840000D01*
X91380000Y-39280000D02*
X91380000Y-47280000D01*
D24*
X87550000Y-57530000D02*
X87438000Y-57642000D01*
X87550000Y-53280000D02*
X87550000Y-57530000D01*
D23*
X91380000Y-49450000D02*
X91380000Y-47280000D01*
X86500000Y-58580000D02*
X81400000Y-58580000D01*
X78660000Y-55840000D02*
X77000000Y-55840000D01*
X87438000Y-57642000D02*
X86500000Y-58580000D01*
D24*
X87650000Y-53180000D02*
X87550000Y-53280000D01*
D23*
X91375000Y-50705000D02*
X91375000Y-55280000D01*
D24*
X87650000Y-53295000D02*
X87650000Y-53180000D01*
D23*
X91380000Y-55275000D02*
X91375000Y-55280000D01*
X91380000Y-47280000D02*
X91380000Y-55275000D01*
D24*
%TO.N,Net-(J13-Pin_2)*%
X90110000Y-41303000D02*
X89983000Y-41430000D01*
D23*
X88850000Y-42563000D02*
X88850000Y-47270000D01*
X89983000Y-41430000D02*
X88850000Y-42563000D01*
X88840000Y-47280000D02*
X88840000Y-47091274D01*
D24*
X90230000Y-36690000D02*
X90110000Y-36810000D01*
D23*
X90790000Y-36130000D02*
X98900000Y-36130000D01*
X88850000Y-47270000D02*
X88840000Y-47280000D01*
X90230000Y-36690000D02*
X90790000Y-36130000D01*
X103590000Y-40820000D02*
X107680000Y-40820000D01*
X98900000Y-36130000D02*
X103590000Y-40820000D01*
D24*
X90110000Y-36810000D02*
X90110000Y-41303000D01*
D23*
%TO.N,Net-(J14-Pin_2)*%
X97890000Y-46690000D02*
X101300000Y-43280000D01*
X89705000Y-59160000D02*
X92910000Y-59160000D01*
X101300000Y-43280000D02*
X107600000Y-43280000D01*
X88835000Y-55280000D02*
X88835000Y-58290000D01*
X88835000Y-58290000D02*
X89705000Y-59160000D01*
X107600000Y-43280000D02*
X107680000Y-43360000D01*
X97890000Y-54180000D02*
X97890000Y-46690000D01*
X92910000Y-59160000D02*
X97890000Y-54180000D01*
%TO.N,Net-(J15-Pin_2)*%
X106550000Y-34030000D02*
X110300000Y-34030000D01*
X33603000Y-40603000D02*
X32250000Y-39250000D01*
X61720000Y-29280000D02*
X101800000Y-29280000D01*
X112550000Y-39780000D02*
X113590000Y-40820000D01*
X53825000Y-42280000D02*
X53825000Y-44820000D01*
D22*
X26975000Y-39445000D02*
X26975000Y-39025000D01*
D23*
X112550000Y-36280000D02*
X112550000Y-39780000D01*
X47588784Y-40603000D02*
X33603000Y-40603000D01*
X58720000Y-42280000D02*
X61000000Y-40000000D01*
X53825000Y-42280000D02*
X58720000Y-42280000D01*
X110300000Y-34030000D02*
X112550000Y-36280000D01*
X101800000Y-29280000D02*
X106550000Y-34030000D01*
X113590000Y-40820000D02*
X115300000Y-40820000D01*
X53825000Y-42280000D02*
X49265784Y-42280000D01*
X49265784Y-42280000D02*
X47588784Y-40603000D01*
X32250000Y-39250000D02*
X26975000Y-39250000D01*
X61000000Y-40000000D02*
X61000000Y-30000000D01*
X61000000Y-30000000D02*
X61720000Y-29280000D01*
%TO.N,Net-(J15-Pin_1)*%
X110550000Y-37280000D02*
X109050000Y-35780000D01*
X47260128Y-42250000D02*
X47250000Y-42250000D01*
X47250000Y-42250000D02*
X46790000Y-41790000D01*
X67300000Y-41280000D02*
X66300000Y-42280000D01*
X51671628Y-46661500D02*
X47260128Y-42250000D01*
X61958500Y-46661500D02*
X51671628Y-46661500D01*
X63800000Y-42280000D02*
X63800000Y-44820000D01*
X66300000Y-42280000D02*
X63800000Y-42280000D01*
X46790000Y-41790000D02*
X26975000Y-41790000D01*
X109050000Y-35780000D02*
X105050000Y-35780000D01*
X67300000Y-32700000D02*
X67300000Y-41280000D01*
X105050000Y-35780000D02*
X100050000Y-30780000D01*
X69220000Y-30780000D02*
X67300000Y-32700000D01*
X115300000Y-43360000D02*
X113130000Y-43360000D01*
X113130000Y-43360000D02*
X110550000Y-40780000D01*
X100050000Y-30780000D02*
X69220000Y-30780000D01*
X63800000Y-44820000D02*
X61958500Y-46661500D01*
X110550000Y-40780000D02*
X110550000Y-37280000D01*
%TO.N,Net-(J16-Pin_1)*%
X53800000Y-39715000D02*
X53800000Y-32160000D01*
X53825000Y-39740000D02*
X53800000Y-39715000D01*
%TO.N,Net-(J17-Pin_1)*%
X63800000Y-39740000D02*
X63800000Y-32160000D01*
%TO.N,Net-(J18-Pin_2)*%
X112920000Y-45900000D02*
X115300000Y-45900000D01*
X28905000Y-55000000D02*
X37905000Y-46000000D01*
X65900000Y-53900000D02*
X72557000Y-60557000D01*
X27000000Y-55000000D02*
X28905000Y-55000000D01*
X54420000Y-53900000D02*
X65900000Y-53900000D01*
X27000000Y-57540000D02*
X27000000Y-55000000D01*
X37905000Y-46000000D02*
X46520000Y-46000000D01*
X111777000Y-44757000D02*
X112920000Y-45900000D01*
X99970000Y-54740000D02*
X99970000Y-48610000D01*
X103823000Y-44757000D02*
X105300000Y-44757000D01*
D24*
X110550000Y-44757000D02*
X110423000Y-44630000D01*
X104927000Y-44630000D02*
X104800000Y-44757000D01*
X110423000Y-44630000D02*
X104927000Y-44630000D01*
D23*
X99970000Y-48610000D02*
X103823000Y-44757000D01*
X94153000Y-60557000D02*
X99970000Y-54740000D01*
X110050000Y-44757000D02*
X111777000Y-44757000D01*
X46520000Y-46000000D02*
X54420000Y-53900000D01*
X27000000Y-57540000D02*
X27000000Y-65460000D01*
X72557000Y-60557000D02*
X94153000Y-60557000D01*
%TO.N,Net-(J18-Pin_1)*%
X19000000Y-36000000D02*
X19000000Y-50000000D01*
X23000000Y-32000000D02*
X19000000Y-36000000D01*
X21460000Y-52460000D02*
X27000000Y-52460000D01*
X27300000Y-32080000D02*
X27220000Y-32000000D01*
X27220000Y-32000000D02*
X23000000Y-32000000D01*
X19000000Y-50000000D02*
X21460000Y-52460000D01*
%TO.N,/PCF_SIGNAL_BUS3*%
X105300000Y-49837000D02*
X104583000Y-49837000D01*
X112950500Y-57100500D02*
X112950500Y-52830500D01*
X104583000Y-49837000D02*
X103570000Y-50850000D01*
X103570000Y-50850000D02*
X103570000Y-52260000D01*
X103570000Y-52260000D02*
X104512500Y-53202500D01*
X119410000Y-76970000D02*
X119410000Y-63560000D01*
D24*
X104710000Y-49710000D02*
X104583000Y-49837000D01*
D23*
X104512500Y-53202500D02*
X107680000Y-53202500D01*
X119410000Y-63560000D02*
X112950500Y-57100500D01*
X112950500Y-52830500D02*
X109950000Y-49830000D01*
X122910000Y-80470000D02*
X119410000Y-76970000D01*
D24*
X109950000Y-49830000D02*
X109830000Y-49710000D01*
X109830000Y-49710000D02*
X104710000Y-49710000D01*
D23*
X127130000Y-80470000D02*
X122910000Y-80470000D01*
%TO.N,/PCF_SIGNAL_BUS1*%
X109806974Y-54903026D02*
X110156500Y-55252552D01*
X101970000Y-53210000D02*
X101970000Y-50040000D01*
X103570000Y-48440000D02*
X107680000Y-48440000D01*
X126876000Y-83264000D02*
X127130000Y-83010000D01*
D24*
X109806974Y-54903026D02*
X109913948Y-55010000D01*
D23*
X105320000Y-54890000D02*
X103650000Y-54890000D01*
X101970000Y-50040000D02*
X103570000Y-48440000D01*
X110156500Y-55252552D02*
X110156500Y-58712156D01*
D24*
X109913948Y-55010000D02*
X109920000Y-55010000D01*
D23*
X103650000Y-54890000D02*
X101970000Y-53210000D01*
D24*
X105430000Y-54780000D02*
X109683948Y-54780000D01*
D23*
X116050000Y-78110000D02*
X121204000Y-83264000D01*
D24*
X105320000Y-54890000D02*
X105430000Y-54780000D01*
D23*
X127130000Y-83010000D02*
X127033000Y-83107000D01*
X121204000Y-83264000D02*
X126876000Y-83264000D01*
D24*
X109683948Y-54780000D02*
X109806974Y-54903026D01*
D23*
X116050000Y-64605656D02*
X116050000Y-78110000D01*
X110156500Y-58712156D02*
X116050000Y-64605656D01*
%TO.N,/PCF_SIGNAL_BUS5*%
X115300000Y-53520000D02*
X116520000Y-53520000D01*
X122750000Y-59750000D02*
X122750000Y-75877828D01*
X116520000Y-53520000D02*
X122750000Y-59750000D01*
X122750000Y-75877828D02*
X124802172Y-77930000D01*
X124802172Y-77930000D02*
X127130000Y-77930000D01*
%TO.N,/PCF_SIGNAL_BUS0*%
X128080000Y-56830000D02*
X128080000Y-70350000D01*
D24*
X111740000Y-47170000D02*
X117178688Y-47170000D01*
D23*
X128080000Y-70350000D02*
X132090000Y-74360000D01*
X108350000Y-46570000D02*
X111140000Y-46570000D01*
X118280000Y-47030000D02*
X128080000Y-56830000D01*
X132090000Y-81350000D02*
X130430000Y-83010000D01*
X132090000Y-74360000D02*
X132090000Y-81350000D01*
X117318688Y-47030000D02*
X118280000Y-47030000D01*
X111140000Y-46570000D02*
X111615000Y-47045000D01*
X130430000Y-83010000D02*
X129670000Y-83010000D01*
X107680000Y-45900000D02*
X108350000Y-46570000D01*
D24*
X111290000Y-46720000D02*
X111740000Y-47170000D01*
X117178688Y-47170000D02*
X117318688Y-47030000D01*
X107680000Y-45900000D02*
X107680000Y-46027000D01*
D23*
%TO.N,/PCF_SIGNAL_BUS6*%
X124500000Y-58500000D02*
X124500000Y-75530000D01*
X115300000Y-50980000D02*
X116980000Y-50980000D01*
D24*
X125630000Y-76660000D02*
X128400000Y-76660000D01*
D23*
X124500000Y-75530000D02*
X125503000Y-76533000D01*
D24*
X128400000Y-76660000D02*
X129670000Y-75390000D01*
D23*
X116980000Y-50980000D02*
X124500000Y-58500000D01*
D24*
%TO.N,/PCF_SIGNAL_BUS4*%
X128400000Y-79200000D02*
X123750000Y-79200000D01*
D23*
X115300000Y-56930000D02*
X115300000Y-56060000D01*
D24*
X128400000Y-79200000D02*
X129670000Y-77930000D01*
D23*
X121000000Y-62630000D02*
X115300000Y-56930000D01*
D24*
X129670000Y-77930000D02*
X129055656Y-77930000D01*
D23*
X123623000Y-79073000D02*
X121000000Y-76450000D01*
X121000000Y-76450000D02*
X121000000Y-62630000D01*
%TO.N,/PCF_SIGNAL_BUS7*%
X127130000Y-75390000D02*
X126250000Y-74510000D01*
X126250000Y-57375000D02*
X117315000Y-48440000D01*
X126250000Y-74510000D02*
X126250000Y-57375000D01*
X117315000Y-48440000D02*
X115300000Y-48440000D01*
D24*
%TO.N,/PCF_SIGNAL_BUS2*%
X125375656Y-81740000D02*
X128400000Y-81740000D01*
D23*
X117700000Y-64280000D02*
X111553500Y-58133500D01*
D24*
X128400000Y-81740000D02*
X129670000Y-80470000D01*
X108370000Y-50980000D02*
X107680000Y-50980000D01*
D23*
X111553500Y-54163500D02*
X108370000Y-50980000D01*
X111553500Y-58133500D02*
X111553500Y-54163500D01*
X125375656Y-81867000D02*
X122017000Y-81867000D01*
D24*
X128955656Y-80470000D02*
X129670000Y-80470000D01*
D23*
X122017000Y-81867000D02*
X117700000Y-77550000D01*
X117700000Y-77550000D02*
X117700000Y-64280000D01*
%TD*%
%TA.AperFunction,Conductor*%
%TO.N,GND*%
G36*
X28534075Y-89347007D02*
G01*
X28500000Y-89474174D01*
X28500000Y-89605826D01*
X28534075Y-89732993D01*
X28566988Y-89790000D01*
X26893012Y-89790000D01*
X26925925Y-89732993D01*
X26960000Y-89605826D01*
X26960000Y-89474174D01*
X26925925Y-89347007D01*
X26893012Y-89290000D01*
X28566988Y-89290000D01*
X28534075Y-89347007D01*
G37*
%TD.AperFunction*%
%TA.AperFunction,Conductor*%
G36*
X26710000Y-89106988D02*
G01*
X26652993Y-89074075D01*
X26525826Y-89040000D01*
X26394174Y-89040000D01*
X26267007Y-89074075D01*
X26210000Y-89106988D01*
X26210000Y-87433012D01*
X26267007Y-87465925D01*
X26394174Y-87500000D01*
X26525826Y-87500000D01*
X26652993Y-87465925D01*
X26710000Y-87433012D01*
X26710000Y-89106988D01*
G37*
%TD.AperFunction*%
%TA.AperFunction,Conductor*%
G36*
X29250000Y-89106988D02*
G01*
X29192993Y-89074075D01*
X29065826Y-89040000D01*
X28934174Y-89040000D01*
X28807007Y-89074075D01*
X28750000Y-89106988D01*
X28750000Y-87433012D01*
X28807007Y-87465925D01*
X28934174Y-87500000D01*
X29065826Y-87500000D01*
X29192993Y-87465925D01*
X29250000Y-87433012D01*
X29250000Y-89106988D01*
G37*
%TD.AperFunction*%
%TA.AperFunction,Conductor*%
G36*
X28534075Y-86807007D02*
G01*
X28500000Y-86934174D01*
X28500000Y-87065826D01*
X28534075Y-87192993D01*
X28566988Y-87250000D01*
X26893012Y-87250000D01*
X26925925Y-87192993D01*
X26960000Y-87065826D01*
X26960000Y-86934174D01*
X26925925Y-86807007D01*
X26893012Y-86750000D01*
X28566988Y-86750000D01*
X28534075Y-86807007D01*
G37*
%TD.AperFunction*%
%TA.AperFunction,Conductor*%
G36*
X40550000Y-66846988D02*
G01*
X40492993Y-66814075D01*
X40365826Y-66780000D01*
X40234174Y-66780000D01*
X40107007Y-66814075D01*
X40050000Y-66846988D01*
X40050000Y-65173012D01*
X40107007Y-65205925D01*
X40234174Y-65240000D01*
X40365826Y-65240000D01*
X40492993Y-65205925D01*
X40550000Y-65173012D01*
X40550000Y-66846988D01*
G37*
%TD.AperFunction*%
%TA.AperFunction,Conductor*%
G36*
X151442539Y-13650185D02*
G01*
X151488294Y-13702989D01*
X151499500Y-13754500D01*
X151499500Y-132505500D01*
X151479815Y-132572539D01*
X151427011Y-132618294D01*
X151375500Y-132629500D01*
X12624500Y-132629500D01*
X12557461Y-132609815D01*
X12511706Y-132557011D01*
X12500500Y-132505500D01*
X12500500Y-128100000D01*
X14677026Y-128100000D01*
X14690345Y-128303219D01*
X14696899Y-128403207D01*
X14696901Y-128403219D01*
X14756177Y-128701222D01*
X14756181Y-128701237D01*
X14853853Y-128988967D01*
X14988241Y-129261479D01*
X14988244Y-129261483D01*
X14988246Y-129261487D01*
X15072939Y-129388240D01*
X15157059Y-129514135D01*
X15357408Y-129742591D01*
X15585863Y-129942939D01*
X15838513Y-130111754D01*
X15838517Y-130111756D01*
X15838520Y-130111758D01*
X16098049Y-130239743D01*
X16111036Y-130246148D01*
X16398770Y-130343821D01*
X16696791Y-130403101D01*
X17000000Y-130422974D01*
X17303209Y-130403101D01*
X17601230Y-130343821D01*
X17888964Y-130246148D01*
X18161487Y-130111754D01*
X18414137Y-129942939D01*
X18642591Y-129742591D01*
X18842939Y-129514137D01*
X19011754Y-129261487D01*
X19146148Y-128988964D01*
X19243821Y-128701230D01*
X19303101Y-128403209D01*
X19322974Y-128100000D01*
X19316420Y-128000000D01*
X144677026Y-128000000D01*
X144696899Y-128303207D01*
X144696901Y-128303219D01*
X144756177Y-128601222D01*
X144756181Y-128601237D01*
X144853853Y-128888967D01*
X144988241Y-129161479D01*
X144988244Y-129161483D01*
X144988246Y-129161487D01*
X145055063Y-129261486D01*
X145157059Y-129414135D01*
X145357408Y-129642591D01*
X145585863Y-129842939D01*
X145838513Y-130011754D01*
X145838517Y-130011756D01*
X145838520Y-130011758D01*
X146041290Y-130111753D01*
X146111036Y-130146148D01*
X146398770Y-130243821D01*
X146696791Y-130303101D01*
X147000000Y-130322974D01*
X147303209Y-130303101D01*
X147601230Y-130243821D01*
X147888964Y-130146148D01*
X148161487Y-130011754D01*
X148414137Y-129842939D01*
X148642591Y-129642591D01*
X148842939Y-129414137D01*
X149011754Y-129161487D01*
X149146148Y-128888964D01*
X149243821Y-128601230D01*
X149303101Y-128303209D01*
X149322974Y-128000000D01*
X149303101Y-127696791D01*
X149243821Y-127398770D01*
X149146148Y-127111036D01*
X149139743Y-127098049D01*
X149011758Y-126838520D01*
X149011756Y-126838517D01*
X149011754Y-126838513D01*
X148842939Y-126585863D01*
X148642591Y-126357408D01*
X148414135Y-126157059D01*
X148288240Y-126072939D01*
X148161487Y-125988246D01*
X148161483Y-125988244D01*
X148161479Y-125988241D01*
X147888967Y-125853853D01*
X147601237Y-125756181D01*
X147601231Y-125756179D01*
X147601230Y-125756179D01*
X147601228Y-125756178D01*
X147601222Y-125756177D01*
X147303219Y-125696901D01*
X147303209Y-125696899D01*
X147000000Y-125677026D01*
X146696791Y-125696899D01*
X146696785Y-125696900D01*
X146696780Y-125696901D01*
X146398777Y-125756177D01*
X146398762Y-125756181D01*
X146111032Y-125853853D01*
X145838520Y-125988241D01*
X145838513Y-125988246D01*
X145585864Y-126157059D01*
X145357408Y-126357408D01*
X145157059Y-126585864D01*
X144988246Y-126838513D01*
X144988241Y-126838520D01*
X144853853Y-127111032D01*
X144756181Y-127398762D01*
X144756177Y-127398777D01*
X144696901Y-127696780D01*
X144696899Y-127696791D01*
X144690345Y-127796791D01*
X144677026Y-128000000D01*
X19316420Y-128000000D01*
X19303101Y-127796791D01*
X19243821Y-127498770D01*
X19146148Y-127211036D01*
X19100210Y-127117883D01*
X19011758Y-126938520D01*
X19011756Y-126938517D01*
X19011754Y-126938513D01*
X18842939Y-126685863D01*
X18755242Y-126585863D01*
X18642591Y-126457408D01*
X18414135Y-126257059D01*
X18264473Y-126157059D01*
X18161487Y-126088246D01*
X18161483Y-126088244D01*
X18161479Y-126088241D01*
X17888967Y-125953853D01*
X17601237Y-125856181D01*
X17601231Y-125856179D01*
X17601230Y-125856179D01*
X17601228Y-125856178D01*
X17601222Y-125856177D01*
X17303219Y-125796901D01*
X17303209Y-125796899D01*
X17000000Y-125777026D01*
X16696791Y-125796899D01*
X16696785Y-125796900D01*
X16696780Y-125796901D01*
X16398777Y-125856177D01*
X16398762Y-125856181D01*
X16111032Y-125953853D01*
X15838520Y-126088241D01*
X15838513Y-126088246D01*
X15585864Y-126257059D01*
X15357408Y-126457408D01*
X15157059Y-126685864D01*
X14988246Y-126938513D01*
X14988241Y-126938520D01*
X14853853Y-127211032D01*
X14756181Y-127498762D01*
X14756177Y-127498777D01*
X14741911Y-127570498D01*
X14696899Y-127796791D01*
X14677026Y-128100000D01*
X12500500Y-128100000D01*
X12500500Y-97839635D01*
X38847000Y-97839635D01*
X38847000Y-99840370D01*
X38847001Y-99840376D01*
X38853408Y-99899983D01*
X38903702Y-100034828D01*
X38903705Y-100034833D01*
X38904348Y-100035692D01*
X38904722Y-100036695D01*
X38907954Y-100042614D01*
X38907102Y-100043078D01*
X38928763Y-100101157D01*
X38913910Y-100169429D01*
X38904348Y-100184308D01*
X38903705Y-100185166D01*
X38903702Y-100185171D01*
X38853408Y-100320017D01*
X38847001Y-100379616D01*
X38847001Y-100379623D01*
X38847000Y-100379635D01*
X38847000Y-102380370D01*
X38847001Y-102380376D01*
X38853408Y-102439983D01*
X38903702Y-102574828D01*
X38903706Y-102574835D01*
X38989952Y-102690044D01*
X38989955Y-102690047D01*
X39105164Y-102776293D01*
X39105171Y-102776297D01*
X39131972Y-102786293D01*
X39240017Y-102826591D01*
X39299627Y-102833000D01*
X39376945Y-102832999D01*
X39443984Y-102852683D01*
X39480048Y-102888108D01*
X39516646Y-102942880D01*
X39516649Y-102942884D01*
X58940181Y-122366415D01*
X58973666Y-122427738D01*
X58976500Y-122454096D01*
X58976500Y-124027254D01*
X58956815Y-124094293D01*
X58926812Y-124126520D01*
X58865457Y-124172450D01*
X58865451Y-124172457D01*
X58779206Y-124287664D01*
X58779202Y-124287671D01*
X58728908Y-124422517D01*
X58722501Y-124482116D01*
X58722500Y-124482135D01*
X58722500Y-127117870D01*
X58722501Y-127117876D01*
X58728908Y-127177483D01*
X58779202Y-127312328D01*
X58779206Y-127312335D01*
X58865452Y-127427544D01*
X58865455Y-127427547D01*
X58980664Y-127513793D01*
X58980671Y-127513797D01*
X59115517Y-127564091D01*
X59115516Y-127564091D01*
X59122444Y-127564835D01*
X59175127Y-127570500D01*
X60794872Y-127570499D01*
X60854483Y-127564091D01*
X60989331Y-127513796D01*
X61104546Y-127427546D01*
X61155734Y-127359166D01*
X61211667Y-127317297D01*
X61281359Y-127312313D01*
X61342682Y-127345798D01*
X61354261Y-127359161D01*
X61405454Y-127427546D01*
X61451643Y-127462123D01*
X61520664Y-127513793D01*
X61520671Y-127513797D01*
X61655517Y-127564091D01*
X61655516Y-127564091D01*
X61662444Y-127564835D01*
X61715127Y-127570500D01*
X63334872Y-127570499D01*
X63394483Y-127564091D01*
X63529331Y-127513796D01*
X63644546Y-127427546D01*
X63695734Y-127359166D01*
X63751667Y-127317297D01*
X63821359Y-127312313D01*
X63882682Y-127345798D01*
X63894261Y-127359161D01*
X63945454Y-127427546D01*
X63991643Y-127462123D01*
X64060664Y-127513793D01*
X64060671Y-127513797D01*
X64195517Y-127564091D01*
X64195516Y-127564091D01*
X64202444Y-127564835D01*
X64255127Y-127570500D01*
X65874872Y-127570499D01*
X65934483Y-127564091D01*
X66069331Y-127513796D01*
X66184546Y-127427546D01*
X66235734Y-127359166D01*
X66291667Y-127317297D01*
X66361359Y-127312313D01*
X66422682Y-127345798D01*
X66434261Y-127359161D01*
X66485454Y-127427546D01*
X66531643Y-127462123D01*
X66600664Y-127513793D01*
X66600671Y-127513797D01*
X66735517Y-127564091D01*
X66735516Y-127564091D01*
X66742444Y-127564835D01*
X66795127Y-127570500D01*
X68414872Y-127570499D01*
X68474483Y-127564091D01*
X68609331Y-127513796D01*
X68724546Y-127427546D01*
X68775734Y-127359166D01*
X68831667Y-127317297D01*
X68901359Y-127312313D01*
X68962682Y-127345798D01*
X68974261Y-127359161D01*
X69025454Y-127427546D01*
X69071643Y-127462123D01*
X69140664Y-127513793D01*
X69140671Y-127513797D01*
X69275517Y-127564091D01*
X69275516Y-127564091D01*
X69282444Y-127564835D01*
X69335127Y-127570500D01*
X70954872Y-127570499D01*
X71014483Y-127564091D01*
X71149331Y-127513796D01*
X71264546Y-127427546D01*
X71315734Y-127359166D01*
X71371667Y-127317297D01*
X71441359Y-127312313D01*
X71502682Y-127345798D01*
X71514261Y-127359161D01*
X71565454Y-127427546D01*
X71611643Y-127462123D01*
X71680664Y-127513793D01*
X71680671Y-127513797D01*
X71815517Y-127564091D01*
X71815516Y-127564091D01*
X71822444Y-127564835D01*
X71875127Y-127570500D01*
X73494872Y-127570499D01*
X73554483Y-127564091D01*
X73689331Y-127513796D01*
X73804546Y-127427546D01*
X73855734Y-127359166D01*
X73911667Y-127317297D01*
X73981359Y-127312313D01*
X74042682Y-127345798D01*
X74054261Y-127359161D01*
X74105454Y-127427546D01*
X74151643Y-127462123D01*
X74220664Y-127513793D01*
X74220671Y-127513797D01*
X74355517Y-127564091D01*
X74355516Y-127564091D01*
X74362444Y-127564835D01*
X74415127Y-127570500D01*
X76034872Y-127570499D01*
X76094483Y-127564091D01*
X76229331Y-127513796D01*
X76344546Y-127427546D01*
X76395734Y-127359166D01*
X76451667Y-127317297D01*
X76521359Y-127312313D01*
X76582682Y-127345798D01*
X76594261Y-127359161D01*
X76645454Y-127427546D01*
X76691643Y-127462123D01*
X76760664Y-127513793D01*
X76760671Y-127513797D01*
X76895517Y-127564091D01*
X76895516Y-127564091D01*
X76902444Y-127564835D01*
X76955127Y-127570500D01*
X78574872Y-127570499D01*
X78634483Y-127564091D01*
X78769331Y-127513796D01*
X78884546Y-127427546D01*
X78935734Y-127359166D01*
X78991667Y-127317297D01*
X79061359Y-127312313D01*
X79122682Y-127345798D01*
X79134261Y-127359161D01*
X79185454Y-127427546D01*
X79231643Y-127462123D01*
X79300664Y-127513793D01*
X79300671Y-127513797D01*
X79435517Y-127564091D01*
X79435516Y-127564091D01*
X79442444Y-127564835D01*
X79495127Y-127570500D01*
X81114872Y-127570499D01*
X81174483Y-127564091D01*
X81309331Y-127513796D01*
X81424546Y-127427546D01*
X81475734Y-127359166D01*
X81531667Y-127317297D01*
X81601359Y-127312313D01*
X81662682Y-127345798D01*
X81674261Y-127359161D01*
X81725454Y-127427546D01*
X81771643Y-127462123D01*
X81840664Y-127513793D01*
X81840671Y-127513797D01*
X81975517Y-127564091D01*
X81975516Y-127564091D01*
X81982444Y-127564835D01*
X82035127Y-127570500D01*
X83654872Y-127570499D01*
X83714483Y-127564091D01*
X83849331Y-127513796D01*
X83964546Y-127427546D01*
X84015734Y-127359166D01*
X84071667Y-127317297D01*
X84141359Y-127312313D01*
X84202682Y-127345798D01*
X84214261Y-127359161D01*
X84265454Y-127427546D01*
X84311643Y-127462123D01*
X84380664Y-127513793D01*
X84380671Y-127513797D01*
X84515517Y-127564091D01*
X84515516Y-127564091D01*
X84522444Y-127564835D01*
X84575127Y-127570500D01*
X86194872Y-127570499D01*
X86254483Y-127564091D01*
X86389331Y-127513796D01*
X86504546Y-127427546D01*
X86555734Y-127359166D01*
X86611667Y-127317297D01*
X86681359Y-127312313D01*
X86742682Y-127345798D01*
X86754261Y-127359161D01*
X86805454Y-127427546D01*
X86851643Y-127462123D01*
X86920664Y-127513793D01*
X86920671Y-127513797D01*
X87055517Y-127564091D01*
X87055516Y-127564091D01*
X87062444Y-127564835D01*
X87115127Y-127570500D01*
X88734872Y-127570499D01*
X88794483Y-127564091D01*
X88929331Y-127513796D01*
X89044546Y-127427546D01*
X89095734Y-127359166D01*
X89151667Y-127317297D01*
X89221359Y-127312313D01*
X89282682Y-127345798D01*
X89294261Y-127359161D01*
X89345454Y-127427546D01*
X89391643Y-127462123D01*
X89460664Y-127513793D01*
X89460671Y-127513797D01*
X89595517Y-127564091D01*
X89595516Y-127564091D01*
X89602444Y-127564835D01*
X89655127Y-127570500D01*
X91274872Y-127570499D01*
X91334483Y-127564091D01*
X91469331Y-127513796D01*
X91584546Y-127427546D01*
X91635734Y-127359166D01*
X91691667Y-127317297D01*
X91761359Y-127312313D01*
X91822682Y-127345798D01*
X91834261Y-127359161D01*
X91885454Y-127427546D01*
X91931643Y-127462123D01*
X92000664Y-127513793D01*
X92000671Y-127513797D01*
X92135517Y-127564091D01*
X92135516Y-127564091D01*
X92142444Y-127564835D01*
X92195127Y-127570500D01*
X93814872Y-127570499D01*
X93874483Y-127564091D01*
X94009331Y-127513796D01*
X94124546Y-127427546D01*
X94175734Y-127359166D01*
X94231667Y-127317297D01*
X94301359Y-127312313D01*
X94362682Y-127345798D01*
X94374261Y-127359161D01*
X94425454Y-127427546D01*
X94471643Y-127462123D01*
X94540664Y-127513793D01*
X94540671Y-127513797D01*
X94675517Y-127564091D01*
X94675516Y-127564091D01*
X94682444Y-127564835D01*
X94735127Y-127570500D01*
X96354872Y-127570499D01*
X96414483Y-127564091D01*
X96549331Y-127513796D01*
X96664546Y-127427546D01*
X96715734Y-127359166D01*
X96771667Y-127317297D01*
X96841359Y-127312313D01*
X96902682Y-127345798D01*
X96914261Y-127359161D01*
X96965454Y-127427546D01*
X97011643Y-127462123D01*
X97080664Y-127513793D01*
X97080671Y-127513797D01*
X97215517Y-127564091D01*
X97215516Y-127564091D01*
X97222444Y-127564835D01*
X97275127Y-127570500D01*
X98894872Y-127570499D01*
X98954483Y-127564091D01*
X99089331Y-127513796D01*
X99204546Y-127427546D01*
X99290796Y-127312331D01*
X99341091Y-127177483D01*
X99347500Y-127117873D01*
X99347499Y-124610687D01*
X99367184Y-124543649D01*
X99383813Y-124523012D01*
X105302507Y-118604319D01*
X105363830Y-118570834D01*
X105390188Y-118568000D01*
X123010567Y-118568000D01*
X123010568Y-118567999D01*
X123168602Y-118536565D01*
X123243035Y-118505733D01*
X123317468Y-118474903D01*
X123451445Y-118385382D01*
X138967508Y-102869317D01*
X139028831Y-102835833D01*
X139055189Y-102832999D01*
X140300371Y-102832999D01*
X140300372Y-102832999D01*
X140359983Y-102826591D01*
X140494831Y-102776296D01*
X140610046Y-102690046D01*
X140696296Y-102574831D01*
X140746591Y-102439983D01*
X140753000Y-102380373D01*
X140752999Y-100379628D01*
X140746591Y-100320017D01*
X140746591Y-100320016D01*
X140696298Y-100185173D01*
X140696296Y-100185171D01*
X140696296Y-100185169D01*
X140695654Y-100184312D01*
X140695281Y-100183311D01*
X140692048Y-100177391D01*
X140692899Y-100176926D01*
X140671235Y-100118853D01*
X140686083Y-100050579D01*
X140695651Y-100035692D01*
X140696296Y-100034831D01*
X140746591Y-99899983D01*
X140753000Y-99840373D01*
X140752999Y-97839628D01*
X140746591Y-97780017D01*
X140696296Y-97645169D01*
X140696295Y-97645168D01*
X140696293Y-97645164D01*
X140610047Y-97529955D01*
X140610044Y-97529952D01*
X140494835Y-97443706D01*
X140494828Y-97443702D01*
X140359982Y-97393408D01*
X140359983Y-97393408D01*
X140300383Y-97387001D01*
X140300381Y-97387000D01*
X140300373Y-97387000D01*
X140300364Y-97387000D01*
X138299629Y-97387000D01*
X138299623Y-97387001D01*
X138240016Y-97393408D01*
X138105171Y-97443702D01*
X138105164Y-97443706D01*
X137989955Y-97529952D01*
X137989952Y-97529955D01*
X137903706Y-97645164D01*
X137903702Y-97645171D01*
X137853408Y-97780017D01*
X137847001Y-97839616D01*
X137847001Y-97839623D01*
X137847000Y-97839635D01*
X137847000Y-99840370D01*
X137847001Y-99840376D01*
X137853408Y-99899983D01*
X137903702Y-100034828D01*
X137903705Y-100034833D01*
X137904348Y-100035692D01*
X137904722Y-100036695D01*
X137907954Y-100042614D01*
X137907102Y-100043078D01*
X137928763Y-100101157D01*
X137913910Y-100169429D01*
X137904348Y-100184308D01*
X137903705Y-100185166D01*
X137903702Y-100185171D01*
X137853408Y-100320017D01*
X137847001Y-100379616D01*
X137847001Y-100379623D01*
X137847000Y-100379635D01*
X137847000Y-101624810D01*
X137827315Y-101691849D01*
X137810681Y-101712491D01*
X122627492Y-116895681D01*
X122566169Y-116929166D01*
X122539811Y-116932000D01*
X122486299Y-116932000D01*
X122419260Y-116912315D01*
X122373505Y-116859511D01*
X122363561Y-116790353D01*
X122392586Y-116726797D01*
X122417408Y-116704898D01*
X122454138Y-116680354D01*
X122521445Y-116635382D01*
X129935382Y-109221445D01*
X130024903Y-109087468D01*
X130033370Y-109067023D01*
X130055733Y-109013037D01*
X130055733Y-109013035D01*
X130086565Y-108938602D01*
X130118000Y-108780566D01*
X130118000Y-102956999D01*
X130137685Y-102889960D01*
X130190489Y-102844205D01*
X130242000Y-102832999D01*
X130300371Y-102832999D01*
X130300372Y-102832999D01*
X130359983Y-102826591D01*
X130494831Y-102776296D01*
X130610046Y-102690046D01*
X130696296Y-102574831D01*
X130746591Y-102439983D01*
X130753000Y-102380373D01*
X130752999Y-100379628D01*
X130746591Y-100320017D01*
X130746591Y-100320016D01*
X130696298Y-100185173D01*
X130696296Y-100185171D01*
X130696296Y-100185169D01*
X130695654Y-100184312D01*
X130695281Y-100183311D01*
X130692048Y-100177391D01*
X130692899Y-100176926D01*
X130671235Y-100118853D01*
X130686083Y-100050579D01*
X130695651Y-100035692D01*
X130696296Y-100034831D01*
X130746591Y-99899983D01*
X130753000Y-99840373D01*
X130752999Y-97839628D01*
X130746591Y-97780017D01*
X130696296Y-97645169D01*
X130696295Y-97645168D01*
X130696293Y-97645164D01*
X130610047Y-97529955D01*
X130610044Y-97529952D01*
X130494835Y-97443706D01*
X130494828Y-97443702D01*
X130359982Y-97393408D01*
X130359983Y-97393408D01*
X130300383Y-97387001D01*
X130300381Y-97387000D01*
X130300373Y-97387000D01*
X130300364Y-97387000D01*
X128299629Y-97387000D01*
X128299623Y-97387001D01*
X128240016Y-97393408D01*
X128105171Y-97443702D01*
X128105164Y-97443706D01*
X127989955Y-97529952D01*
X127989952Y-97529955D01*
X127903706Y-97645164D01*
X127903702Y-97645171D01*
X127853408Y-97780017D01*
X127847001Y-97839616D01*
X127847001Y-97839623D01*
X127847000Y-97839635D01*
X127847000Y-99840370D01*
X127847001Y-99840376D01*
X127853408Y-99899983D01*
X127903702Y-100034828D01*
X127903705Y-100034833D01*
X127904348Y-100035692D01*
X127904722Y-100036695D01*
X127907954Y-100042614D01*
X127907102Y-100043078D01*
X127928763Y-100101157D01*
X127913910Y-100169429D01*
X127904348Y-100184308D01*
X127903705Y-100185166D01*
X127903702Y-100185171D01*
X127853408Y-100320017D01*
X127847001Y-100379616D01*
X127847001Y-100379623D01*
X127847000Y-100379635D01*
X127847000Y-102380370D01*
X127847001Y-102380376D01*
X127853408Y-102439983D01*
X127903702Y-102574828D01*
X127903706Y-102574835D01*
X127989952Y-102690044D01*
X127989955Y-102690047D01*
X128105164Y-102776293D01*
X128105171Y-102776297D01*
X128131972Y-102786293D01*
X128240017Y-102826591D01*
X128299627Y-102833000D01*
X128358000Y-102832999D01*
X128425038Y-102852682D01*
X128470794Y-102905486D01*
X128482000Y-102956999D01*
X128482000Y-108309811D01*
X128462315Y-108376850D01*
X128445681Y-108397492D01*
X121697492Y-115145681D01*
X121636169Y-115179166D01*
X121609811Y-115182000D01*
X106798299Y-115182000D01*
X106731260Y-115162315D01*
X106685505Y-115109511D01*
X106675561Y-115040353D01*
X106704586Y-114976797D01*
X106729408Y-114954898D01*
X106766138Y-114930354D01*
X106833445Y-114885382D01*
X118589053Y-103129772D01*
X118650374Y-103096289D01*
X118657325Y-103094983D01*
X118755636Y-103079413D01*
X118944632Y-103018005D01*
X119121694Y-102927787D01*
X119282464Y-102810981D01*
X119422981Y-102670464D01*
X119539787Y-102509694D01*
X119630005Y-102332632D01*
X119691413Y-102143636D01*
X119722500Y-101947361D01*
X119722500Y-100732639D01*
X119691413Y-100536364D01*
X119643738Y-100389635D01*
X119630006Y-100347370D01*
X119630005Y-100347367D01*
X119552454Y-100195166D01*
X119539787Y-100170306D01*
X119519864Y-100142884D01*
X119496385Y-100077079D01*
X119512210Y-100009026D01*
X119519865Y-99997114D01*
X119539787Y-99969694D01*
X119630005Y-99792632D01*
X119691413Y-99603636D01*
X119722500Y-99407361D01*
X119722500Y-98192639D01*
X119691413Y-97996364D01*
X119643738Y-97849635D01*
X119630006Y-97807370D01*
X119630005Y-97807367D01*
X119552455Y-97655169D01*
X119539787Y-97630306D01*
X119422981Y-97469536D01*
X119314318Y-97360873D01*
X119280834Y-97299550D01*
X119278000Y-97273192D01*
X119278000Y-91379433D01*
X119277999Y-91379429D01*
X119261040Y-91294169D01*
X119246565Y-91221398D01*
X119187228Y-91078149D01*
X119185584Y-91073551D01*
X119095382Y-90938554D01*
X101027448Y-72870620D01*
X101027444Y-72870617D01*
X100893474Y-72781100D01*
X100893461Y-72781093D01*
X100744606Y-72719436D01*
X100744594Y-72719433D01*
X100586570Y-72688000D01*
X100586566Y-72688000D01*
X87793434Y-72688000D01*
X87793429Y-72688000D01*
X87635405Y-72719433D01*
X87635393Y-72719436D01*
X87486536Y-72781094D01*
X87486534Y-72781095D01*
X87406219Y-72834761D01*
X87406218Y-72834762D01*
X87352554Y-72870618D01*
X87295586Y-72927586D01*
X87238618Y-72984555D01*
X87238616Y-72984557D01*
X86513120Y-73710052D01*
X86451797Y-73743537D01*
X86405030Y-73744680D01*
X86311062Y-73729000D01*
X86068938Y-73729000D01*
X86021173Y-73736970D01*
X85830113Y-73768852D01*
X85601119Y-73847467D01*
X85601105Y-73847473D01*
X85388172Y-73962706D01*
X85388167Y-73962709D01*
X85197102Y-74111422D01*
X85033111Y-74289562D01*
X84900684Y-74492258D01*
X84803425Y-74713987D01*
X84743986Y-74948706D01*
X84723993Y-75189993D01*
X84723993Y-75190006D01*
X84743986Y-75431293D01*
X84803425Y-75666012D01*
X84900684Y-75887741D01*
X85033111Y-76090437D01*
X85197102Y-76268578D01*
X85197106Y-76268581D01*
X85317319Y-76362147D01*
X85358132Y-76418857D01*
X85361807Y-76488630D01*
X85327175Y-76549313D01*
X85317319Y-76557853D01*
X85197106Y-76651418D01*
X85197102Y-76651421D01*
X85033111Y-76829562D01*
X84900684Y-77032258D01*
X84803425Y-77253987D01*
X84743986Y-77488706D01*
X84723993Y-77729993D01*
X84723993Y-77730006D01*
X84743986Y-77971293D01*
X84803425Y-78206012D01*
X84900684Y-78427741D01*
X85033111Y-78630437D01*
X85197102Y-78808578D01*
X85197106Y-78808581D01*
X85317319Y-78902147D01*
X85358132Y-78958857D01*
X85361807Y-79028630D01*
X85327175Y-79089313D01*
X85317319Y-79097853D01*
X85197106Y-79191418D01*
X85197102Y-79191421D01*
X85033111Y-79369562D01*
X84900684Y-79572258D01*
X84803425Y-79793987D01*
X84743986Y-80028706D01*
X84723993Y-80269993D01*
X84723993Y-80270006D01*
X84743986Y-80511293D01*
X84803425Y-80746012D01*
X84900684Y-80967741D01*
X85033111Y-81170437D01*
X85197102Y-81348578D01*
X85197106Y-81348581D01*
X85317319Y-81442147D01*
X85358132Y-81498857D01*
X85361807Y-81568630D01*
X85327175Y-81629313D01*
X85317319Y-81637853D01*
X85197106Y-81731418D01*
X85197102Y-81731421D01*
X85033111Y-81909562D01*
X84900684Y-82112258D01*
X84803425Y-82333987D01*
X84743986Y-82568706D01*
X84723993Y-82809993D01*
X84723993Y-82810006D01*
X84743986Y-83051293D01*
X84803425Y-83286012D01*
X84900684Y-83507741D01*
X85033111Y-83710437D01*
X85197102Y-83888578D01*
X85197106Y-83888581D01*
X85317319Y-83982147D01*
X85358132Y-84038857D01*
X85361807Y-84108630D01*
X85327175Y-84169313D01*
X85317319Y-84177853D01*
X85197106Y-84271418D01*
X85197102Y-84271421D01*
X85033111Y-84449562D01*
X84900684Y-84652258D01*
X84803425Y-84873987D01*
X84743986Y-85108706D01*
X84723993Y-85349993D01*
X84723993Y-85350006D01*
X84743986Y-85591293D01*
X84803425Y-85826012D01*
X84900684Y-86047741D01*
X85033111Y-86250437D01*
X85033114Y-86250440D01*
X85197100Y-86428576D01*
X85316383Y-86521418D01*
X85386517Y-86576006D01*
X85388170Y-86577292D01*
X85601112Y-86692530D01*
X85720026Y-86733353D01*
X85830113Y-86771147D01*
X85830115Y-86771147D01*
X85830117Y-86771148D01*
X86068938Y-86811000D01*
X86068939Y-86811000D01*
X86311061Y-86811000D01*
X86311062Y-86811000D01*
X86549883Y-86771148D01*
X86778888Y-86692530D01*
X86991830Y-86577292D01*
X87182900Y-86428576D01*
X87216362Y-86392225D01*
X87276246Y-86356237D01*
X87346084Y-86358336D01*
X87403700Y-86397860D01*
X87406842Y-86401880D01*
X87414239Y-86411761D01*
X87531296Y-86499389D01*
X87668299Y-86550489D01*
X87695550Y-86553418D01*
X87728845Y-86556999D01*
X87728862Y-86557000D01*
X89731138Y-86557000D01*
X89731154Y-86556999D01*
X89758192Y-86554091D01*
X89791701Y-86550489D01*
X89928704Y-86499389D01*
X90045761Y-86411761D01*
X90133389Y-86294704D01*
X90184489Y-86157701D01*
X90188091Y-86124192D01*
X90190999Y-86097154D01*
X90191000Y-86097137D01*
X90191000Y-84602862D01*
X90190999Y-84602845D01*
X90187657Y-84571770D01*
X90184489Y-84542299D01*
X90178291Y-84525683D01*
X90157185Y-84469096D01*
X90133389Y-84405296D01*
X90045761Y-84288239D01*
X89968727Y-84230572D01*
X89928706Y-84200612D01*
X89928704Y-84200611D01*
X89916824Y-84196180D01*
X89860894Y-84154310D01*
X89836477Y-84088846D01*
X89851329Y-84020573D01*
X89900734Y-83971168D01*
X89916815Y-83963823D01*
X89928704Y-83959389D01*
X90045761Y-83871761D01*
X90085942Y-83818084D01*
X90141875Y-83776215D01*
X90211566Y-83771231D01*
X90272889Y-83804716D01*
X99825681Y-93357508D01*
X99859166Y-93418831D01*
X99862000Y-93445189D01*
X99862000Y-97273192D01*
X99842315Y-97340231D01*
X99825682Y-97360873D01*
X99717018Y-97469537D01*
X99600213Y-97630305D01*
X99509994Y-97807367D01*
X99509993Y-97807370D01*
X99448587Y-97996362D01*
X99417500Y-98192639D01*
X99417500Y-99407360D01*
X99448587Y-99603637D01*
X99509993Y-99792629D01*
X99509994Y-99792632D01*
X99600214Y-99969697D01*
X99620135Y-99997116D01*
X99643614Y-100062923D01*
X99627787Y-100130977D01*
X99620135Y-100142884D01*
X99600214Y-100170302D01*
X99509993Y-100347370D01*
X99481093Y-100436318D01*
X99441656Y-100493993D01*
X99377297Y-100521192D01*
X99363162Y-100522000D01*
X98329429Y-100522000D01*
X98171405Y-100553433D01*
X98171397Y-100553435D01*
X98074831Y-100593435D01*
X98074830Y-100593435D01*
X98022530Y-100615098D01*
X98022527Y-100615099D01*
X97888555Y-100704617D01*
X97888551Y-100704620D01*
X91296649Y-107296522D01*
X91235326Y-107330007D01*
X91165634Y-107325023D01*
X91109701Y-107283151D01*
X91085284Y-107217687D01*
X91087351Y-107184650D01*
X91117999Y-107030569D01*
X91118000Y-107030567D01*
X91118000Y-102966999D01*
X91137685Y-102899960D01*
X91190489Y-102854205D01*
X91242000Y-102842999D01*
X91300371Y-102842999D01*
X91300372Y-102842999D01*
X91359983Y-102836591D01*
X91494831Y-102786296D01*
X91610046Y-102700046D01*
X91696296Y-102584831D01*
X91746591Y-102449983D01*
X91753000Y-102390373D01*
X91752999Y-100389628D01*
X91746591Y-100330017D01*
X91745384Y-100326780D01*
X91696298Y-100195173D01*
X91696296Y-100195171D01*
X91696296Y-100195169D01*
X91695654Y-100194312D01*
X91695281Y-100193311D01*
X91692048Y-100187391D01*
X91692899Y-100186926D01*
X91671235Y-100128853D01*
X91686083Y-100060579D01*
X91695651Y-100045692D01*
X91696296Y-100044831D01*
X91746591Y-99909983D01*
X91753000Y-99850373D01*
X91752999Y-97849628D01*
X91746591Y-97790017D01*
X91742861Y-97780017D01*
X91696297Y-97655171D01*
X91696293Y-97655164D01*
X91610047Y-97539955D01*
X91610044Y-97539952D01*
X91494835Y-97453706D01*
X91494828Y-97453702D01*
X91359982Y-97403408D01*
X91359983Y-97403408D01*
X91300383Y-97397001D01*
X91300381Y-97397000D01*
X91300373Y-97397000D01*
X91300364Y-97397000D01*
X89299629Y-97397000D01*
X89299623Y-97397001D01*
X89240016Y-97403408D01*
X89105171Y-97453702D01*
X89105164Y-97453706D01*
X88989955Y-97539952D01*
X88989952Y-97539955D01*
X88903706Y-97655164D01*
X88903702Y-97655171D01*
X88853408Y-97790017D01*
X88848075Y-97839627D01*
X88847001Y-97849623D01*
X88847000Y-97849635D01*
X88847000Y-99850370D01*
X88847001Y-99850376D01*
X88853408Y-99909983D01*
X88903702Y-100044828D01*
X88903705Y-100044833D01*
X88904348Y-100045692D01*
X88904722Y-100046695D01*
X88907954Y-100052614D01*
X88907102Y-100053078D01*
X88928763Y-100111157D01*
X88913910Y-100179429D01*
X88904348Y-100194308D01*
X88903705Y-100195166D01*
X88903702Y-100195171D01*
X88853408Y-100330017D01*
X88848075Y-100379627D01*
X88847001Y-100389623D01*
X88847000Y-100389635D01*
X88847000Y-102390370D01*
X88847001Y-102390376D01*
X88853408Y-102449983D01*
X88903702Y-102584828D01*
X88903706Y-102584835D01*
X88989952Y-102700044D01*
X88989955Y-102700047D01*
X89105164Y-102786293D01*
X89105171Y-102786297D01*
X89150118Y-102803061D01*
X89240017Y-102836591D01*
X89299627Y-102843000D01*
X89358000Y-102842999D01*
X89425038Y-102862682D01*
X89470794Y-102915486D01*
X89482000Y-102966999D01*
X89482000Y-106559810D01*
X89462315Y-106626849D01*
X89445681Y-106647491D01*
X81296649Y-114796523D01*
X81235326Y-114830008D01*
X81165634Y-114825024D01*
X81109701Y-114783152D01*
X81085284Y-114717688D01*
X81087351Y-114684651D01*
X81117999Y-114530569D01*
X81118000Y-114530566D01*
X81118000Y-102956999D01*
X81137685Y-102889960D01*
X81190489Y-102844205D01*
X81242000Y-102832999D01*
X81300371Y-102832999D01*
X81300372Y-102832999D01*
X81359983Y-102826591D01*
X81494831Y-102776296D01*
X81610046Y-102690046D01*
X81696296Y-102574831D01*
X81746591Y-102439983D01*
X81753000Y-102380373D01*
X81752999Y-100379628D01*
X81746591Y-100320017D01*
X81746591Y-100320016D01*
X81696298Y-100185173D01*
X81696296Y-100185171D01*
X81696296Y-100185169D01*
X81695654Y-100184312D01*
X81695281Y-100183311D01*
X81692048Y-100177391D01*
X81692899Y-100176926D01*
X81671235Y-100118853D01*
X81686083Y-100050579D01*
X81695651Y-100035692D01*
X81696296Y-100034831D01*
X81746591Y-99899983D01*
X81753000Y-99840373D01*
X81752999Y-97839628D01*
X81746591Y-97780017D01*
X81696296Y-97645169D01*
X81696295Y-97645168D01*
X81696293Y-97645164D01*
X81610047Y-97529955D01*
X81610044Y-97529952D01*
X81494835Y-97443706D01*
X81494828Y-97443702D01*
X81359982Y-97393408D01*
X81359983Y-97393408D01*
X81300383Y-97387001D01*
X81300381Y-97387000D01*
X81300373Y-97387000D01*
X81300364Y-97387000D01*
X79299629Y-97387000D01*
X79299623Y-97387001D01*
X79240016Y-97393408D01*
X79105171Y-97443702D01*
X79105164Y-97443706D01*
X78989955Y-97529952D01*
X78989952Y-97529955D01*
X78903706Y-97645164D01*
X78903702Y-97645171D01*
X78853408Y-97780017D01*
X78847001Y-97839616D01*
X78847001Y-97839623D01*
X78847000Y-97839635D01*
X78847000Y-99840370D01*
X78847001Y-99840376D01*
X78853408Y-99899983D01*
X78903702Y-100034828D01*
X78903705Y-100034833D01*
X78904348Y-100035692D01*
X78904722Y-100036695D01*
X78907954Y-100042614D01*
X78907102Y-100043078D01*
X78928763Y-100101157D01*
X78913910Y-100169429D01*
X78904348Y-100184308D01*
X78903705Y-100185166D01*
X78903702Y-100185171D01*
X78853408Y-100320017D01*
X78847001Y-100379616D01*
X78847001Y-100379623D01*
X78847000Y-100379635D01*
X78847000Y-102380370D01*
X78847001Y-102380376D01*
X78853408Y-102439983D01*
X78903702Y-102574828D01*
X78903706Y-102574835D01*
X78989952Y-102690044D01*
X78989955Y-102690047D01*
X79105164Y-102776293D01*
X79105171Y-102776297D01*
X79131972Y-102786293D01*
X79240017Y-102826591D01*
X79299627Y-102833000D01*
X79358000Y-102832999D01*
X79425038Y-102852682D01*
X79470794Y-102905486D01*
X79482000Y-102956999D01*
X79482000Y-114059810D01*
X79462315Y-114126849D01*
X79445681Y-114147491D01*
X69599990Y-123993181D01*
X69538667Y-124026666D01*
X69512310Y-124029500D01*
X69335130Y-124029500D01*
X69335123Y-124029501D01*
X69275516Y-124035908D01*
X69140671Y-124086202D01*
X69140664Y-124086206D01*
X69025455Y-124172452D01*
X68974266Y-124240832D01*
X68918332Y-124282702D01*
X68848640Y-124287686D01*
X68787318Y-124254200D01*
X68775734Y-124240832D01*
X68761222Y-124221447D01*
X68724546Y-124172454D01*
X68724544Y-124172453D01*
X68724544Y-124172452D01*
X68609335Y-124086206D01*
X68609328Y-124086202D01*
X68503667Y-124046794D01*
X68447734Y-124004923D01*
X68423316Y-123939459D01*
X68423000Y-123930612D01*
X68423000Y-121325187D01*
X68442685Y-121258148D01*
X68459314Y-121237511D01*
X70811235Y-118885589D01*
X70811240Y-118885586D01*
X70821443Y-118875382D01*
X70821445Y-118875382D01*
X70935382Y-118761445D01*
X70935618Y-118761090D01*
X70971236Y-118707784D01*
X70971238Y-118707780D01*
X71024903Y-118627468D01*
X71086565Y-118478602D01*
X71105108Y-118385382D01*
X71118001Y-118320567D01*
X71118001Y-118154324D01*
X71118000Y-118154298D01*
X71118000Y-102956999D01*
X71137685Y-102889960D01*
X71190489Y-102844205D01*
X71242000Y-102832999D01*
X71300371Y-102832999D01*
X71300372Y-102832999D01*
X71359983Y-102826591D01*
X71494831Y-102776296D01*
X71610046Y-102690046D01*
X71696296Y-102574831D01*
X71746591Y-102439983D01*
X71753000Y-102380373D01*
X71752999Y-100379628D01*
X71746591Y-100320017D01*
X71746591Y-100320016D01*
X71696298Y-100185173D01*
X71696296Y-100185171D01*
X71696296Y-100185169D01*
X71695654Y-100184312D01*
X71695281Y-100183311D01*
X71692048Y-100177391D01*
X71692899Y-100176926D01*
X71671235Y-100118853D01*
X71686083Y-100050579D01*
X71695651Y-100035692D01*
X71696296Y-100034831D01*
X71746591Y-99899983D01*
X71753000Y-99840373D01*
X71752999Y-97839628D01*
X71746591Y-97780017D01*
X71696296Y-97645169D01*
X71696295Y-97645168D01*
X71696293Y-97645164D01*
X71610047Y-97529955D01*
X71610044Y-97529952D01*
X71494835Y-97443706D01*
X71494828Y-97443702D01*
X71359982Y-97393408D01*
X71359983Y-97393408D01*
X71300383Y-97387001D01*
X71300381Y-97387000D01*
X71300373Y-97387000D01*
X71300364Y-97387000D01*
X69299629Y-97387000D01*
X69299623Y-97387001D01*
X69240016Y-97393408D01*
X69105171Y-97443702D01*
X69105164Y-97443706D01*
X68989955Y-97529952D01*
X68989952Y-97529955D01*
X68903706Y-97645164D01*
X68903702Y-97645171D01*
X68853408Y-97780017D01*
X68847001Y-97839616D01*
X68847001Y-97839623D01*
X68847000Y-97839635D01*
X68847000Y-99840370D01*
X68847001Y-99840376D01*
X68853408Y-99899983D01*
X68903702Y-100034828D01*
X68903705Y-100034833D01*
X68904348Y-100035692D01*
X68904722Y-100036695D01*
X68907954Y-100042614D01*
X68907102Y-100043078D01*
X68928763Y-100101157D01*
X68913910Y-100169429D01*
X68904348Y-100184308D01*
X68903705Y-100185166D01*
X68903702Y-100185171D01*
X68853408Y-100320017D01*
X68847001Y-100379616D01*
X68847001Y-100379623D01*
X68847000Y-100379635D01*
X68847000Y-102380370D01*
X68847001Y-102380376D01*
X68853408Y-102439983D01*
X68903702Y-102574828D01*
X68903706Y-102574835D01*
X68989952Y-102690044D01*
X68989955Y-102690047D01*
X69105164Y-102776293D01*
X69105171Y-102776297D01*
X69131972Y-102786293D01*
X69240017Y-102826591D01*
X69299627Y-102833000D01*
X69358000Y-102832999D01*
X69425038Y-102852682D01*
X69470794Y-102905486D01*
X69482000Y-102956999D01*
X69482000Y-117849810D01*
X69462315Y-117916849D01*
X69445681Y-117937491D01*
X66969620Y-120413551D01*
X66969620Y-120413552D01*
X66880100Y-120547525D01*
X66880093Y-120547538D01*
X66818436Y-120696393D01*
X66818433Y-120696405D01*
X66787000Y-120854429D01*
X66787000Y-123930611D01*
X66767315Y-123997650D01*
X66714511Y-124043405D01*
X66706333Y-124046793D01*
X66600671Y-124086202D01*
X66600664Y-124086206D01*
X66485455Y-124172452D01*
X66434266Y-124240832D01*
X66378332Y-124282702D01*
X66308640Y-124287686D01*
X66247318Y-124254200D01*
X66235734Y-124240832D01*
X66221222Y-124221447D01*
X66184546Y-124172454D01*
X66184544Y-124172453D01*
X66184544Y-124172452D01*
X66069335Y-124086206D01*
X66069328Y-124086202D01*
X65963667Y-124046794D01*
X65907734Y-124004923D01*
X65883316Y-123939459D01*
X65883000Y-123930612D01*
X65883000Y-120814433D01*
X65882999Y-120814429D01*
X65851566Y-120656405D01*
X65851565Y-120656398D01*
X65806471Y-120547532D01*
X65806468Y-120547525D01*
X65789903Y-120507532D01*
X65727109Y-120413555D01*
X65700382Y-120373555D01*
X65700381Y-120373553D01*
X65582126Y-120255298D01*
X65582103Y-120255277D01*
X61154319Y-115827492D01*
X61120834Y-115766169D01*
X61118000Y-115739811D01*
X61118000Y-102956999D01*
X61137685Y-102889960D01*
X61190489Y-102844205D01*
X61242000Y-102832999D01*
X61300371Y-102832999D01*
X61300372Y-102832999D01*
X61359983Y-102826591D01*
X61494831Y-102776296D01*
X61610046Y-102690046D01*
X61696296Y-102574831D01*
X61746591Y-102439983D01*
X61753000Y-102380373D01*
X61752999Y-100379628D01*
X61746591Y-100320017D01*
X61746591Y-100320016D01*
X61696298Y-100185173D01*
X61696296Y-100185171D01*
X61696296Y-100185169D01*
X61695654Y-100184312D01*
X61695281Y-100183311D01*
X61692048Y-100177391D01*
X61692899Y-100176926D01*
X61671235Y-100118853D01*
X61686083Y-100050579D01*
X61695651Y-100035692D01*
X61696296Y-100034831D01*
X61746591Y-99899983D01*
X61753000Y-99840373D01*
X61752999Y-97839628D01*
X61746591Y-97780017D01*
X61696296Y-97645169D01*
X61696295Y-97645168D01*
X61696293Y-97645164D01*
X61610047Y-97529955D01*
X61610044Y-97529952D01*
X61494835Y-97443706D01*
X61494828Y-97443702D01*
X61359982Y-97393408D01*
X61359983Y-97393408D01*
X61300383Y-97387001D01*
X61300381Y-97387000D01*
X61300373Y-97387000D01*
X61300364Y-97387000D01*
X59299629Y-97387000D01*
X59299623Y-97387001D01*
X59240016Y-97393408D01*
X59105171Y-97443702D01*
X59105164Y-97443706D01*
X58989955Y-97529952D01*
X58989952Y-97529955D01*
X58903706Y-97645164D01*
X58903702Y-97645171D01*
X58853408Y-97780017D01*
X58847001Y-97839616D01*
X58847001Y-97839623D01*
X58847000Y-97839635D01*
X58847000Y-99840370D01*
X58847001Y-99840376D01*
X58853408Y-99899983D01*
X58903702Y-100034828D01*
X58903705Y-100034833D01*
X58904348Y-100035692D01*
X58904722Y-100036695D01*
X58907954Y-100042614D01*
X58907102Y-100043078D01*
X58928763Y-100101157D01*
X58913910Y-100169429D01*
X58904348Y-100184308D01*
X58903705Y-100185166D01*
X58903702Y-100185171D01*
X58853408Y-100320017D01*
X58847001Y-100379616D01*
X58847001Y-100379623D01*
X58847000Y-100379635D01*
X58847000Y-102380370D01*
X58847001Y-102380376D01*
X58853408Y-102439983D01*
X58903702Y-102574828D01*
X58903706Y-102574835D01*
X58989952Y-102690044D01*
X58989955Y-102690047D01*
X59105164Y-102776293D01*
X59105171Y-102776297D01*
X59131972Y-102786293D01*
X59240017Y-102826591D01*
X59299627Y-102833000D01*
X59358000Y-102832999D01*
X59425038Y-102852682D01*
X59470794Y-102905486D01*
X59482000Y-102956999D01*
X59482000Y-116210570D01*
X59513433Y-116368595D01*
X59513435Y-116368601D01*
X59521250Y-116387467D01*
X59521252Y-116387472D01*
X59535513Y-116421903D01*
X59542980Y-116491373D01*
X59511704Y-116553852D01*
X59451615Y-116589503D01*
X59381790Y-116587008D01*
X59333270Y-116557035D01*
X51344819Y-108568583D01*
X51311334Y-108507260D01*
X51308500Y-108480902D01*
X51308500Y-102931888D01*
X51328185Y-102864849D01*
X51380989Y-102819094D01*
X51389167Y-102815706D01*
X51494831Y-102776296D01*
X51610046Y-102690046D01*
X51696296Y-102574831D01*
X51746591Y-102439983D01*
X51753000Y-102380373D01*
X51752999Y-100379628D01*
X51746591Y-100320017D01*
X51746591Y-100320016D01*
X51696298Y-100185173D01*
X51696296Y-100185171D01*
X51696296Y-100185169D01*
X51695654Y-100184312D01*
X51695281Y-100183311D01*
X51692048Y-100177391D01*
X51692899Y-100176926D01*
X51671235Y-100118853D01*
X51686083Y-100050579D01*
X51695651Y-100035692D01*
X51696296Y-100034831D01*
X51746591Y-99899983D01*
X51753000Y-99840373D01*
X51752999Y-97839628D01*
X51746591Y-97780017D01*
X51696296Y-97645169D01*
X51696295Y-97645168D01*
X51696293Y-97645164D01*
X51610047Y-97529955D01*
X51610044Y-97529952D01*
X51494835Y-97443706D01*
X51494828Y-97443702D01*
X51359982Y-97393408D01*
X51359983Y-97393408D01*
X51300383Y-97387001D01*
X51300381Y-97387000D01*
X51300373Y-97387000D01*
X51300364Y-97387000D01*
X49299629Y-97387000D01*
X49299623Y-97387001D01*
X49240016Y-97393408D01*
X49105171Y-97443702D01*
X49105164Y-97443706D01*
X48989955Y-97529952D01*
X48989952Y-97529955D01*
X48903706Y-97645164D01*
X48903702Y-97645171D01*
X48853408Y-97780017D01*
X48847001Y-97839616D01*
X48847001Y-97839623D01*
X48847000Y-97839635D01*
X48847000Y-99840370D01*
X48847001Y-99840376D01*
X48853408Y-99899983D01*
X48903702Y-100034828D01*
X48903705Y-100034833D01*
X48904348Y-100035692D01*
X48904722Y-100036695D01*
X48907954Y-100042614D01*
X48907102Y-100043078D01*
X48928763Y-100101157D01*
X48913910Y-100169429D01*
X48904348Y-100184308D01*
X48903705Y-100185166D01*
X48903702Y-100185171D01*
X48853408Y-100320017D01*
X48847001Y-100379616D01*
X48847001Y-100379623D01*
X48847000Y-100379635D01*
X48847000Y-102380370D01*
X48847001Y-102380376D01*
X48853408Y-102439983D01*
X48903702Y-102574828D01*
X48903706Y-102574835D01*
X48989952Y-102690044D01*
X48989955Y-102690047D01*
X49105164Y-102776293D01*
X49105171Y-102776297D01*
X49210833Y-102815706D01*
X49266766Y-102857577D01*
X49291184Y-102923041D01*
X49291500Y-102931888D01*
X49291500Y-109049333D01*
X49330254Y-109244160D01*
X49330256Y-109244168D01*
X49406277Y-109427701D01*
X49406282Y-109427710D01*
X49516646Y-109592880D01*
X49516649Y-109592884D01*
X61480181Y-121556415D01*
X61513666Y-121617738D01*
X61516500Y-121644096D01*
X61516500Y-124027254D01*
X61496815Y-124094293D01*
X61466812Y-124126520D01*
X61405457Y-124172450D01*
X61405454Y-124172454D01*
X61354266Y-124240832D01*
X61298332Y-124282702D01*
X61228640Y-124287686D01*
X61167318Y-124254200D01*
X61155734Y-124240832D01*
X61147240Y-124229486D01*
X61104546Y-124172454D01*
X61104543Y-124172452D01*
X61104542Y-124172450D01*
X61043188Y-124126520D01*
X61001318Y-124070586D01*
X60993500Y-124027254D01*
X60993500Y-121885670D01*
X60993499Y-121885666D01*
X60954745Y-121690838D01*
X60954744Y-121690831D01*
X60878721Y-121507296D01*
X60878720Y-121507295D01*
X60878717Y-121507289D01*
X60768354Y-121342120D01*
X60700060Y-121273826D01*
X60627881Y-121201647D01*
X41789318Y-102363084D01*
X41755833Y-102301761D01*
X41752999Y-102275403D01*
X41752999Y-100379629D01*
X41752998Y-100379623D01*
X41752997Y-100379616D01*
X41746591Y-100320017D01*
X41746591Y-100320016D01*
X41696298Y-100185173D01*
X41696296Y-100185171D01*
X41696296Y-100185169D01*
X41695654Y-100184312D01*
X41695281Y-100183311D01*
X41692048Y-100177391D01*
X41692899Y-100176926D01*
X41671235Y-100118853D01*
X41686083Y-100050579D01*
X41695651Y-100035692D01*
X41696296Y-100034831D01*
X41746591Y-99899983D01*
X41753000Y-99840373D01*
X41752999Y-97839628D01*
X41746591Y-97780017D01*
X41696296Y-97645169D01*
X41696295Y-97645168D01*
X41696293Y-97645164D01*
X41610047Y-97529955D01*
X41610044Y-97529952D01*
X41494835Y-97443706D01*
X41494828Y-97443702D01*
X41359982Y-97393408D01*
X41359983Y-97393408D01*
X41300383Y-97387001D01*
X41300381Y-97387000D01*
X41300373Y-97387000D01*
X41300364Y-97387000D01*
X39299629Y-97387000D01*
X39299623Y-97387001D01*
X39240016Y-97393408D01*
X39105171Y-97443702D01*
X39105164Y-97443706D01*
X38989955Y-97529952D01*
X38989952Y-97529955D01*
X38903706Y-97645164D01*
X38903702Y-97645171D01*
X38853408Y-97780017D01*
X38847001Y-97839616D01*
X38847001Y-97839623D01*
X38847000Y-97839635D01*
X12500500Y-97839635D01*
X12500500Y-27240666D01*
X13461500Y-27240666D01*
X13461500Y-62569333D01*
X13500254Y-62764161D01*
X13500256Y-62764169D01*
X13529636Y-62835098D01*
X13576277Y-62947701D01*
X13576282Y-62947710D01*
X13686646Y-63112880D01*
X13686649Y-63112884D01*
X25122681Y-74548916D01*
X25156166Y-74610239D01*
X25151182Y-74679931D01*
X25134267Y-74710907D01*
X25063706Y-74805165D01*
X25063702Y-74805171D01*
X25013408Y-74940017D01*
X25007358Y-74996299D01*
X25007001Y-74999623D01*
X25007000Y-74999635D01*
X25007000Y-77000370D01*
X25007001Y-77000376D01*
X25013408Y-77059983D01*
X25063702Y-77194828D01*
X25063705Y-77194833D01*
X25064348Y-77195692D01*
X25064722Y-77196695D01*
X25067954Y-77202614D01*
X25067102Y-77203078D01*
X25088763Y-77261157D01*
X25073910Y-77329429D01*
X25064348Y-77344308D01*
X25063705Y-77345166D01*
X25063702Y-77345171D01*
X25013408Y-77480017D01*
X25007001Y-77539616D01*
X25007001Y-77539623D01*
X25007000Y-77539635D01*
X25007000Y-78515403D01*
X24987315Y-78582442D01*
X24970681Y-78603084D01*
X23103766Y-80470000D01*
X21357119Y-82216647D01*
X21286882Y-82286884D01*
X21216645Y-82357120D01*
X21106282Y-82522289D01*
X21106277Y-82522298D01*
X21030256Y-82705830D01*
X21030254Y-82705838D01*
X20991500Y-82900666D01*
X20991500Y-91099333D01*
X21030254Y-91294160D01*
X21030256Y-91294168D01*
X21106277Y-91477701D01*
X21106282Y-91477710D01*
X21216646Y-91642880D01*
X21216649Y-91642884D01*
X23357115Y-93783350D01*
X23357119Y-93783353D01*
X23522289Y-93893717D01*
X23522295Y-93893720D01*
X23522296Y-93893721D01*
X23705831Y-93969744D01*
X23900666Y-94008499D01*
X23900670Y-94008500D01*
X23900671Y-94008500D01*
X32099330Y-94008500D01*
X32099331Y-94008499D01*
X32294169Y-93969744D01*
X32477704Y-93893721D01*
X32642881Y-93783353D01*
X32783353Y-93642881D01*
X34783353Y-91642881D01*
X34893721Y-91477704D01*
X34969744Y-91294169D01*
X35008500Y-91099329D01*
X35008500Y-90900671D01*
X35008500Y-84469096D01*
X35028185Y-84402057D01*
X35044819Y-84381415D01*
X39676234Y-79750000D01*
X70927026Y-79750000D01*
X70943138Y-79995833D01*
X70946899Y-80053207D01*
X70946901Y-80053219D01*
X71006177Y-80351222D01*
X71006181Y-80351237D01*
X71103853Y-80638967D01*
X71238241Y-80911479D01*
X71238244Y-80911483D01*
X71238246Y-80911487D01*
X71304854Y-81011173D01*
X71407059Y-81164135D01*
X71607408Y-81392591D01*
X71835864Y-81592940D01*
X71890301Y-81629313D01*
X72088513Y-81761754D01*
X72088517Y-81761756D01*
X72088520Y-81761758D01*
X72310943Y-81871445D01*
X72361036Y-81896148D01*
X72648770Y-81993821D01*
X72946791Y-82053101D01*
X73250000Y-82072974D01*
X73553209Y-82053101D01*
X73851230Y-81993821D01*
X74138964Y-81896148D01*
X74411487Y-81761754D01*
X74664137Y-81592939D01*
X74892591Y-81392591D01*
X75092939Y-81164137D01*
X75261754Y-80911487D01*
X75396148Y-80638964D01*
X75493821Y-80351230D01*
X75553101Y-80053209D01*
X75572974Y-79750000D01*
X75553101Y-79446791D01*
X75493821Y-79148770D01*
X75396148Y-78861036D01*
X75370280Y-78808581D01*
X75261758Y-78588520D01*
X75261756Y-78588517D01*
X75261754Y-78588513D01*
X75101446Y-78348595D01*
X75092940Y-78335864D01*
X74892591Y-78107408D01*
X74664135Y-77907059D01*
X74486850Y-77788602D01*
X74411487Y-77738246D01*
X74411483Y-77738244D01*
X74411479Y-77738241D01*
X74138967Y-77603853D01*
X73851237Y-77506181D01*
X73851231Y-77506179D01*
X73851230Y-77506179D01*
X73851228Y-77506178D01*
X73851222Y-77506177D01*
X73553219Y-77446901D01*
X73553209Y-77446899D01*
X73250000Y-77427026D01*
X72946791Y-77446899D01*
X72946785Y-77446900D01*
X72946780Y-77446901D01*
X72648777Y-77506177D01*
X72648762Y-77506181D01*
X72361032Y-77603853D01*
X72088520Y-77738241D01*
X72088513Y-77738246D01*
X71835864Y-77907059D01*
X71607408Y-78107408D01*
X71407059Y-78335864D01*
X71238246Y-78588513D01*
X71238241Y-78588520D01*
X71103853Y-78861032D01*
X71006181Y-79148762D01*
X71006177Y-79148777D01*
X70946901Y-79446780D01*
X70946899Y-79446791D01*
X70927026Y-79750000D01*
X39676234Y-79750000D01*
X44783351Y-74642884D01*
X44783351Y-74642883D01*
X44783354Y-74642881D01*
X44893722Y-74477703D01*
X44895108Y-74474358D01*
X44942198Y-74360672D01*
X44969742Y-74294173D01*
X44969744Y-74294169D01*
X45008500Y-74099329D01*
X45008500Y-70367235D01*
X45028185Y-70300196D01*
X45080989Y-70254441D01*
X45150147Y-70244497D01*
X45213703Y-70273522D01*
X45247061Y-70319783D01*
X45275093Y-70387461D01*
X45275100Y-70387474D01*
X45364617Y-70521444D01*
X45364620Y-70521448D01*
X47364617Y-72521444D01*
X47364618Y-72521445D01*
X47478552Y-72635379D01*
X47478554Y-72635381D01*
X47612533Y-72724903D01*
X47673765Y-72750266D01*
X47761398Y-72786565D01*
X47919429Y-72817999D01*
X47919433Y-72818000D01*
X47919434Y-72818000D01*
X57080567Y-72818000D01*
X57080568Y-72817999D01*
X57238602Y-72786565D01*
X57313035Y-72755733D01*
X57387468Y-72724903D01*
X57521445Y-72635382D01*
X60811235Y-69345589D01*
X60811240Y-69345586D01*
X60821443Y-69335382D01*
X60821445Y-69335382D01*
X60935382Y-69221445D01*
X60935618Y-69221090D01*
X60971236Y-69167784D01*
X60971238Y-69167780D01*
X61024903Y-69087468D01*
X61086565Y-68938602D01*
X61086567Y-68938594D01*
X61107609Y-68832808D01*
X61139994Y-68770897D01*
X61200709Y-68736323D01*
X61229226Y-68732999D01*
X61300371Y-68732999D01*
X61300372Y-68732999D01*
X61359983Y-68726591D01*
X61494831Y-68676296D01*
X61610046Y-68590046D01*
X61696296Y-68474831D01*
X61746591Y-68339983D01*
X61753000Y-68280373D01*
X61752999Y-66279628D01*
X61746603Y-66220127D01*
X61746591Y-66220016D01*
X61696298Y-66085173D01*
X61696296Y-66085171D01*
X61696296Y-66085169D01*
X61695654Y-66084312D01*
X61695281Y-66083311D01*
X61692048Y-66077391D01*
X61692899Y-66076926D01*
X61671235Y-66018853D01*
X61686083Y-65950579D01*
X61695647Y-65935697D01*
X61696296Y-65934831D01*
X61696388Y-65934586D01*
X61746591Y-65799982D01*
X61746602Y-65799879D01*
X61753000Y-65740373D01*
X61752999Y-63739628D01*
X61746591Y-63680017D01*
X61733387Y-63644616D01*
X61696297Y-63545171D01*
X61696293Y-63545164D01*
X61610047Y-63429955D01*
X61610044Y-63429952D01*
X61494835Y-63343706D01*
X61494828Y-63343702D01*
X61359982Y-63293408D01*
X61359983Y-63293408D01*
X61300383Y-63287001D01*
X61300381Y-63287000D01*
X61300373Y-63287000D01*
X61300364Y-63287000D01*
X59299629Y-63287000D01*
X59299623Y-63287001D01*
X59240016Y-63293408D01*
X59105171Y-63343702D01*
X59105164Y-63343706D01*
X58989955Y-63429952D01*
X58989952Y-63429955D01*
X58903706Y-63545164D01*
X58903702Y-63545171D01*
X58853408Y-63680017D01*
X58847001Y-63739616D01*
X58847001Y-63739623D01*
X58847000Y-63739635D01*
X58847000Y-65740370D01*
X58847001Y-65740376D01*
X58853408Y-65799983D01*
X58903702Y-65934828D01*
X58903705Y-65934833D01*
X58904348Y-65935692D01*
X58904722Y-65936695D01*
X58907954Y-65942614D01*
X58907102Y-65943078D01*
X58928763Y-66001157D01*
X58913910Y-66069429D01*
X58904348Y-66084308D01*
X58903705Y-66085166D01*
X58903702Y-66085171D01*
X58853408Y-66220017D01*
X58847001Y-66279616D01*
X58847001Y-66279623D01*
X58847000Y-66279635D01*
X58847000Y-68280370D01*
X58847001Y-68280376D01*
X58853408Y-68339983D01*
X58903702Y-68474828D01*
X58903706Y-68474835D01*
X58989952Y-68590044D01*
X58989953Y-68590045D01*
X58989954Y-68590046D01*
X59025899Y-68616955D01*
X59067771Y-68672887D01*
X59072755Y-68742579D01*
X59039270Y-68803902D01*
X56697492Y-71145681D01*
X56636169Y-71179166D01*
X56609811Y-71182000D01*
X48390189Y-71182000D01*
X48323150Y-71162315D01*
X48302508Y-71145681D01*
X46854319Y-69697492D01*
X46820834Y-69636169D01*
X46818000Y-69609811D01*
X46818000Y-63086700D01*
X46818001Y-63086679D01*
X46818001Y-62919432D01*
X46786566Y-62761403D01*
X46786565Y-62761402D01*
X46786565Y-62761398D01*
X46724903Y-62612532D01*
X46671238Y-62532219D01*
X46635382Y-62478555D01*
X46521445Y-62364618D01*
X46521444Y-62364617D01*
X46517114Y-62360287D01*
X46517103Y-62360277D01*
X41654319Y-57497492D01*
X41620834Y-57436169D01*
X41618000Y-57409811D01*
X41618000Y-57076999D01*
X41637685Y-57009960D01*
X41690489Y-56964205D01*
X41742000Y-56952999D01*
X41800371Y-56952999D01*
X41800372Y-56952999D01*
X41859983Y-56946591D01*
X41994831Y-56896296D01*
X42110046Y-56810046D01*
X42196296Y-56694831D01*
X42246591Y-56559983D01*
X42253000Y-56500373D01*
X42252999Y-54499628D01*
X42246591Y-54440017D01*
X42245649Y-54437492D01*
X42196297Y-54305171D01*
X42196293Y-54305164D01*
X42110047Y-54189955D01*
X42110044Y-54189952D01*
X41994835Y-54103706D01*
X41994828Y-54103702D01*
X41859982Y-54053408D01*
X41859983Y-54053408D01*
X41800383Y-54047001D01*
X41800381Y-54047000D01*
X41800373Y-54047000D01*
X41800365Y-54047000D01*
X40657078Y-54047000D01*
X40590039Y-54027315D01*
X40544284Y-53974511D01*
X40534340Y-53905353D01*
X40563365Y-53841797D01*
X40588184Y-53819900D01*
X40642881Y-53783353D01*
X40783353Y-53642881D01*
X42436915Y-51989317D01*
X42498238Y-51955833D01*
X42524596Y-51952999D01*
X44300371Y-51952999D01*
X44300372Y-51952999D01*
X44359983Y-51946591D01*
X44416691Y-51925439D01*
X44486382Y-51920454D01*
X44547705Y-51953939D01*
X44547706Y-51953940D01*
X50786084Y-58192319D01*
X50819569Y-58253642D01*
X50814585Y-58323334D01*
X50786084Y-58367681D01*
X50203014Y-58950752D01*
X49657119Y-59496647D01*
X49586882Y-59566884D01*
X49516645Y-59637120D01*
X49406282Y-59802289D01*
X49406277Y-59802298D01*
X49330256Y-59985830D01*
X49330254Y-59985838D01*
X49291500Y-60180666D01*
X49291500Y-63188111D01*
X49271815Y-63255150D01*
X49219011Y-63300905D01*
X49210833Y-63304293D01*
X49105171Y-63343702D01*
X49105164Y-63343706D01*
X48989955Y-63429952D01*
X48989952Y-63429955D01*
X48903706Y-63545164D01*
X48903702Y-63545171D01*
X48853408Y-63680017D01*
X48847001Y-63739616D01*
X48847001Y-63739623D01*
X48847000Y-63739635D01*
X48847000Y-65740370D01*
X48847001Y-65740376D01*
X48853408Y-65799983D01*
X48903702Y-65934828D01*
X48903705Y-65934833D01*
X48904348Y-65935692D01*
X48904722Y-65936695D01*
X48907954Y-65942614D01*
X48907102Y-65943078D01*
X48928763Y-66001157D01*
X48913910Y-66069429D01*
X48904348Y-66084308D01*
X48903705Y-66085166D01*
X48903702Y-66085171D01*
X48853408Y-66220017D01*
X48847001Y-66279616D01*
X48847001Y-66279623D01*
X48847000Y-66279635D01*
X48847000Y-68280370D01*
X48847001Y-68280376D01*
X48853408Y-68339983D01*
X48903702Y-68474828D01*
X48903706Y-68474835D01*
X48989952Y-68590044D01*
X48989955Y-68590047D01*
X49105164Y-68676293D01*
X49105171Y-68676297D01*
X49240017Y-68726591D01*
X49240016Y-68726591D01*
X49246944Y-68727335D01*
X49299627Y-68733000D01*
X51300372Y-68732999D01*
X51359983Y-68726591D01*
X51494831Y-68676296D01*
X51610046Y-68590046D01*
X51696296Y-68474831D01*
X51746591Y-68339983D01*
X51753000Y-68280373D01*
X51752999Y-66279628D01*
X51746603Y-66220127D01*
X51746591Y-66220016D01*
X51696298Y-66085173D01*
X51696296Y-66085171D01*
X51696296Y-66085169D01*
X51695654Y-66084312D01*
X51695281Y-66083311D01*
X51692048Y-66077391D01*
X51692899Y-66076926D01*
X51671235Y-66018853D01*
X51686083Y-65950579D01*
X51695647Y-65935697D01*
X51696296Y-65934831D01*
X51696388Y-65934586D01*
X51746591Y-65799982D01*
X51746602Y-65799879D01*
X51753000Y-65740373D01*
X51752999Y-63739628D01*
X51746591Y-63680017D01*
X51733387Y-63644616D01*
X51696297Y-63545171D01*
X51696293Y-63545164D01*
X51610047Y-63429955D01*
X51610044Y-63429952D01*
X51494835Y-63343706D01*
X51494828Y-63343702D01*
X51389167Y-63304294D01*
X51333234Y-63262423D01*
X51308816Y-63196959D01*
X51308500Y-63188112D01*
X51308500Y-60749096D01*
X51328185Y-60682057D01*
X51344819Y-60661415D01*
X52681415Y-59324819D01*
X52742738Y-59291334D01*
X52769096Y-59288500D01*
X60190671Y-59288500D01*
X62750904Y-59288500D01*
X62817943Y-59308185D01*
X62838585Y-59324819D01*
X63441438Y-59927674D01*
X63441460Y-59927694D01*
X70156647Y-66642881D01*
X70235335Y-66721569D01*
X70297120Y-66783354D01*
X70462289Y-66893717D01*
X70462295Y-66893720D01*
X70462296Y-66893721D01*
X70645831Y-66969744D01*
X70799814Y-67000373D01*
X70840666Y-67008499D01*
X70840670Y-67008500D01*
X70840671Y-67008500D01*
X75448112Y-67008500D01*
X75515151Y-67028185D01*
X75560906Y-67080989D01*
X75564294Y-67089167D01*
X75603702Y-67194828D01*
X75603706Y-67194835D01*
X75689952Y-67310044D01*
X75689955Y-67310047D01*
X75805164Y-67396293D01*
X75805171Y-67396297D01*
X75940017Y-67446591D01*
X75940016Y-67446591D01*
X75946944Y-67447335D01*
X75999627Y-67453000D01*
X78000372Y-67452999D01*
X78059983Y-67446591D01*
X78194831Y-67396296D01*
X78310046Y-67310046D01*
X78396296Y-67194831D01*
X78446591Y-67059983D01*
X78453000Y-67000373D01*
X78452999Y-64999628D01*
X78446591Y-64940017D01*
X78443971Y-64932993D01*
X78396297Y-64805171D01*
X78396293Y-64805164D01*
X78310047Y-64689955D01*
X78310044Y-64689952D01*
X78194835Y-64603706D01*
X78194828Y-64603702D01*
X78059982Y-64553408D01*
X78059983Y-64553408D01*
X78000383Y-64547001D01*
X78000381Y-64547000D01*
X78000373Y-64547000D01*
X78000364Y-64547000D01*
X75999629Y-64547000D01*
X75999623Y-64547001D01*
X75940016Y-64553408D01*
X75805171Y-64603702D01*
X75805164Y-64603706D01*
X75689955Y-64689952D01*
X75689952Y-64689955D01*
X75603706Y-64805164D01*
X75603702Y-64805171D01*
X75564294Y-64910833D01*
X75522423Y-64966766D01*
X75456959Y-64991184D01*
X75448112Y-64991500D01*
X71409096Y-64991500D01*
X71342057Y-64971815D01*
X71321415Y-64955181D01*
X64867694Y-58501460D01*
X64867674Y-58501438D01*
X63862884Y-57496649D01*
X63862880Y-57496646D01*
X63697710Y-57386282D01*
X63697701Y-57386277D01*
X63514169Y-57310256D01*
X63514161Y-57310254D01*
X63319333Y-57271500D01*
X63319329Y-57271500D01*
X60389329Y-57271500D01*
X52899329Y-57271500D01*
X52769097Y-57271500D01*
X52702058Y-57251815D01*
X52681416Y-57235181D01*
X45162884Y-49716649D01*
X45162880Y-49716646D01*
X44997710Y-49606282D01*
X44997697Y-49606275D01*
X44961779Y-49591398D01*
X44961778Y-49591398D01*
X44821526Y-49533303D01*
X44767123Y-49489462D01*
X44748303Y-49447259D01*
X44746592Y-49440020D01*
X44744146Y-49433463D01*
X44696387Y-49305413D01*
X44696297Y-49305171D01*
X44696293Y-49305164D01*
X44610047Y-49189955D01*
X44610044Y-49189952D01*
X44494835Y-49103706D01*
X44494828Y-49103702D01*
X44359982Y-49053408D01*
X44359983Y-49053408D01*
X44300383Y-49047001D01*
X44300381Y-49047000D01*
X44300373Y-49047000D01*
X44300364Y-49047000D01*
X42299629Y-49047000D01*
X42299623Y-49047001D01*
X42240016Y-49053408D01*
X42105171Y-49103702D01*
X42105164Y-49103706D01*
X41989955Y-49189952D01*
X41989952Y-49189955D01*
X41903706Y-49305164D01*
X41903702Y-49305171D01*
X41853408Y-49440017D01*
X41847001Y-49499616D01*
X41847000Y-49499635D01*
X41847000Y-49675403D01*
X41827315Y-49742442D01*
X41810681Y-49763084D01*
X39962382Y-51611382D01*
X39901059Y-51644867D01*
X39831367Y-51639883D01*
X39775434Y-51598011D01*
X39751017Y-51532547D01*
X39751413Y-51510435D01*
X39752499Y-51500337D01*
X39752500Y-51500327D01*
X39752500Y-50750000D01*
X38675278Y-50750000D01*
X38719333Y-50673694D01*
X38750000Y-50559244D01*
X38750000Y-50440756D01*
X38719333Y-50326306D01*
X38675278Y-50250000D01*
X39752500Y-50250000D01*
X39752500Y-49499672D01*
X39752499Y-49499655D01*
X39746098Y-49440127D01*
X39746096Y-49440120D01*
X39695854Y-49305413D01*
X39695850Y-49305406D01*
X39609690Y-49190312D01*
X39609687Y-49190309D01*
X39494593Y-49104149D01*
X39494586Y-49104145D01*
X39359879Y-49053903D01*
X39359872Y-49053901D01*
X39300344Y-49047500D01*
X38550000Y-49047500D01*
X38550000Y-50124722D01*
X38473694Y-50080667D01*
X38359244Y-50050000D01*
X38240756Y-50050000D01*
X38126306Y-50080667D01*
X38050000Y-50124722D01*
X38050000Y-49047500D01*
X37299655Y-49047500D01*
X37240127Y-49053901D01*
X37240120Y-49053903D01*
X37105413Y-49104145D01*
X37105406Y-49104149D01*
X36990312Y-49190309D01*
X36990309Y-49190312D01*
X36904149Y-49305406D01*
X36904145Y-49305413D01*
X36853903Y-49440120D01*
X36853901Y-49440127D01*
X36847500Y-49499655D01*
X36847500Y-50250000D01*
X37924722Y-50250000D01*
X37880667Y-50326306D01*
X37850000Y-50440756D01*
X37850000Y-50559244D01*
X37880667Y-50673694D01*
X37924722Y-50750000D01*
X36847500Y-50750000D01*
X36847500Y-51500344D01*
X36853901Y-51559872D01*
X36853903Y-51559879D01*
X36904145Y-51694586D01*
X36904149Y-51694593D01*
X36990309Y-51809687D01*
X36990312Y-51809690D01*
X37105406Y-51895850D01*
X37105413Y-51895854D01*
X37240120Y-51946096D01*
X37240127Y-51946098D01*
X37299655Y-51952499D01*
X37299672Y-51952500D01*
X37343668Y-51952500D01*
X37410707Y-51972185D01*
X37456462Y-52024989D01*
X37466406Y-52094147D01*
X37437381Y-52157703D01*
X37412559Y-52179602D01*
X37357118Y-52216645D01*
X37357115Y-52216648D01*
X36511451Y-53062315D01*
X36357119Y-53216647D01*
X36313200Y-53260566D01*
X36216645Y-53357120D01*
X36106282Y-53522289D01*
X36106277Y-53522298D01*
X36030256Y-53705830D01*
X36030254Y-53705838D01*
X35991500Y-53900666D01*
X35991500Y-57094333D01*
X36030254Y-57289161D01*
X36030256Y-57289169D01*
X36079725Y-57408597D01*
X36079725Y-57408598D01*
X36106275Y-57472697D01*
X36106282Y-57472710D01*
X36216646Y-57637880D01*
X36216649Y-57637884D01*
X42955181Y-64376415D01*
X42988666Y-64437738D01*
X42991500Y-64464096D01*
X42991500Y-73530903D01*
X42971815Y-73597942D01*
X42955180Y-73618584D01*
X33357119Y-83216647D01*
X33287754Y-83286012D01*
X33216645Y-83357120D01*
X33106282Y-83522289D01*
X33106277Y-83522298D01*
X33030256Y-83705830D01*
X33030254Y-83705838D01*
X32991500Y-83900666D01*
X32991500Y-90530904D01*
X32971815Y-90597943D01*
X32955181Y-90618585D01*
X31618585Y-91955181D01*
X31557262Y-91988666D01*
X31530904Y-91991500D01*
X24469096Y-91991500D01*
X24402057Y-91971815D01*
X24381415Y-91955181D01*
X23044819Y-90618585D01*
X23011334Y-90557262D01*
X23008500Y-90530904D01*
X23008500Y-85999655D01*
X25007500Y-85999655D01*
X25007500Y-86750000D01*
X26026988Y-86750000D01*
X25994075Y-86807007D01*
X25960000Y-86934174D01*
X25960000Y-87065826D01*
X25994075Y-87192993D01*
X26026988Y-87250000D01*
X25007500Y-87250000D01*
X25007500Y-88000344D01*
X25013901Y-88059872D01*
X25013903Y-88059879D01*
X25064145Y-88194586D01*
X25064148Y-88194591D01*
X25064973Y-88195693D01*
X25065453Y-88196981D01*
X25068397Y-88202372D01*
X25067621Y-88202795D01*
X25089387Y-88261158D01*
X25074533Y-88329431D01*
X25064973Y-88344307D01*
X25064148Y-88345408D01*
X25064145Y-88345413D01*
X25013903Y-88480120D01*
X25013901Y-88480127D01*
X25007500Y-88539655D01*
X25007500Y-89290000D01*
X26026988Y-89290000D01*
X25994075Y-89347007D01*
X25960000Y-89474174D01*
X25960000Y-89605826D01*
X25994075Y-89732993D01*
X26026988Y-89790000D01*
X25007500Y-89790000D01*
X25007500Y-90540344D01*
X25013901Y-90599872D01*
X25013903Y-90599879D01*
X25064145Y-90734586D01*
X25064149Y-90734593D01*
X25150309Y-90849687D01*
X25150312Y-90849690D01*
X25265406Y-90935850D01*
X25265413Y-90935854D01*
X25400120Y-90986096D01*
X25400127Y-90986098D01*
X25459655Y-90992499D01*
X25459672Y-90992500D01*
X26210000Y-90992500D01*
X26210000Y-89973012D01*
X26267007Y-90005925D01*
X26394174Y-90040000D01*
X26525826Y-90040000D01*
X26652993Y-90005925D01*
X26710000Y-89973012D01*
X26710000Y-90992500D01*
X27460328Y-90992500D01*
X27460344Y-90992499D01*
X27519872Y-90986098D01*
X27519876Y-90986097D01*
X27654590Y-90935851D01*
X27655685Y-90935032D01*
X27656973Y-90934551D01*
X27662377Y-90931601D01*
X27662800Y-90932377D01*
X27721149Y-90910612D01*
X27789422Y-90925461D01*
X27804315Y-90935032D01*
X27805409Y-90935851D01*
X27940123Y-90986097D01*
X27940127Y-90986098D01*
X27999655Y-90992499D01*
X27999672Y-90992500D01*
X28750000Y-90992500D01*
X28750000Y-89973012D01*
X28807007Y-90005925D01*
X28934174Y-90040000D01*
X29065826Y-90040000D01*
X29192993Y-90005925D01*
X29250000Y-89973012D01*
X29250000Y-90992500D01*
X30000328Y-90992500D01*
X30000344Y-90992499D01*
X30059872Y-90986098D01*
X30059879Y-90986096D01*
X30194586Y-90935854D01*
X30194593Y-90935850D01*
X30309687Y-90849690D01*
X30309690Y-90849687D01*
X30395850Y-90734593D01*
X30395854Y-90734586D01*
X30446096Y-90599879D01*
X30446098Y-90599872D01*
X30452499Y-90540344D01*
X30452500Y-90540327D01*
X30452500Y-89790000D01*
X29433012Y-89790000D01*
X29465925Y-89732993D01*
X29500000Y-89605826D01*
X29500000Y-89474174D01*
X29465925Y-89347007D01*
X29433012Y-89290000D01*
X30452500Y-89290000D01*
X30452500Y-88539672D01*
X30452499Y-88539655D01*
X30446098Y-88480127D01*
X30446097Y-88480123D01*
X30395851Y-88345409D01*
X30395032Y-88344315D01*
X30394551Y-88343026D01*
X30391601Y-88337623D01*
X30392377Y-88337199D01*
X30370612Y-88278851D01*
X30385461Y-88210578D01*
X30395032Y-88195685D01*
X30395851Y-88194590D01*
X30446097Y-88059876D01*
X30446098Y-88059872D01*
X30452499Y-88000344D01*
X30452500Y-88000327D01*
X30452500Y-87250000D01*
X29433012Y-87250000D01*
X29465925Y-87192993D01*
X29500000Y-87065826D01*
X29500000Y-86934174D01*
X29465925Y-86807007D01*
X29433012Y-86750000D01*
X30452500Y-86750000D01*
X30452500Y-85999672D01*
X30452499Y-85999655D01*
X30446098Y-85940127D01*
X30446096Y-85940120D01*
X30395854Y-85805413D01*
X30395850Y-85805406D01*
X30309690Y-85690312D01*
X30309687Y-85690309D01*
X30194593Y-85604149D01*
X30194586Y-85604145D01*
X30059879Y-85553903D01*
X30059872Y-85553901D01*
X30000344Y-85547500D01*
X29250000Y-85547500D01*
X29250000Y-86566988D01*
X29192993Y-86534075D01*
X29065826Y-86500000D01*
X28934174Y-86500000D01*
X28807007Y-86534075D01*
X28750000Y-86566988D01*
X28750000Y-85547500D01*
X27999655Y-85547500D01*
X27940127Y-85553901D01*
X27940120Y-85553903D01*
X27805413Y-85604145D01*
X27805408Y-85604148D01*
X27804307Y-85604973D01*
X27803018Y-85605453D01*
X27797628Y-85608397D01*
X27797204Y-85607621D01*
X27738842Y-85629387D01*
X27670569Y-85614533D01*
X27655693Y-85604973D01*
X27654591Y-85604148D01*
X27654586Y-85604145D01*
X27519879Y-85553903D01*
X27519872Y-85553901D01*
X27460344Y-85547500D01*
X26710000Y-85547500D01*
X26710000Y-86566988D01*
X26652993Y-86534075D01*
X26525826Y-86500000D01*
X26394174Y-86500000D01*
X26267007Y-86534075D01*
X26210000Y-86566988D01*
X26210000Y-85547500D01*
X25459655Y-85547500D01*
X25400127Y-85553901D01*
X25400120Y-85553903D01*
X25265413Y-85604145D01*
X25265406Y-85604149D01*
X25150312Y-85690309D01*
X25150309Y-85690312D01*
X25064149Y-85805406D01*
X25064145Y-85805413D01*
X25013903Y-85940120D01*
X25013901Y-85940127D01*
X25007500Y-85999655D01*
X23008500Y-85999655D01*
X23008500Y-83469095D01*
X23028185Y-83402056D01*
X23044814Y-83381419D01*
X26396915Y-80029317D01*
X26458238Y-79995833D01*
X26484596Y-79992999D01*
X27460371Y-79992999D01*
X27460372Y-79992999D01*
X27519983Y-79986591D01*
X27654831Y-79936296D01*
X27655687Y-79935654D01*
X27656688Y-79935281D01*
X27662609Y-79932048D01*
X27663073Y-79932899D01*
X27721147Y-79911235D01*
X27789421Y-79926083D01*
X27804302Y-79935647D01*
X27805169Y-79936296D01*
X27805171Y-79936296D01*
X27805173Y-79936298D01*
X27940017Y-79986591D01*
X27940016Y-79986591D01*
X27946944Y-79987335D01*
X27999627Y-79993000D01*
X30000372Y-79992999D01*
X30059983Y-79986591D01*
X30194831Y-79936296D01*
X30310046Y-79850046D01*
X30396296Y-79734831D01*
X30446591Y-79599983D01*
X30453000Y-79540373D01*
X30452999Y-77539628D01*
X30446591Y-77480017D01*
X30426827Y-77427026D01*
X30396298Y-77345173D01*
X30396296Y-77345171D01*
X30396296Y-77345169D01*
X30395654Y-77344312D01*
X30395281Y-77343311D01*
X30392048Y-77337391D01*
X30392899Y-77336926D01*
X30371235Y-77278853D01*
X30386083Y-77210579D01*
X30395651Y-77195692D01*
X30396296Y-77194831D01*
X30446591Y-77059983D01*
X30453000Y-77000373D01*
X30452999Y-74999628D01*
X30446591Y-74940017D01*
X30441888Y-74927408D01*
X30396297Y-74805171D01*
X30396293Y-74805164D01*
X30310047Y-74689955D01*
X30310044Y-74689952D01*
X30194835Y-74603706D01*
X30194828Y-74603702D01*
X30059982Y-74553408D01*
X30059983Y-74553408D01*
X30000383Y-74547001D01*
X30000381Y-74547000D01*
X30000373Y-74547000D01*
X30000364Y-74547000D01*
X27999629Y-74547000D01*
X27999623Y-74547001D01*
X27940016Y-74553408D01*
X27805171Y-74603702D01*
X27805166Y-74603705D01*
X27804308Y-74604348D01*
X27803304Y-74604722D01*
X27797386Y-74607954D01*
X27796921Y-74607102D01*
X27738843Y-74628763D01*
X27670571Y-74613910D01*
X27655692Y-74604348D01*
X27654833Y-74603705D01*
X27654828Y-74603702D01*
X27549167Y-74564294D01*
X27493234Y-74522423D01*
X27468816Y-74456959D01*
X27468500Y-74448112D01*
X27468500Y-74360670D01*
X27468499Y-74360666D01*
X27465121Y-74343685D01*
X27429744Y-74165831D01*
X27377876Y-74040611D01*
X27353722Y-73982297D01*
X27257676Y-73838554D01*
X27243357Y-73817123D01*
X27243351Y-73817115D01*
X15514819Y-62088583D01*
X15481334Y-62027260D01*
X15478500Y-62000902D01*
X15478500Y-35919429D01*
X18182000Y-35919429D01*
X18182000Y-50080570D01*
X18213433Y-50238594D01*
X18213436Y-50238606D01*
X18229541Y-50277486D01*
X18229542Y-50277488D01*
X18275097Y-50387468D01*
X18275098Y-50387471D01*
X18364617Y-50521444D01*
X18364620Y-50521448D01*
X20938554Y-53095382D01*
X21011715Y-53144266D01*
X21072531Y-53184902D01*
X21093211Y-53193468D01*
X21116124Y-53202959D01*
X21116129Y-53202960D01*
X21116133Y-53202962D01*
X21221398Y-53246565D01*
X21338627Y-53269883D01*
X21379429Y-53277999D01*
X21379433Y-53278000D01*
X21379434Y-53278000D01*
X21540565Y-53278000D01*
X25130612Y-53278000D01*
X25197651Y-53297685D01*
X25243406Y-53350489D01*
X25246794Y-53358667D01*
X25286202Y-53464328D01*
X25286206Y-53464335D01*
X25372452Y-53579544D01*
X25372453Y-53579544D01*
X25372454Y-53579546D01*
X25380639Y-53585673D01*
X25440832Y-53630734D01*
X25482702Y-53686668D01*
X25487686Y-53756360D01*
X25454200Y-53817682D01*
X25440832Y-53829266D01*
X25372452Y-53880455D01*
X25286206Y-53995664D01*
X25286202Y-53995671D01*
X25235908Y-54130517D01*
X25229501Y-54190116D01*
X25229500Y-54190135D01*
X25229500Y-55809870D01*
X25229501Y-55809876D01*
X25235908Y-55869483D01*
X25286202Y-56004328D01*
X25286206Y-56004335D01*
X25372452Y-56119544D01*
X25372453Y-56119544D01*
X25372454Y-56119546D01*
X25405612Y-56144368D01*
X25440832Y-56170734D01*
X25482702Y-56226668D01*
X25487686Y-56296360D01*
X25454200Y-56357682D01*
X25440832Y-56369266D01*
X25372452Y-56420455D01*
X25286206Y-56535664D01*
X25286202Y-56535671D01*
X25235908Y-56670517D01*
X25233294Y-56694835D01*
X25229501Y-56730123D01*
X25229500Y-56730135D01*
X25229500Y-58349870D01*
X25229501Y-58349876D01*
X25235908Y-58409483D01*
X25286202Y-58544328D01*
X25286206Y-58544335D01*
X25372452Y-58659544D01*
X25372455Y-58659547D01*
X25487664Y-58745793D01*
X25487671Y-58745797D01*
X25532618Y-58762561D01*
X25622517Y-58796091D01*
X25682127Y-58802500D01*
X26058000Y-58802499D01*
X26125039Y-58822183D01*
X26170794Y-58874987D01*
X26182000Y-58926499D01*
X26182000Y-63989529D01*
X26162315Y-64056568D01*
X26109511Y-64102323D01*
X26071256Y-64112818D01*
X26042519Y-64115907D01*
X25907671Y-64166202D01*
X25907664Y-64166206D01*
X25792455Y-64252452D01*
X25792452Y-64252455D01*
X25706206Y-64367664D01*
X25706202Y-64367671D01*
X25655908Y-64502517D01*
X25650437Y-64553408D01*
X25649501Y-64562123D01*
X25649500Y-64562135D01*
X25649500Y-66357870D01*
X25649501Y-66357876D01*
X25655908Y-66417483D01*
X25706202Y-66552328D01*
X25706206Y-66552335D01*
X25783889Y-66656105D01*
X25808307Y-66721569D01*
X25793456Y-66789842D01*
X25783890Y-66804727D01*
X25706647Y-66907910D01*
X25706645Y-66907913D01*
X25656403Y-67042620D01*
X25656401Y-67042627D01*
X25650000Y-67102155D01*
X25650000Y-67750000D01*
X26566988Y-67750000D01*
X26534075Y-67807007D01*
X26500000Y-67934174D01*
X26500000Y-68065826D01*
X26534075Y-68192993D01*
X26566988Y-68250000D01*
X25650000Y-68250000D01*
X25650000Y-68897844D01*
X25656401Y-68957372D01*
X25656403Y-68957379D01*
X25706645Y-69092086D01*
X25706649Y-69092093D01*
X25792809Y-69207187D01*
X25792812Y-69207190D01*
X25907906Y-69293350D01*
X25907913Y-69293354D01*
X26042620Y-69343596D01*
X26042627Y-69343598D01*
X26102155Y-69349999D01*
X26102172Y-69350000D01*
X26750000Y-69350000D01*
X26750000Y-68433012D01*
X26807007Y-68465925D01*
X26934174Y-68500000D01*
X27065826Y-68500000D01*
X27192993Y-68465925D01*
X27250000Y-68433012D01*
X27250000Y-69350000D01*
X27897828Y-69350000D01*
X27897844Y-69349999D01*
X27957372Y-69343598D01*
X27957379Y-69343596D01*
X28092086Y-69293354D01*
X28092093Y-69293350D01*
X28207187Y-69207190D01*
X28207190Y-69207187D01*
X28293350Y-69092093D01*
X28293354Y-69092086D01*
X28343596Y-68957379D01*
X28343598Y-68957372D01*
X28349999Y-68897844D01*
X28350000Y-68897827D01*
X28350000Y-68250000D01*
X27433012Y-68250000D01*
X27465925Y-68192993D01*
X27500000Y-68065826D01*
X27500000Y-67934174D01*
X27465925Y-67807007D01*
X27433012Y-67750000D01*
X28350000Y-67750000D01*
X28350000Y-67102172D01*
X28349999Y-67102155D01*
X28343598Y-67042627D01*
X28343596Y-67042620D01*
X28293354Y-66907913D01*
X28293352Y-66907910D01*
X28216110Y-66804729D01*
X28191692Y-66739265D01*
X28206543Y-66670992D01*
X28216105Y-66656111D01*
X28293796Y-66552331D01*
X28344091Y-66417483D01*
X28350500Y-66357873D01*
X28350499Y-64562128D01*
X28344091Y-64502517D01*
X28339422Y-64490000D01*
X28293797Y-64367671D01*
X28293793Y-64367664D01*
X28207547Y-64252455D01*
X28207544Y-64252452D01*
X28092335Y-64166206D01*
X28092328Y-64166202D01*
X27957482Y-64115908D01*
X27957483Y-64115908D01*
X27928745Y-64112819D01*
X27864194Y-64086081D01*
X27824345Y-64028689D01*
X27818000Y-63989530D01*
X27818000Y-63739655D01*
X38847500Y-63739655D01*
X38847500Y-64490000D01*
X39866988Y-64490000D01*
X39834075Y-64547007D01*
X39800000Y-64674174D01*
X39800000Y-64805826D01*
X39834075Y-64932993D01*
X39866988Y-64990000D01*
X38847500Y-64990000D01*
X38847500Y-65740344D01*
X38853901Y-65799872D01*
X38853903Y-65799879D01*
X38904145Y-65934586D01*
X38904148Y-65934591D01*
X38904973Y-65935693D01*
X38905453Y-65936981D01*
X38908397Y-65942372D01*
X38907621Y-65942795D01*
X38929387Y-66001158D01*
X38914533Y-66069431D01*
X38904973Y-66084307D01*
X38904148Y-66085408D01*
X38904145Y-66085413D01*
X38853903Y-66220120D01*
X38853901Y-66220127D01*
X38847500Y-66279655D01*
X38847500Y-67030000D01*
X39866988Y-67030000D01*
X39834075Y-67087007D01*
X39800000Y-67214174D01*
X39800000Y-67345826D01*
X39834075Y-67472993D01*
X39866988Y-67530000D01*
X38847500Y-67530000D01*
X38847500Y-68280344D01*
X38853901Y-68339872D01*
X38853903Y-68339879D01*
X38904145Y-68474586D01*
X38904149Y-68474593D01*
X38990309Y-68589687D01*
X38990312Y-68589690D01*
X39105406Y-68675850D01*
X39105413Y-68675854D01*
X39240120Y-68726096D01*
X39240127Y-68726098D01*
X39299655Y-68732499D01*
X39299672Y-68732500D01*
X40050000Y-68732500D01*
X40050000Y-67713012D01*
X40107007Y-67745925D01*
X40234174Y-67780000D01*
X40365826Y-67780000D01*
X40492993Y-67745925D01*
X40550000Y-67713012D01*
X40550000Y-68732500D01*
X41300328Y-68732500D01*
X41300344Y-68732499D01*
X41359872Y-68726098D01*
X41359879Y-68726096D01*
X41494586Y-68675854D01*
X41494593Y-68675850D01*
X41609687Y-68589690D01*
X41609690Y-68589687D01*
X41695850Y-68474593D01*
X41695854Y-68474586D01*
X41746096Y-68339879D01*
X41746098Y-68339872D01*
X41752499Y-68280344D01*
X41752500Y-68280327D01*
X41752500Y-67530000D01*
X40733012Y-67530000D01*
X40765925Y-67472993D01*
X40800000Y-67345826D01*
X40800000Y-67214174D01*
X40765925Y-67087007D01*
X40733012Y-67030000D01*
X41752500Y-67030000D01*
X41752500Y-66279672D01*
X41752499Y-66279655D01*
X41746098Y-66220127D01*
X41746097Y-66220123D01*
X41695851Y-66085409D01*
X41695032Y-66084315D01*
X41694551Y-66083026D01*
X41691601Y-66077623D01*
X41692377Y-66077199D01*
X41670612Y-66018851D01*
X41685461Y-65950578D01*
X41695032Y-65935685D01*
X41695851Y-65934590D01*
X41746097Y-65799876D01*
X41746098Y-65799872D01*
X41752499Y-65740344D01*
X41752500Y-65740327D01*
X41752500Y-64990000D01*
X40733012Y-64990000D01*
X40765925Y-64932993D01*
X40800000Y-64805826D01*
X40800000Y-64674174D01*
X40765925Y-64547007D01*
X40733012Y-64490000D01*
X41752500Y-64490000D01*
X41752500Y-63739672D01*
X41752499Y-63739655D01*
X41746098Y-63680127D01*
X41746096Y-63680120D01*
X41695854Y-63545413D01*
X41695850Y-63545406D01*
X41609690Y-63430312D01*
X41609687Y-63430309D01*
X41494593Y-63344149D01*
X41494586Y-63344145D01*
X41359879Y-63293903D01*
X41359872Y-63293901D01*
X41300344Y-63287500D01*
X40550000Y-63287500D01*
X40550000Y-64306988D01*
X40492993Y-64274075D01*
X40365826Y-64240000D01*
X40234174Y-64240000D01*
X40107007Y-64274075D01*
X40050000Y-64306988D01*
X40050000Y-63287500D01*
X39299655Y-63287500D01*
X39240127Y-63293901D01*
X39240120Y-63293903D01*
X39105413Y-63344145D01*
X39105406Y-63344149D01*
X38990312Y-63430309D01*
X38990309Y-63430312D01*
X38904149Y-63545406D01*
X38904145Y-63545413D01*
X38853903Y-63680120D01*
X38853901Y-63680127D01*
X38847500Y-63739655D01*
X27818000Y-63739655D01*
X27818000Y-58926499D01*
X27837685Y-58859460D01*
X27890489Y-58813705D01*
X27942000Y-58802499D01*
X28317871Y-58802499D01*
X28317872Y-58802499D01*
X28377483Y-58796091D01*
X28512331Y-58745796D01*
X28627546Y-58659546D01*
X28713796Y-58544331D01*
X28764091Y-58409483D01*
X28770500Y-58349873D01*
X28770499Y-56730128D01*
X28764091Y-56670517D01*
X28759229Y-56657482D01*
X28713797Y-56535671D01*
X28713793Y-56535664D01*
X28662123Y-56466643D01*
X28627546Y-56420454D01*
X28559166Y-56369265D01*
X28517297Y-56313333D01*
X28512313Y-56243641D01*
X28545798Y-56182318D01*
X28559161Y-56170738D01*
X28627546Y-56119546D01*
X28713796Y-56004331D01*
X28753206Y-55898666D01*
X28795077Y-55842734D01*
X28860541Y-55818316D01*
X28869388Y-55818000D01*
X28985567Y-55818000D01*
X28985568Y-55817999D01*
X29143602Y-55786565D01*
X29222428Y-55753914D01*
X29292468Y-55724903D01*
X29426445Y-55635382D01*
X38207508Y-46854319D01*
X38268831Y-46820834D01*
X38295189Y-46818000D01*
X46129811Y-46818000D01*
X46196850Y-46837685D01*
X46217492Y-46854319D01*
X53784617Y-54421444D01*
X53784618Y-54421445D01*
X53898555Y-54535382D01*
X53965543Y-54580142D01*
X54032533Y-54624903D01*
X54081448Y-54645164D01*
X54181398Y-54686565D01*
X54328726Y-54715870D01*
X54339429Y-54717999D01*
X54339433Y-54718000D01*
X54339434Y-54718000D01*
X54500566Y-54718000D01*
X65509811Y-54718000D01*
X65576850Y-54737685D01*
X65597492Y-54754319D01*
X71917277Y-61074103D01*
X71917287Y-61074114D01*
X71921617Y-61078444D01*
X71921618Y-61078445D01*
X72035555Y-61192382D01*
X72089217Y-61228236D01*
X72089219Y-61228239D01*
X72089219Y-61228238D01*
X72169526Y-61281899D01*
X72169532Y-61281903D01*
X72169536Y-61281905D01*
X72314328Y-61341879D01*
X72316889Y-61343047D01*
X72318395Y-61343563D01*
X72318396Y-61343564D01*
X72318398Y-61343565D01*
X72476431Y-61374999D01*
X72476433Y-61375000D01*
X72476434Y-61375000D01*
X94233567Y-61375000D01*
X94233568Y-61374999D01*
X94391602Y-61343565D01*
X94466035Y-61312733D01*
X94540468Y-61281903D01*
X94674445Y-61192382D01*
X99556827Y-56310000D01*
X105936240Y-56310000D01*
X105936383Y-56310907D01*
X105936384Y-56310911D01*
X105988503Y-56471315D01*
X106065071Y-56621588D01*
X106164208Y-56758036D01*
X106164208Y-56758037D01*
X106283462Y-56877291D01*
X106419911Y-56976428D01*
X106570182Y-57052996D01*
X106730589Y-57105115D01*
X106897172Y-57131500D01*
X107430000Y-57131500D01*
X107430000Y-56310000D01*
X105936240Y-56310000D01*
X99556827Y-56310000D01*
X100605382Y-55261445D01*
X100694902Y-55127469D01*
X100714330Y-55080566D01*
X100756565Y-54978602D01*
X100788000Y-54820566D01*
X100788000Y-49000188D01*
X100807685Y-48933149D01*
X100824319Y-48912507D01*
X104125507Y-45611319D01*
X104186830Y-45577834D01*
X104213188Y-45575000D01*
X105380567Y-45575000D01*
X105380568Y-45574999D01*
X105538602Y-45543565D01*
X105687468Y-45481902D01*
X105776802Y-45422210D01*
X105843480Y-45401333D01*
X105910860Y-45419818D01*
X105957550Y-45471797D01*
X105968726Y-45540767D01*
X105963624Y-45563630D01*
X105935896Y-45648969D01*
X105909500Y-45815626D01*
X105909500Y-45984373D01*
X105935896Y-46151028D01*
X105988036Y-46311502D01*
X105988037Y-46311505D01*
X106064643Y-46461851D01*
X106163824Y-46598361D01*
X106283139Y-46717676D01*
X106419649Y-46816857D01*
X106493172Y-46854319D01*
X106569994Y-46893462D01*
X106569997Y-46893463D01*
X106650234Y-46919533D01*
X106730473Y-46945604D01*
X106807659Y-46957829D01*
X106897127Y-46972000D01*
X106897132Y-46972000D01*
X107543811Y-46972000D01*
X107610850Y-46991685D01*
X107631492Y-47008319D01*
X107714618Y-47091445D01*
X107779492Y-47156319D01*
X107812976Y-47217643D01*
X107807991Y-47287334D01*
X107766120Y-47343268D01*
X107700655Y-47367684D01*
X107691810Y-47368000D01*
X106897127Y-47368000D01*
X106730471Y-47394396D01*
X106569997Y-47446536D01*
X106569994Y-47446537D01*
X106419648Y-47523143D01*
X106316180Y-47598318D01*
X106250373Y-47621798D01*
X106243294Y-47622000D01*
X103489429Y-47622000D01*
X103331405Y-47653433D01*
X103331393Y-47653436D01*
X103182536Y-47715094D01*
X103182534Y-47715095D01*
X103136395Y-47745925D01*
X103102219Y-47768761D01*
X103085399Y-47780000D01*
X103048554Y-47804618D01*
X103005173Y-47848000D01*
X102934618Y-47918555D01*
X102934616Y-47918557D01*
X101334620Y-49518551D01*
X101334617Y-49518554D01*
X101245095Y-49652535D01*
X101242971Y-49657665D01*
X101242966Y-49657678D01*
X101183435Y-49801397D01*
X101183433Y-49801405D01*
X101152000Y-49959429D01*
X101152000Y-53290570D01*
X101183433Y-53448594D01*
X101183435Y-53448602D01*
X101209916Y-53512532D01*
X101209916Y-53512533D01*
X101245097Y-53597468D01*
X101245098Y-53597471D01*
X101334617Y-53731444D01*
X101334620Y-53731448D01*
X103010277Y-55407103D01*
X103010298Y-55407126D01*
X103128552Y-55525380D01*
X103128555Y-55525382D01*
X103172051Y-55554445D01*
X103262532Y-55614903D01*
X103262533Y-55614903D01*
X103262534Y-55614904D01*
X103262536Y-55614905D01*
X103406278Y-55674444D01*
X103406279Y-55674445D01*
X103409076Y-55675603D01*
X103411398Y-55676565D01*
X103558183Y-55705762D01*
X103569429Y-55707999D01*
X103569433Y-55708000D01*
X103569434Y-55708000D01*
X105400567Y-55708000D01*
X105400568Y-55707999D01*
X105558602Y-55676565D01*
X105707468Y-55614902D01*
X105783136Y-55564342D01*
X105849811Y-55543465D01*
X105917191Y-55561949D01*
X105963882Y-55613928D01*
X105975058Y-55682898D01*
X105969956Y-55705762D01*
X105936385Y-55809084D01*
X105936383Y-55809092D01*
X105936239Y-55809999D01*
X105936240Y-55810000D01*
X107435025Y-55810000D01*
X107399930Y-55845095D01*
X107353852Y-55924905D01*
X107330000Y-56013922D01*
X107330000Y-56106078D01*
X107353852Y-56195095D01*
X107399930Y-56274905D01*
X107465095Y-56340070D01*
X107544905Y-56386148D01*
X107633922Y-56410000D01*
X107726078Y-56410000D01*
X107815095Y-56386148D01*
X107894905Y-56340070D01*
X107930000Y-56304975D01*
X107930000Y-57131500D01*
X108462828Y-57131500D01*
X108629410Y-57105115D01*
X108789817Y-57052996D01*
X108940088Y-56976428D01*
X109076536Y-56877291D01*
X109076537Y-56877291D01*
X109126819Y-56827010D01*
X109188142Y-56793525D01*
X109257834Y-56798509D01*
X109313767Y-56840381D01*
X109338184Y-56905845D01*
X109338500Y-56914691D01*
X109338500Y-58792726D01*
X109369933Y-58950752D01*
X109369937Y-58950766D01*
X109376856Y-58967467D01*
X109376855Y-58967467D01*
X109376858Y-58967471D01*
X109431597Y-59099624D01*
X109431598Y-59099627D01*
X109521117Y-59233600D01*
X109521120Y-59233604D01*
X115195681Y-64908163D01*
X115229166Y-64969486D01*
X115232000Y-64995844D01*
X115232000Y-78190570D01*
X115263433Y-78348595D01*
X115263436Y-78348605D01*
X115273492Y-78372882D01*
X115325097Y-78497468D01*
X115325098Y-78497471D01*
X115414617Y-78631444D01*
X115414620Y-78631448D01*
X120564277Y-83781103D01*
X120564298Y-83781126D01*
X120682552Y-83899380D01*
X120682555Y-83899382D01*
X120726660Y-83928852D01*
X120816532Y-83988903D01*
X120816533Y-83988903D01*
X120816534Y-83988904D01*
X120816536Y-83988905D01*
X120933353Y-84037292D01*
X120961472Y-84048939D01*
X120965398Y-84050565D01*
X121113379Y-84080000D01*
X121123429Y-84081999D01*
X121123433Y-84082000D01*
X125950879Y-84082000D01*
X126017918Y-84101685D01*
X126063673Y-84154489D01*
X126073617Y-84223647D01*
X126044592Y-84287203D01*
X125994212Y-84322182D01*
X125935171Y-84344202D01*
X125935164Y-84344206D01*
X125819955Y-84430452D01*
X125819952Y-84430455D01*
X125733706Y-84545664D01*
X125733702Y-84545671D01*
X125683408Y-84680517D01*
X125677001Y-84740116D01*
X125677000Y-84740135D01*
X125677000Y-86359870D01*
X125677001Y-86359876D01*
X125683408Y-86419483D01*
X125733702Y-86554328D01*
X125733706Y-86554335D01*
X125819952Y-86669544D01*
X125819955Y-86669547D01*
X125935164Y-86755793D01*
X125935171Y-86755797D01*
X126070017Y-86806091D01*
X126070016Y-86806091D01*
X126076944Y-86806835D01*
X126129627Y-86812500D01*
X128130372Y-86812499D01*
X128189983Y-86806091D01*
X128324831Y-86755796D01*
X128440046Y-86669546D01*
X128478725Y-86617876D01*
X128534657Y-86576006D01*
X128604349Y-86571022D01*
X128665672Y-86604507D01*
X128669221Y-86608206D01*
X128682528Y-86622662D01*
X128682530Y-86622664D01*
X128682537Y-86622671D01*
X128872561Y-86770572D01*
X129084336Y-86885179D01*
X129202598Y-86925778D01*
X129312083Y-86963365D01*
X129312085Y-86963365D01*
X129312087Y-86963366D01*
X129549601Y-87003000D01*
X129549602Y-87003000D01*
X129790398Y-87003000D01*
X129790399Y-87003000D01*
X130027913Y-86963366D01*
X130255664Y-86885179D01*
X130467439Y-86770572D01*
X130657463Y-86622671D01*
X130820551Y-86445510D01*
X130952255Y-86243922D01*
X131048983Y-86023405D01*
X131108095Y-85789976D01*
X131123141Y-85608397D01*
X131127980Y-85550005D01*
X131127980Y-85549994D01*
X131111408Y-85350006D01*
X131108095Y-85310024D01*
X131048983Y-85076595D01*
X130952255Y-84856078D01*
X130820551Y-84654490D01*
X130657463Y-84477329D01*
X130529656Y-84377853D01*
X130488843Y-84321143D01*
X130485168Y-84251370D01*
X130519800Y-84190687D01*
X130529656Y-84182147D01*
X130565421Y-84154310D01*
X130657463Y-84082671D01*
X130820551Y-83905510D01*
X130952255Y-83703922D01*
X130989257Y-83619564D01*
X131015128Y-83581697D01*
X132611442Y-81985383D01*
X132611445Y-81985382D01*
X132725382Y-81871445D01*
X132750771Y-81833447D01*
X132767736Y-81808058D01*
X132798655Y-81761784D01*
X132814903Y-81737468D01*
X132876565Y-81588602D01*
X132903512Y-81453134D01*
X132908001Y-81430567D01*
X132908001Y-81264324D01*
X132908000Y-81264298D01*
X132908000Y-74279433D01*
X132907999Y-74279429D01*
X132893690Y-74207492D01*
X132876565Y-74121398D01*
X132818947Y-73982297D01*
X132814902Y-73972531D01*
X132731337Y-73847467D01*
X132725382Y-73838554D01*
X128934319Y-70047491D01*
X128900834Y-69986168D01*
X128898000Y-69959810D01*
X128898000Y-56749433D01*
X128897999Y-56749429D01*
X128887138Y-56694828D01*
X128866565Y-56591398D01*
X128828861Y-56500373D01*
X128828857Y-56500364D01*
X128816904Y-56471505D01*
X128804903Y-56442532D01*
X128804901Y-56442530D01*
X128804901Y-56442528D01*
X128715382Y-56308555D01*
X128715379Y-56308551D01*
X118801448Y-46394620D01*
X118801444Y-46394617D01*
X118667471Y-46305098D01*
X118667468Y-46305097D01*
X118590639Y-46273274D01*
X118518602Y-46243435D01*
X118518594Y-46243433D01*
X118360570Y-46212000D01*
X118360566Y-46212000D01*
X117238122Y-46212000D01*
X117233633Y-46212893D01*
X117202316Y-46219122D01*
X117132724Y-46212893D01*
X117077547Y-46170029D01*
X117054304Y-46104139D01*
X117055652Y-46078110D01*
X117063938Y-46025797D01*
X117070500Y-45984372D01*
X117070500Y-45815626D01*
X117055143Y-45718675D01*
X117044104Y-45648973D01*
X117016375Y-45563630D01*
X116991963Y-45488497D01*
X116991962Y-45488494D01*
X116937858Y-45382310D01*
X116915357Y-45338149D01*
X116816176Y-45201639D01*
X116696861Y-45082324D01*
X116560351Y-44983143D01*
X116410005Y-44906537D01*
X116410002Y-44906536D01*
X116249528Y-44854396D01*
X116082873Y-44828000D01*
X116082868Y-44828000D01*
X114517132Y-44828000D01*
X114517127Y-44828000D01*
X114350471Y-44854396D01*
X114189997Y-44906536D01*
X114189994Y-44906537D01*
X114039648Y-44983143D01*
X113936180Y-45058318D01*
X113870373Y-45081798D01*
X113863294Y-45082000D01*
X113310189Y-45082000D01*
X113243150Y-45062315D01*
X113222508Y-45045681D01*
X112298448Y-44121620D01*
X112298444Y-44121617D01*
X112164474Y-44032100D01*
X112164461Y-44032093D01*
X112015606Y-43970436D01*
X112015594Y-43970433D01*
X111857570Y-43939000D01*
X111857566Y-43939000D01*
X110491058Y-43939000D01*
X109488163Y-43939000D01*
X109421124Y-43919315D01*
X109375369Y-43866511D01*
X109365425Y-43797353D01*
X109371175Y-43776371D01*
X109370457Y-43776138D01*
X109411679Y-43649267D01*
X109424104Y-43611027D01*
X109440633Y-43506668D01*
X109450500Y-43444373D01*
X109450500Y-43275626D01*
X109430284Y-43147994D01*
X109424104Y-43108973D01*
X109371962Y-42948495D01*
X109371962Y-42948494D01*
X109295356Y-42798148D01*
X109215813Y-42688667D01*
X109196176Y-42661639D01*
X109076861Y-42542324D01*
X108940351Y-42443143D01*
X108790005Y-42366537D01*
X108790002Y-42366536D01*
X108629528Y-42314396D01*
X108462873Y-42288000D01*
X108462868Y-42288000D01*
X106897132Y-42288000D01*
X106897127Y-42288000D01*
X106730471Y-42314396D01*
X106569997Y-42366536D01*
X106569994Y-42366537D01*
X106419643Y-42443145D01*
X106418702Y-42443723D01*
X106418274Y-42443843D01*
X106415308Y-42445355D01*
X106415007Y-42444765D01*
X106353906Y-42462000D01*
X101219429Y-42462000D01*
X101061405Y-42493433D01*
X101061393Y-42493436D01*
X100956132Y-42537037D01*
X100912533Y-42555096D01*
X100912528Y-42555099D01*
X100778559Y-42644614D01*
X100778551Y-42644620D01*
X97254620Y-46168551D01*
X97254617Y-46168555D01*
X97165097Y-46302531D01*
X97165094Y-46302536D01*
X97153142Y-46331395D01*
X97153141Y-46331398D01*
X97103435Y-46451397D01*
X97103433Y-46451405D01*
X97072000Y-46609429D01*
X97072000Y-53789811D01*
X97052315Y-53856850D01*
X97035681Y-53877492D01*
X92607492Y-58305681D01*
X92546169Y-58339166D01*
X92519811Y-58342000D01*
X90095188Y-58342000D01*
X90028149Y-58322315D01*
X90007507Y-58305681D01*
X89689319Y-57987492D01*
X89655834Y-57926169D01*
X89653000Y-57899811D01*
X89653000Y-57125703D01*
X89672685Y-57058664D01*
X89725489Y-57012909D01*
X89733643Y-57009530D01*
X89775831Y-56993796D01*
X89776422Y-56993354D01*
X89794819Y-56979581D01*
X89891046Y-56907546D01*
X89973984Y-56796755D01*
X90029917Y-56754885D01*
X90099609Y-56749901D01*
X90160932Y-56783386D01*
X90172513Y-56796752D01*
X90255454Y-56907546D01*
X90267303Y-56916416D01*
X90370664Y-56993793D01*
X90370671Y-56993797D01*
X90505517Y-57044091D01*
X90505516Y-57044091D01*
X90512444Y-57044835D01*
X90565127Y-57050500D01*
X92184872Y-57050499D01*
X92244483Y-57044091D01*
X92379331Y-56993796D01*
X92494546Y-56907546D01*
X92580796Y-56792331D01*
X92631091Y-56657483D01*
X92637500Y-56597873D01*
X92637499Y-53962128D01*
X92631091Y-53902517D01*
X92630402Y-53900671D01*
X92580797Y-53767671D01*
X92580793Y-53767664D01*
X92494547Y-53652455D01*
X92494544Y-53652452D01*
X92379335Y-53566206D01*
X92379328Y-53566202D01*
X92278667Y-53528658D01*
X92222733Y-53486787D01*
X92198316Y-53421322D01*
X92198000Y-53412476D01*
X92198000Y-49536699D01*
X92198001Y-49536678D01*
X92198001Y-49364324D01*
X92198000Y-49364298D01*
X92198000Y-49149388D01*
X92217685Y-49082349D01*
X92270489Y-49036594D01*
X92278667Y-49033206D01*
X92384331Y-48993796D01*
X92499546Y-48907546D01*
X92585796Y-48792331D01*
X92636091Y-48657483D01*
X92642500Y-48597873D01*
X92642499Y-45962128D01*
X92636091Y-45902517D01*
X92606928Y-45824328D01*
X92585797Y-45767671D01*
X92585793Y-45767664D01*
X92499547Y-45652455D01*
X92499544Y-45652452D01*
X92384335Y-45566206D01*
X92384328Y-45566202D01*
X92278667Y-45526794D01*
X92222734Y-45484923D01*
X92198316Y-45419459D01*
X92198000Y-45410612D01*
X92198000Y-41125703D01*
X92217685Y-41058664D01*
X92270489Y-41012909D01*
X92278643Y-41009530D01*
X92320831Y-40993796D01*
X92321422Y-40993354D01*
X92376242Y-40952315D01*
X92436046Y-40907546D01*
X92522296Y-40792331D01*
X92572591Y-40657483D01*
X92579000Y-40597873D01*
X92578999Y-37962128D01*
X92572591Y-37902517D01*
X92564234Y-37880112D01*
X92522297Y-37767671D01*
X92522293Y-37767664D01*
X92436047Y-37652455D01*
X92436044Y-37652452D01*
X92320835Y-37566206D01*
X92320828Y-37566202D01*
X92185982Y-37515908D01*
X92185983Y-37515908D01*
X92126383Y-37509501D01*
X92126381Y-37509500D01*
X92126373Y-37509500D01*
X92126365Y-37509500D01*
X90925000Y-37509500D01*
X90857961Y-37489815D01*
X90812206Y-37437011D01*
X90801000Y-37385500D01*
X90801000Y-37327188D01*
X90820685Y-37260149D01*
X90837319Y-37239507D01*
X91092507Y-36984319D01*
X91153830Y-36950834D01*
X91180188Y-36948000D01*
X98509811Y-36948000D01*
X98576850Y-36967685D01*
X98597492Y-36984319D01*
X102950277Y-41337103D01*
X102950298Y-41337126D01*
X103068552Y-41455380D01*
X103068555Y-41455382D01*
X103106336Y-41480626D01*
X103202532Y-41544903D01*
X103202533Y-41544903D01*
X103202534Y-41544904D01*
X103202536Y-41544905D01*
X103249887Y-41564518D01*
X103330720Y-41598000D01*
X103351398Y-41606565D01*
X103351405Y-41606566D01*
X103351405Y-41606567D01*
X103509429Y-41637999D01*
X103509433Y-41638000D01*
X103509434Y-41638000D01*
X103509435Y-41638000D01*
X103670566Y-41638000D01*
X106243294Y-41638000D01*
X106310333Y-41657685D01*
X106316180Y-41661682D01*
X106324144Y-41667468D01*
X106419649Y-41736857D01*
X106493389Y-41774429D01*
X106569994Y-41813462D01*
X106569997Y-41813463D01*
X106650234Y-41839533D01*
X106730473Y-41865604D01*
X106807659Y-41877829D01*
X106897127Y-41892000D01*
X106897132Y-41892000D01*
X108462873Y-41892000D01*
X108543665Y-41879203D01*
X108629527Y-41865604D01*
X108790005Y-41813462D01*
X108940351Y-41736857D01*
X109076861Y-41637676D01*
X109196176Y-41518361D01*
X109295357Y-41381851D01*
X109371962Y-41231505D01*
X109424104Y-41071027D01*
X109443706Y-40947267D01*
X109450500Y-40904373D01*
X109450500Y-40735626D01*
X109432070Y-40619267D01*
X109424104Y-40568973D01*
X109382580Y-40441173D01*
X109371963Y-40408497D01*
X109371962Y-40408494D01*
X109295356Y-40258148D01*
X109292581Y-40254328D01*
X109196176Y-40121639D01*
X109076861Y-40002324D01*
X108940351Y-39903143D01*
X108940349Y-39903142D01*
X108790005Y-39826537D01*
X108790002Y-39826536D01*
X108629528Y-39774396D01*
X108462873Y-39748000D01*
X108462868Y-39748000D01*
X106897132Y-39748000D01*
X106897127Y-39748000D01*
X106730471Y-39774396D01*
X106569997Y-39826536D01*
X106569994Y-39826537D01*
X106419648Y-39903143D01*
X106316180Y-39978318D01*
X106250373Y-40001798D01*
X106243294Y-40002000D01*
X103980188Y-40002000D01*
X103913149Y-39982315D01*
X103892507Y-39965681D01*
X99421448Y-35494620D01*
X99421444Y-35494617D01*
X99287474Y-35405100D01*
X99287461Y-35405093D01*
X99138606Y-35343436D01*
X99138594Y-35343433D01*
X98980570Y-35312000D01*
X98980566Y-35312000D01*
X90876700Y-35312000D01*
X90876680Y-35311999D01*
X90870566Y-35311999D01*
X90709435Y-35311999D01*
X90709434Y-35311999D01*
X90680177Y-35317818D01*
X90610585Y-35311589D01*
X90555409Y-35268725D01*
X90532166Y-35202835D01*
X90548235Y-35134838D01*
X90568303Y-35108523D01*
X91042508Y-34634319D01*
X91103831Y-34600834D01*
X91130189Y-34598000D01*
X98909811Y-34598000D01*
X98976850Y-34617685D01*
X98997492Y-34634319D01*
X103278551Y-38915379D01*
X103278555Y-38915382D01*
X103412527Y-39004900D01*
X103412528Y-39004900D01*
X103412532Y-39004903D01*
X103482063Y-39033703D01*
X103561398Y-39066565D01*
X103717795Y-39097674D01*
X103719429Y-39097999D01*
X103719433Y-39098000D01*
X103719434Y-39098000D01*
X106243294Y-39098000D01*
X106310333Y-39117685D01*
X106316180Y-39121682D01*
X106419649Y-39196857D01*
X106453636Y-39214174D01*
X106569994Y-39273462D01*
X106569997Y-39273463D01*
X106650234Y-39299533D01*
X106730473Y-39325604D01*
X106807659Y-39337829D01*
X106897127Y-39352000D01*
X106897132Y-39352000D01*
X108462873Y-39352000D01*
X108543665Y-39339203D01*
X108629527Y-39325604D01*
X108790005Y-39273462D01*
X108940351Y-39196857D01*
X109076861Y-39097676D01*
X109196176Y-38978361D01*
X109295357Y-38841851D01*
X109371962Y-38691505D01*
X109424104Y-38531027D01*
X109439788Y-38432000D01*
X109450500Y-38364373D01*
X109450500Y-38195626D01*
X109435143Y-38098675D01*
X109424104Y-38028973D01*
X109383050Y-37902620D01*
X109371963Y-37868497D01*
X109371962Y-37868494D01*
X109295356Y-37718148D01*
X109196176Y-37581639D01*
X109076861Y-37462324D01*
X108940351Y-37363143D01*
X108790005Y-37286537D01*
X108790002Y-37286536D01*
X108629528Y-37234396D01*
X108462873Y-37208000D01*
X108462868Y-37208000D01*
X106897132Y-37208000D01*
X106897127Y-37208000D01*
X106730471Y-37234396D01*
X106569997Y-37286536D01*
X106569994Y-37286537D01*
X106419648Y-37363143D01*
X106316180Y-37438318D01*
X106250373Y-37461798D01*
X106243294Y-37462000D01*
X104190189Y-37462000D01*
X104123150Y-37442315D01*
X104102508Y-37425681D01*
X99821448Y-33144620D01*
X99821444Y-33144617D01*
X99687474Y-33055100D01*
X99687461Y-33055093D01*
X99538606Y-32993436D01*
X99538594Y-32993433D01*
X99380570Y-32962000D01*
X99380566Y-32962000D01*
X90659434Y-32962000D01*
X90659429Y-32962000D01*
X90501405Y-32993433D01*
X90501393Y-32993436D01*
X90396132Y-33037037D01*
X90352533Y-33055096D01*
X90352528Y-33055099D01*
X90218559Y-33144614D01*
X90218551Y-33144620D01*
X88014620Y-35348551D01*
X88014617Y-35348555D01*
X87925098Y-35482528D01*
X87895039Y-35555099D01*
X87863436Y-35631393D01*
X87863435Y-35631398D01*
X87832000Y-35789429D01*
X87832000Y-37554417D01*
X87812315Y-37621456D01*
X87789743Y-37645703D01*
X87790224Y-37646184D01*
X87783955Y-37652452D01*
X87700703Y-37763661D01*
X87644769Y-37805531D01*
X87575077Y-37810515D01*
X87513754Y-37777029D01*
X87502170Y-37763660D01*
X87419186Y-37652809D01*
X87304093Y-37566649D01*
X87304086Y-37566645D01*
X87169379Y-37516403D01*
X87169372Y-37516401D01*
X87109844Y-37510000D01*
X86550000Y-37510000D01*
X86550000Y-38846988D01*
X86492993Y-38814075D01*
X86365826Y-38780000D01*
X86234174Y-38780000D01*
X86107007Y-38814075D01*
X86050000Y-38846988D01*
X86050000Y-37510000D01*
X85490155Y-37510000D01*
X85430627Y-37516401D01*
X85430620Y-37516403D01*
X85295913Y-37566645D01*
X85295906Y-37566649D01*
X85180812Y-37652809D01*
X85180809Y-37652812D01*
X85094649Y-37767906D01*
X85094645Y-37767913D01*
X85044403Y-37902620D01*
X85044401Y-37902627D01*
X85038000Y-37962155D01*
X85038000Y-39030000D01*
X85866988Y-39030000D01*
X85834075Y-39087007D01*
X85800000Y-39214174D01*
X85800000Y-39345826D01*
X85834075Y-39472993D01*
X85866988Y-39530000D01*
X85038000Y-39530000D01*
X85038000Y-40597844D01*
X85044401Y-40657372D01*
X85044403Y-40657379D01*
X85094645Y-40792086D01*
X85094649Y-40792093D01*
X85180809Y-40907187D01*
X85180812Y-40907190D01*
X85295906Y-40993350D01*
X85295913Y-40993354D01*
X85430620Y-41043596D01*
X85430627Y-41043598D01*
X85490155Y-41049999D01*
X85490172Y-41050000D01*
X86050000Y-41050000D01*
X86050000Y-39713012D01*
X86107007Y-39745925D01*
X86234174Y-39780000D01*
X86365826Y-39780000D01*
X86492993Y-39745925D01*
X86550000Y-39713012D01*
X86550000Y-41050000D01*
X87109828Y-41050000D01*
X87109844Y-41049999D01*
X87169372Y-41043598D01*
X87169379Y-41043596D01*
X87304086Y-40993354D01*
X87304093Y-40993350D01*
X87419186Y-40907191D01*
X87502170Y-40796339D01*
X87558104Y-40754468D01*
X87627795Y-40749484D01*
X87689118Y-40782969D01*
X87700703Y-40796338D01*
X87700704Y-40796339D01*
X87783687Y-40907190D01*
X87783955Y-40907547D01*
X87899164Y-40993793D01*
X87899171Y-40993797D01*
X88034017Y-41044091D01*
X88034016Y-41044091D01*
X88040944Y-41044835D01*
X88093627Y-41050500D01*
X88906310Y-41050499D01*
X88973349Y-41070183D01*
X89019104Y-41122987D01*
X89029048Y-41192146D01*
X89000023Y-41255702D01*
X88993991Y-41262180D01*
X88214620Y-42041551D01*
X88214617Y-42041555D01*
X88125097Y-42175531D01*
X88125094Y-42175536D01*
X88115198Y-42199431D01*
X88115197Y-42199434D01*
X88063435Y-42324397D01*
X88063433Y-42324405D01*
X88032000Y-42482429D01*
X88032000Y-45406881D01*
X88012315Y-45473920D01*
X87959511Y-45519675D01*
X87951334Y-45523063D01*
X87835669Y-45566203D01*
X87835664Y-45566206D01*
X87720455Y-45652452D01*
X87668953Y-45721249D01*
X87613018Y-45763120D01*
X87543327Y-45768103D01*
X87482004Y-45734617D01*
X87470420Y-45721248D01*
X87419186Y-45652808D01*
X87304093Y-45566649D01*
X87304086Y-45566645D01*
X87169379Y-45516403D01*
X87169372Y-45516401D01*
X87109844Y-45510000D01*
X86550000Y-45510000D01*
X86550000Y-46846988D01*
X86492993Y-46814075D01*
X86365826Y-46780000D01*
X86234174Y-46780000D01*
X86107007Y-46814075D01*
X86050000Y-46846988D01*
X86050000Y-45510000D01*
X85490155Y-45510000D01*
X85430627Y-45516401D01*
X85430620Y-45516403D01*
X85295913Y-45566645D01*
X85295906Y-45566649D01*
X85180812Y-45652809D01*
X85180809Y-45652812D01*
X85094649Y-45767906D01*
X85094645Y-45767913D01*
X85044403Y-45902620D01*
X85044401Y-45902627D01*
X85038000Y-45962155D01*
X85038000Y-47030000D01*
X85866988Y-47030000D01*
X85834075Y-47087007D01*
X85800000Y-47214174D01*
X85800000Y-47345826D01*
X85834075Y-47472993D01*
X85866988Y-47530000D01*
X85038000Y-47530000D01*
X85038000Y-48597844D01*
X85044401Y-48657372D01*
X85044403Y-48657379D01*
X85094645Y-48792086D01*
X85094649Y-48792093D01*
X85180809Y-48907187D01*
X85180812Y-48907190D01*
X85295906Y-48993350D01*
X85295913Y-48993354D01*
X85430620Y-49043596D01*
X85430627Y-49043598D01*
X85490155Y-49049999D01*
X85490172Y-49050000D01*
X86050000Y-49050000D01*
X86050000Y-47713012D01*
X86107007Y-47745925D01*
X86234174Y-47780000D01*
X86365826Y-47780000D01*
X86492993Y-47745925D01*
X86550000Y-47713012D01*
X86550000Y-49050000D01*
X87109828Y-49050000D01*
X87109844Y-49049999D01*
X87169372Y-49043598D01*
X87169379Y-49043596D01*
X87304086Y-48993354D01*
X87304093Y-48993350D01*
X87419187Y-48907190D01*
X87419188Y-48907189D01*
X87470420Y-48838752D01*
X87526353Y-48796880D01*
X87596045Y-48791896D01*
X87657368Y-48825381D01*
X87668953Y-48838750D01*
X87681970Y-48856138D01*
X87720187Y-48907190D01*
X87720455Y-48907547D01*
X87835664Y-48993793D01*
X87835671Y-48993797D01*
X87970517Y-49044091D01*
X87970516Y-49044091D01*
X87977444Y-49044835D01*
X88030127Y-49050500D01*
X89649872Y-49050499D01*
X89709483Y-49044091D01*
X89844331Y-48993796D01*
X89959546Y-48907546D01*
X90010734Y-48839166D01*
X90066667Y-48797297D01*
X90136359Y-48792313D01*
X90197682Y-48825798D01*
X90209261Y-48839161D01*
X90260454Y-48907546D01*
X90294655Y-48933149D01*
X90375664Y-48993793D01*
X90375671Y-48993797D01*
X90416089Y-49008872D01*
X90472023Y-49050743D01*
X90496440Y-49116207D01*
X90481589Y-49184480D01*
X90460437Y-49212735D01*
X87014620Y-52658551D01*
X87014617Y-52658555D01*
X86925098Y-52792528D01*
X86925097Y-52792531D01*
X86863436Y-52941396D01*
X86863434Y-52941404D01*
X86832000Y-53099431D01*
X86832000Y-53260567D01*
X86833851Y-53269873D01*
X86851206Y-53357120D01*
X86852139Y-53361807D01*
X86845912Y-53431399D01*
X86803050Y-53486577D01*
X86737160Y-53509822D01*
X86730522Y-53510000D01*
X86545000Y-53510000D01*
X86545000Y-54846988D01*
X86487993Y-54814075D01*
X86360826Y-54780000D01*
X86229174Y-54780000D01*
X86102007Y-54814075D01*
X86045000Y-54846988D01*
X86045000Y-53510000D01*
X85548655Y-53510000D01*
X85489127Y-53516401D01*
X85489120Y-53516403D01*
X85354413Y-53566645D01*
X85354406Y-53566649D01*
X85239312Y-53652809D01*
X85239309Y-53652812D01*
X85153149Y-53767906D01*
X85153145Y-53767913D01*
X85102903Y-53902620D01*
X85102901Y-53902627D01*
X85096500Y-53962155D01*
X85096500Y-55030000D01*
X85861988Y-55030000D01*
X85829075Y-55087007D01*
X85795000Y-55214174D01*
X85795000Y-55345826D01*
X85829075Y-55472993D01*
X85861988Y-55530000D01*
X85096500Y-55530000D01*
X85096500Y-56597844D01*
X85102901Y-56657372D01*
X85102903Y-56657379D01*
X85153145Y-56792086D01*
X85153149Y-56792093D01*
X85239309Y-56907187D01*
X85239312Y-56907190D01*
X85354406Y-56993350D01*
X85354413Y-56993354D01*
X85489120Y-57043596D01*
X85489127Y-57043598D01*
X85548655Y-57049999D01*
X85548672Y-57050000D01*
X86045000Y-57050000D01*
X86045000Y-55713012D01*
X86102007Y-55745925D01*
X86229174Y-55780000D01*
X86360826Y-55780000D01*
X86487993Y-55745925D01*
X86545000Y-55713012D01*
X86545000Y-57050000D01*
X86573811Y-57050000D01*
X86640850Y-57069685D01*
X86686605Y-57122489D01*
X86696549Y-57191647D01*
X86667524Y-57255203D01*
X86661492Y-57261681D01*
X86197492Y-57725681D01*
X86136169Y-57759166D01*
X86109811Y-57762000D01*
X81790189Y-57762000D01*
X81723150Y-57742315D01*
X81702508Y-57725681D01*
X79181448Y-55204620D01*
X79181444Y-55204617D01*
X79047471Y-55115098D01*
X79047468Y-55115097D01*
X78964101Y-55080566D01*
X78898602Y-55053435D01*
X78898594Y-55053433D01*
X78740570Y-55022000D01*
X78740566Y-55022000D01*
X78576999Y-55022000D01*
X78509960Y-55002315D01*
X78464205Y-54949511D01*
X78452999Y-54898000D01*
X78452999Y-54839629D01*
X78452998Y-54839623D01*
X78452997Y-54839616D01*
X78446591Y-54780017D01*
X78437006Y-54754319D01*
X78396297Y-54645171D01*
X78396293Y-54645164D01*
X78310047Y-54529955D01*
X78310044Y-54529952D01*
X78194835Y-54443706D01*
X78194828Y-54443702D01*
X78059982Y-54393408D01*
X78059983Y-54393408D01*
X78000383Y-54387001D01*
X78000381Y-54387000D01*
X78000373Y-54387000D01*
X78000364Y-54387000D01*
X75999629Y-54387000D01*
X75999623Y-54387001D01*
X75940016Y-54393408D01*
X75805171Y-54443702D01*
X75805164Y-54443706D01*
X75689955Y-54529952D01*
X75689952Y-54529955D01*
X75603706Y-54645164D01*
X75603702Y-54645171D01*
X75553408Y-54780017D01*
X75547001Y-54839616D01*
X75547001Y-54839623D01*
X75547000Y-54839635D01*
X75547000Y-56840370D01*
X75547001Y-56840376D01*
X75553408Y-56899983D01*
X75603702Y-57034828D01*
X75603706Y-57034835D01*
X75689952Y-57150044D01*
X75689955Y-57150047D01*
X75805164Y-57236293D01*
X75805171Y-57236297D01*
X75940017Y-57286591D01*
X75940016Y-57286591D01*
X75946944Y-57287335D01*
X75999627Y-57293000D01*
X78000372Y-57292999D01*
X78059983Y-57286591D01*
X78194831Y-57236296D01*
X78310046Y-57150046D01*
X78396296Y-57034831D01*
X78410828Y-56995866D01*
X78452697Y-56939934D01*
X78518160Y-56915515D01*
X78586434Y-56930365D01*
X78614691Y-56951518D01*
X80764617Y-59101444D01*
X80764618Y-59101445D01*
X80878555Y-59215382D01*
X80945543Y-59260142D01*
X81012533Y-59304903D01*
X81060615Y-59324819D01*
X81161398Y-59366565D01*
X81319429Y-59397999D01*
X81319433Y-59398000D01*
X81319434Y-59398000D01*
X86580567Y-59398000D01*
X86580568Y-59397999D01*
X86738602Y-59366565D01*
X86813035Y-59335733D01*
X86887468Y-59304903D01*
X87021445Y-59215382D01*
X87827952Y-58408874D01*
X87889273Y-58375391D01*
X87958964Y-58380375D01*
X88014898Y-58422246D01*
X88037248Y-58472365D01*
X88048433Y-58528596D01*
X88048436Y-58528606D01*
X88110093Y-58677461D01*
X88110100Y-58677474D01*
X88199617Y-58811444D01*
X88199620Y-58811448D01*
X88915493Y-59527319D01*
X88948978Y-59588642D01*
X88943994Y-59658333D01*
X88902123Y-59714267D01*
X88836658Y-59738684D01*
X88827812Y-59739000D01*
X72947188Y-59739000D01*
X72880149Y-59719315D01*
X72859507Y-59702681D01*
X66421448Y-53264620D01*
X66421444Y-53264617D01*
X66287474Y-53175100D01*
X66287461Y-53175093D01*
X66138606Y-53113436D01*
X66138594Y-53113433D01*
X65980570Y-53082000D01*
X65980566Y-53082000D01*
X54810189Y-53082000D01*
X54743150Y-53062315D01*
X54722508Y-53045681D01*
X47041448Y-45364620D01*
X47041444Y-45364617D01*
X46907471Y-45275098D01*
X46907468Y-45275097D01*
X46828423Y-45242356D01*
X46758602Y-45213435D01*
X46758594Y-45213433D01*
X46600570Y-45182000D01*
X46600566Y-45182000D01*
X37824434Y-45182000D01*
X37824429Y-45182000D01*
X37666405Y-45213433D01*
X37666397Y-45213435D01*
X37542833Y-45264618D01*
X37542832Y-45264618D01*
X37517535Y-45275096D01*
X37383552Y-45364619D01*
X28831555Y-53916616D01*
X28770232Y-53950101D01*
X28700540Y-53945117D01*
X28644607Y-53903245D01*
X28644359Y-53902914D01*
X28627546Y-53880454D01*
X28559166Y-53829265D01*
X28517297Y-53773333D01*
X28512313Y-53703641D01*
X28545798Y-53642318D01*
X28559161Y-53630738D01*
X28627546Y-53579546D01*
X28713796Y-53464331D01*
X28764091Y-53329483D01*
X28770500Y-53269873D01*
X28770499Y-51650128D01*
X28764091Y-51590517D01*
X28752661Y-51559872D01*
X28713797Y-51455671D01*
X28713793Y-51455664D01*
X28627547Y-51340455D01*
X28627544Y-51340452D01*
X28512335Y-51254206D01*
X28512328Y-51254202D01*
X28377482Y-51203908D01*
X28377483Y-51203908D01*
X28317883Y-51197501D01*
X28317881Y-51197500D01*
X28317873Y-51197500D01*
X28317864Y-51197500D01*
X25682129Y-51197500D01*
X25682123Y-51197501D01*
X25622516Y-51203908D01*
X25487671Y-51254202D01*
X25487664Y-51254206D01*
X25372455Y-51340452D01*
X25372452Y-51340455D01*
X25286206Y-51455664D01*
X25286202Y-51455671D01*
X25246794Y-51561333D01*
X25204923Y-51617266D01*
X25139459Y-51641684D01*
X25130612Y-51642000D01*
X21850189Y-51642000D01*
X21783150Y-51622315D01*
X21762508Y-51605681D01*
X19854319Y-49697492D01*
X19820834Y-49636169D01*
X19818000Y-49609811D01*
X19818000Y-36390189D01*
X19837685Y-36323150D01*
X19854319Y-36302508D01*
X23302508Y-32854319D01*
X23363831Y-32820834D01*
X23390189Y-32818000D01*
X25723001Y-32818000D01*
X25790040Y-32837685D01*
X25835795Y-32890489D01*
X25847001Y-32942000D01*
X25847001Y-33080376D01*
X25853408Y-33139983D01*
X25903702Y-33274828D01*
X25903706Y-33274835D01*
X25989952Y-33390044D01*
X25989955Y-33390047D01*
X26105164Y-33476293D01*
X26105171Y-33476297D01*
X26240017Y-33526591D01*
X26240016Y-33526591D01*
X26246944Y-33527335D01*
X26299627Y-33533000D01*
X28300372Y-33532999D01*
X28359983Y-33526591D01*
X28494831Y-33476296D01*
X28610046Y-33390046D01*
X28696296Y-33274831D01*
X28746591Y-33139983D01*
X28753000Y-33080373D01*
X28752999Y-31079628D01*
X28746591Y-31020017D01*
X28696296Y-30885169D01*
X28696295Y-30885168D01*
X28696293Y-30885164D01*
X28610047Y-30769955D01*
X28610044Y-30769952D01*
X28494835Y-30683706D01*
X28494828Y-30683702D01*
X28359982Y-30633408D01*
X28359983Y-30633408D01*
X28300383Y-30627001D01*
X28300381Y-30627000D01*
X28300373Y-30627000D01*
X28300364Y-30627000D01*
X26299629Y-30627000D01*
X26299623Y-30627001D01*
X26240016Y-30633408D01*
X26105171Y-30683702D01*
X26105164Y-30683706D01*
X25989955Y-30769952D01*
X25989952Y-30769955D01*
X25903706Y-30885164D01*
X25903702Y-30885171D01*
X25853408Y-31020017D01*
X25847900Y-31071255D01*
X25821162Y-31135806D01*
X25763770Y-31175654D01*
X25724611Y-31182000D01*
X22919429Y-31182000D01*
X22761405Y-31213433D01*
X22761393Y-31213436D01*
X22656132Y-31257037D01*
X22612533Y-31275096D01*
X22612528Y-31275099D01*
X22478559Y-31364614D01*
X22478551Y-31364620D01*
X18364620Y-35478551D01*
X18364617Y-35478555D01*
X18275097Y-35612531D01*
X18267285Y-35631394D01*
X18267283Y-35631398D01*
X18213435Y-35761397D01*
X18213433Y-35761405D01*
X18182000Y-35919429D01*
X15478500Y-35919429D01*
X15478500Y-27809096D01*
X15498185Y-27742057D01*
X15514819Y-27721415D01*
X21191415Y-22044819D01*
X21252738Y-22011334D01*
X21279096Y-22008500D01*
X25723001Y-22008500D01*
X25790040Y-22028185D01*
X25835795Y-22080989D01*
X25847001Y-22132500D01*
X25847001Y-22920376D01*
X25853408Y-22979983D01*
X25903702Y-23114828D01*
X25903706Y-23114835D01*
X25989952Y-23230044D01*
X25989955Y-23230047D01*
X26105164Y-23316293D01*
X26105171Y-23316297D01*
X26240017Y-23366591D01*
X26240016Y-23366591D01*
X26246944Y-23367335D01*
X26299627Y-23373000D01*
X28300372Y-23372999D01*
X28359983Y-23366591D01*
X28494831Y-23316296D01*
X28610046Y-23230046D01*
X28696296Y-23114831D01*
X28705868Y-23089168D01*
X28747738Y-23033234D01*
X28813202Y-23008816D01*
X28822050Y-23008500D01*
X52248112Y-23008500D01*
X52315151Y-23028185D01*
X52360906Y-23080989D01*
X52364294Y-23089167D01*
X52403702Y-23194828D01*
X52403706Y-23194835D01*
X52489952Y-23310044D01*
X52489955Y-23310047D01*
X52605164Y-23396293D01*
X52605171Y-23396297D01*
X52740017Y-23446591D01*
X52740016Y-23446591D01*
X52746944Y-23447335D01*
X52799627Y-23453000D01*
X54800372Y-23452999D01*
X54859983Y-23446591D01*
X54994831Y-23396296D01*
X55110046Y-23310046D01*
X55196296Y-23194831D01*
X55235706Y-23089166D01*
X55277577Y-23033234D01*
X55343041Y-23008816D01*
X55351888Y-23008500D01*
X62248112Y-23008500D01*
X62315151Y-23028185D01*
X62360906Y-23080989D01*
X62364294Y-23089167D01*
X62403702Y-23194828D01*
X62403706Y-23194835D01*
X62489952Y-23310044D01*
X62489955Y-23310047D01*
X62605164Y-23396293D01*
X62605171Y-23396297D01*
X62740017Y-23446591D01*
X62740016Y-23446591D01*
X62746944Y-23447335D01*
X62799627Y-23453000D01*
X64800372Y-23452999D01*
X64859983Y-23446591D01*
X64994831Y-23396296D01*
X65110046Y-23310046D01*
X65196296Y-23194831D01*
X65235706Y-23089166D01*
X65277577Y-23033234D01*
X65343041Y-23008816D01*
X65351888Y-23008500D01*
X68520904Y-23008500D01*
X68587943Y-23028185D01*
X68608585Y-23044819D01*
X71347115Y-25783351D01*
X71347123Y-25783357D01*
X71512286Y-25893715D01*
X71512289Y-25893716D01*
X71512297Y-25893722D01*
X71619809Y-25938254D01*
X71695831Y-25969744D01*
X71890666Y-26008499D01*
X71890670Y-26008500D01*
X71890671Y-26008500D01*
X71890672Y-26008500D01*
X72089329Y-26008500D01*
X107050904Y-26008500D01*
X107117943Y-26028185D01*
X107138585Y-26044819D01*
X112310681Y-31216915D01*
X112344166Y-31278238D01*
X112347000Y-31304596D01*
X112347000Y-32280370D01*
X112347001Y-32280376D01*
X112353408Y-32339983D01*
X112403702Y-32474828D01*
X112403706Y-32474835D01*
X112489952Y-32590044D01*
X112489955Y-32590047D01*
X112605164Y-32676293D01*
X112605171Y-32676297D01*
X112740017Y-32726591D01*
X112740016Y-32726591D01*
X112746944Y-32727335D01*
X112799627Y-32733000D01*
X113775403Y-32732999D01*
X113842442Y-32752683D01*
X113863084Y-32769318D01*
X114255181Y-33161415D01*
X114288666Y-33222738D01*
X114291500Y-33249096D01*
X114291500Y-37163466D01*
X114271815Y-37230505D01*
X114219011Y-37276260D01*
X114205827Y-37281393D01*
X114198528Y-37283765D01*
X114189990Y-37286539D01*
X114039648Y-37363143D01*
X113903137Y-37462325D01*
X113783825Y-37581637D01*
X113684643Y-37718148D01*
X113608034Y-37868501D01*
X113606561Y-37872059D01*
X113562721Y-37926463D01*
X113496426Y-37948528D01*
X113428727Y-37931249D01*
X113381116Y-37880112D01*
X113368000Y-37824607D01*
X113368000Y-36366700D01*
X113368001Y-36366679D01*
X113368001Y-36199432D01*
X113336566Y-36041403D01*
X113336565Y-36041402D01*
X113336565Y-36041398D01*
X113274903Y-35892532D01*
X113221238Y-35812219D01*
X113203310Y-35785387D01*
X113185385Y-35758559D01*
X113185384Y-35758558D01*
X113185382Y-35758555D01*
X113071445Y-35644618D01*
X113071444Y-35644617D01*
X113067114Y-35640287D01*
X113067103Y-35640277D01*
X110821448Y-33394620D01*
X110821444Y-33394617D01*
X110687474Y-33305100D01*
X110687461Y-33305093D01*
X110538606Y-33243436D01*
X110538594Y-33243433D01*
X110380570Y-33212000D01*
X110380566Y-33212000D01*
X106940189Y-33212000D01*
X106873150Y-33192315D01*
X106852508Y-33175681D01*
X105957171Y-32280344D01*
X107347500Y-32280344D01*
X107353901Y-32339872D01*
X107353903Y-32339879D01*
X107404145Y-32474586D01*
X107404149Y-32474593D01*
X107490309Y-32589687D01*
X107490312Y-32589690D01*
X107605406Y-32675850D01*
X107605413Y-32675854D01*
X107740120Y-32726096D01*
X107740127Y-32726098D01*
X107799655Y-32732499D01*
X107799672Y-32732500D01*
X108550000Y-32732500D01*
X109050000Y-32732500D01*
X109800328Y-32732500D01*
X109800344Y-32732499D01*
X109859872Y-32726098D01*
X109859879Y-32726096D01*
X109994586Y-32675854D01*
X109994593Y-32675850D01*
X110109687Y-32589690D01*
X110109690Y-32589687D01*
X110195850Y-32474593D01*
X110195854Y-32474586D01*
X110246096Y-32339879D01*
X110246098Y-32339872D01*
X110252499Y-32280344D01*
X110252500Y-32280327D01*
X110252500Y-31530000D01*
X109050000Y-31530000D01*
X109050000Y-32732500D01*
X108550000Y-32732500D01*
X108550000Y-31530000D01*
X107347500Y-31530000D01*
X107347500Y-32280344D01*
X105957171Y-32280344D01*
X104917332Y-31240504D01*
X108500000Y-31240504D01*
X108500000Y-31319496D01*
X108520444Y-31395796D01*
X108559940Y-31464205D01*
X108615795Y-31520060D01*
X108684204Y-31559556D01*
X108760504Y-31580000D01*
X108839496Y-31580000D01*
X108915796Y-31559556D01*
X108984205Y-31520060D01*
X109040060Y-31464205D01*
X109079556Y-31395796D01*
X109100000Y-31319496D01*
X109100000Y-31240504D01*
X109079556Y-31164204D01*
X109040060Y-31095795D01*
X108984205Y-31039940D01*
X108966988Y-31030000D01*
X109050000Y-31030000D01*
X110252500Y-31030000D01*
X110252500Y-30279672D01*
X110252499Y-30279655D01*
X110246098Y-30220127D01*
X110246096Y-30220120D01*
X110195854Y-30085413D01*
X110195850Y-30085406D01*
X110109690Y-29970312D01*
X110109687Y-29970309D01*
X109994593Y-29884149D01*
X109994586Y-29884145D01*
X109859879Y-29833903D01*
X109859872Y-29833901D01*
X109800344Y-29827500D01*
X109050000Y-29827500D01*
X109050000Y-31030000D01*
X108966988Y-31030000D01*
X108915796Y-31000444D01*
X108839496Y-30980000D01*
X108760504Y-30980000D01*
X108684204Y-31000444D01*
X108615795Y-31039940D01*
X108559940Y-31095795D01*
X108520444Y-31164204D01*
X108500000Y-31240504D01*
X104917332Y-31240504D01*
X103956483Y-30279655D01*
X107347500Y-30279655D01*
X107347500Y-31030000D01*
X108550000Y-31030000D01*
X108550000Y-29827500D01*
X107799655Y-29827500D01*
X107740127Y-29833901D01*
X107740120Y-29833903D01*
X107605413Y-29884145D01*
X107605406Y-29884149D01*
X107490312Y-29970309D01*
X107490309Y-29970312D01*
X107404149Y-30085406D01*
X107404145Y-30085413D01*
X107353903Y-30220120D01*
X107353901Y-30220127D01*
X107347500Y-30279655D01*
X103956483Y-30279655D01*
X102321448Y-28644620D01*
X102321444Y-28644617D01*
X102187474Y-28555100D01*
X102187461Y-28555093D01*
X102038606Y-28493436D01*
X102038594Y-28493433D01*
X101880570Y-28462000D01*
X101880566Y-28462000D01*
X61639434Y-28462000D01*
X61639429Y-28462000D01*
X61481405Y-28493433D01*
X61481393Y-28493436D01*
X61332536Y-28555094D01*
X61332534Y-28555095D01*
X61252219Y-28608761D01*
X61252218Y-28608762D01*
X61198554Y-28644618D01*
X61141586Y-28701586D01*
X61084618Y-28758555D01*
X61084616Y-28758557D01*
X60364620Y-29478551D01*
X60364617Y-29478555D01*
X60275100Y-29612525D01*
X60275093Y-29612538D01*
X60213436Y-29761393D01*
X60213433Y-29761405D01*
X60182000Y-29919429D01*
X60182000Y-39609811D01*
X60162315Y-39676850D01*
X60145681Y-39697492D01*
X58417492Y-41425681D01*
X58356169Y-41459166D01*
X58329811Y-41462000D01*
X55694388Y-41462000D01*
X55627349Y-41442315D01*
X55581594Y-41389511D01*
X55578206Y-41381333D01*
X55538797Y-41275671D01*
X55538793Y-41275664D01*
X55477882Y-41194298D01*
X55452546Y-41160454D01*
X55384166Y-41109265D01*
X55342297Y-41053333D01*
X55337313Y-40983641D01*
X55370798Y-40922318D01*
X55384161Y-40910738D01*
X55452546Y-40859546D01*
X55538796Y-40744331D01*
X55589091Y-40609483D01*
X55595500Y-40549873D01*
X55595499Y-38930128D01*
X55589091Y-38870517D01*
X55578399Y-38841851D01*
X55538797Y-38735671D01*
X55538793Y-38735664D01*
X55452547Y-38620455D01*
X55452544Y-38620452D01*
X55337335Y-38534206D01*
X55337328Y-38534202D01*
X55202482Y-38483908D01*
X55202483Y-38483908D01*
X55142883Y-38477501D01*
X55142881Y-38477500D01*
X55142873Y-38477500D01*
X55142865Y-38477500D01*
X54742000Y-38477500D01*
X54674961Y-38457815D01*
X54629206Y-38405011D01*
X54618000Y-38353500D01*
X54618000Y-33736999D01*
X54637685Y-33669960D01*
X54690489Y-33624205D01*
X54742000Y-33612999D01*
X54800371Y-33612999D01*
X54800372Y-33612999D01*
X54859983Y-33606591D01*
X54994831Y-33556296D01*
X55110046Y-33470046D01*
X55196296Y-33354831D01*
X55246591Y-33219983D01*
X55253000Y-33160373D01*
X55252999Y-31159628D01*
X55246591Y-31100017D01*
X55245016Y-31095795D01*
X55196297Y-30965171D01*
X55196293Y-30965164D01*
X55110047Y-30849955D01*
X55110044Y-30849952D01*
X54994835Y-30763706D01*
X54994828Y-30763702D01*
X54859982Y-30713408D01*
X54859983Y-30713408D01*
X54800383Y-30707001D01*
X54800381Y-30707000D01*
X54800373Y-30707000D01*
X54800364Y-30707000D01*
X52799629Y-30707000D01*
X52799623Y-30707001D01*
X52740016Y-30713408D01*
X52605171Y-30763702D01*
X52605164Y-30763706D01*
X52489955Y-30849952D01*
X52489952Y-30849955D01*
X52403706Y-30965164D01*
X52403702Y-30965171D01*
X52353408Y-31100017D01*
X52349561Y-31135806D01*
X52347001Y-31159623D01*
X52347000Y-31159635D01*
X52347000Y-33160370D01*
X52347001Y-33160376D01*
X52353408Y-33219983D01*
X52403702Y-33354828D01*
X52403706Y-33354835D01*
X52489952Y-33470044D01*
X52489955Y-33470047D01*
X52605164Y-33556293D01*
X52605171Y-33556297D01*
X52650118Y-33573061D01*
X52740017Y-33606591D01*
X52799627Y-33613000D01*
X52858000Y-33612999D01*
X52925038Y-33632682D01*
X52970794Y-33685486D01*
X52982000Y-33736999D01*
X52982000Y-38353500D01*
X52962315Y-38420539D01*
X52909511Y-38466294D01*
X52858000Y-38477500D01*
X52507130Y-38477500D01*
X52507123Y-38477501D01*
X52447516Y-38483908D01*
X52312671Y-38534202D01*
X52312664Y-38534206D01*
X52197455Y-38620452D01*
X52197452Y-38620455D01*
X52111206Y-38735664D01*
X52111202Y-38735671D01*
X52060908Y-38870517D01*
X52056085Y-38915382D01*
X52054501Y-38930123D01*
X52054500Y-38930135D01*
X52054500Y-40549870D01*
X52054501Y-40549876D01*
X52060908Y-40609483D01*
X52111202Y-40744328D01*
X52111206Y-40744335D01*
X52197452Y-40859544D01*
X52197453Y-40859544D01*
X52197454Y-40859546D01*
X52237883Y-40889811D01*
X52265832Y-40910734D01*
X52307702Y-40966668D01*
X52312686Y-41036360D01*
X52279200Y-41097682D01*
X52265832Y-41109266D01*
X52197452Y-41160455D01*
X52111206Y-41275664D01*
X52111202Y-41275671D01*
X52071794Y-41381333D01*
X52029923Y-41437266D01*
X51964459Y-41461684D01*
X51955612Y-41462000D01*
X49655973Y-41462000D01*
X49588934Y-41442315D01*
X49568292Y-41425681D01*
X48110232Y-39967620D01*
X48110228Y-39967617D01*
X47976258Y-39878100D01*
X47976245Y-39878093D01*
X47827390Y-39816436D01*
X47827378Y-39816433D01*
X47669354Y-39785000D01*
X47669350Y-39785000D01*
X33993189Y-39785000D01*
X33926150Y-39765315D01*
X33905508Y-39748681D01*
X32771448Y-38614620D01*
X32771444Y-38614617D01*
X32637471Y-38525098D01*
X32637468Y-38525097D01*
X32561028Y-38493435D01*
X32488602Y-38463435D01*
X32488594Y-38463433D01*
X32330570Y-38432000D01*
X32330566Y-38432000D01*
X28844388Y-38432000D01*
X28777349Y-38412315D01*
X28731594Y-38359511D01*
X28728206Y-38351333D01*
X28688797Y-38245671D01*
X28688793Y-38245664D01*
X28602547Y-38130455D01*
X28602544Y-38130452D01*
X28487335Y-38044206D01*
X28487328Y-38044202D01*
X28352482Y-37993908D01*
X28352483Y-37993908D01*
X28292883Y-37987501D01*
X28292881Y-37987500D01*
X28292873Y-37987500D01*
X28292864Y-37987500D01*
X25657129Y-37987500D01*
X25657123Y-37987501D01*
X25597516Y-37993908D01*
X25462671Y-38044202D01*
X25462664Y-38044206D01*
X25347455Y-38130452D01*
X25347452Y-38130455D01*
X25261206Y-38245664D01*
X25261202Y-38245671D01*
X25210908Y-38380517D01*
X25204501Y-38440116D01*
X25204500Y-38440135D01*
X25204500Y-40059870D01*
X25204501Y-40059876D01*
X25210908Y-40119483D01*
X25261202Y-40254328D01*
X25261206Y-40254335D01*
X25347452Y-40369544D01*
X25347453Y-40369544D01*
X25347454Y-40369546D01*
X25371395Y-40387468D01*
X25415832Y-40420734D01*
X25457702Y-40476668D01*
X25462686Y-40546360D01*
X25429200Y-40607682D01*
X25415832Y-40619266D01*
X25347452Y-40670455D01*
X25261206Y-40785664D01*
X25261202Y-40785671D01*
X25210908Y-40920517D01*
X25204501Y-40980116D01*
X25204500Y-40980135D01*
X25204500Y-42599870D01*
X25204501Y-42599876D01*
X25210908Y-42659483D01*
X25261202Y-42794328D01*
X25261206Y-42794335D01*
X25347452Y-42909544D01*
X25347455Y-42909547D01*
X25416248Y-42961046D01*
X25458119Y-43016980D01*
X25463103Y-43086671D01*
X25429617Y-43147994D01*
X25416249Y-43159578D01*
X25347809Y-43210812D01*
X25261649Y-43325906D01*
X25261645Y-43325913D01*
X25211403Y-43460620D01*
X25211401Y-43460627D01*
X25205000Y-43520155D01*
X25205000Y-44080000D01*
X26541988Y-44080000D01*
X26509075Y-44137007D01*
X26475000Y-44264174D01*
X26475000Y-44395826D01*
X26509075Y-44522993D01*
X26541988Y-44580000D01*
X25205000Y-44580000D01*
X25205000Y-45139844D01*
X25211401Y-45199372D01*
X25211403Y-45199379D01*
X25261645Y-45334086D01*
X25261649Y-45334093D01*
X25347809Y-45449187D01*
X25347812Y-45449190D01*
X25462906Y-45535350D01*
X25462913Y-45535354D01*
X25597620Y-45585596D01*
X25597627Y-45585598D01*
X25657155Y-45591999D01*
X25657172Y-45592000D01*
X26725000Y-45592000D01*
X26725000Y-44763012D01*
X26782007Y-44795925D01*
X26909174Y-44830000D01*
X27040826Y-44830000D01*
X27167993Y-44795925D01*
X27225000Y-44763012D01*
X27225000Y-45592000D01*
X28292828Y-45592000D01*
X28292844Y-45591999D01*
X28352372Y-45585598D01*
X28352379Y-45585596D01*
X28487086Y-45535354D01*
X28487093Y-45535350D01*
X28602187Y-45449190D01*
X28602190Y-45449187D01*
X28688350Y-45334093D01*
X28688354Y-45334086D01*
X28738596Y-45199379D01*
X28738598Y-45199372D01*
X28744999Y-45139844D01*
X28745000Y-45139827D01*
X28745000Y-44580000D01*
X27408012Y-44580000D01*
X27440925Y-44522993D01*
X27475000Y-44395826D01*
X27475000Y-44264174D01*
X27440925Y-44137007D01*
X27408012Y-44080000D01*
X28745000Y-44080000D01*
X28745000Y-43520172D01*
X28744999Y-43520155D01*
X28738598Y-43460627D01*
X28738596Y-43460620D01*
X28688354Y-43325913D01*
X28688350Y-43325906D01*
X28602190Y-43210813D01*
X28533751Y-43159579D01*
X28491880Y-43103645D01*
X28486896Y-43033953D01*
X28520381Y-42972630D01*
X28533742Y-42961052D01*
X28602546Y-42909546D01*
X28688796Y-42794331D01*
X28728206Y-42688666D01*
X28770077Y-42632734D01*
X28835541Y-42608316D01*
X28844388Y-42608000D01*
X46399811Y-42608000D01*
X46466850Y-42627685D01*
X46487492Y-42644319D01*
X46728551Y-42885379D01*
X46728553Y-42885381D01*
X46729704Y-42886150D01*
X46748923Y-42898991D01*
X46767712Y-42914411D01*
X51036245Y-47182944D01*
X51036246Y-47182945D01*
X51140635Y-47287334D01*
X51150182Y-47296881D01*
X51284161Y-47386403D01*
X51335541Y-47407685D01*
X51433026Y-47448065D01*
X51558349Y-47472993D01*
X51591057Y-47479499D01*
X51591061Y-47479500D01*
X51591062Y-47479500D01*
X62039067Y-47479500D01*
X62039068Y-47479499D01*
X62197102Y-47448065D01*
X62277161Y-47414903D01*
X62345968Y-47386403D01*
X62479945Y-47296882D01*
X63658008Y-46118817D01*
X63719331Y-46085333D01*
X63745689Y-46082499D01*
X65117871Y-46082499D01*
X65117872Y-46082499D01*
X65177483Y-46076091D01*
X65312331Y-46025796D01*
X65427546Y-45939546D01*
X65513796Y-45824331D01*
X65564091Y-45689483D01*
X65570500Y-45629873D01*
X65570499Y-44010128D01*
X65564091Y-43950517D01*
X65559795Y-43939000D01*
X65513797Y-43815671D01*
X65513793Y-43815664D01*
X65427547Y-43700456D01*
X65427548Y-43700456D01*
X65427546Y-43700454D01*
X65359166Y-43649265D01*
X65317297Y-43593333D01*
X65312313Y-43523641D01*
X65345798Y-43462318D01*
X65359161Y-43450738D01*
X65427546Y-43399546D01*
X65513796Y-43284331D01*
X65553206Y-43178666D01*
X65595077Y-43122734D01*
X65660541Y-43098316D01*
X65669388Y-43098000D01*
X66380567Y-43098000D01*
X66380568Y-43097999D01*
X66538602Y-43066565D01*
X66613035Y-43035733D01*
X66687468Y-43004903D01*
X66821445Y-42915382D01*
X67821442Y-41915383D01*
X67821445Y-41915382D01*
X67935382Y-41801445D01*
X67984085Y-41728555D01*
X68024903Y-41667468D01*
X68086565Y-41518602D01*
X68102744Y-41437266D01*
X68118001Y-41360567D01*
X68118001Y-41194324D01*
X68118000Y-41194298D01*
X68118000Y-33090189D01*
X68137685Y-33023150D01*
X68154319Y-33002508D01*
X69522508Y-31634319D01*
X69583831Y-31600834D01*
X69610189Y-31598000D01*
X99659811Y-31598000D01*
X99726850Y-31617685D01*
X99747492Y-31634319D01*
X104410277Y-36297103D01*
X104410287Y-36297114D01*
X104414617Y-36301444D01*
X104414618Y-36301445D01*
X104528555Y-36415382D01*
X104582217Y-36451236D01*
X104582219Y-36451239D01*
X104582219Y-36451238D01*
X104662532Y-36504903D01*
X104662536Y-36504905D01*
X104811393Y-36566563D01*
X104811398Y-36566565D01*
X104969429Y-36597999D01*
X104969433Y-36598000D01*
X104969434Y-36598000D01*
X104969435Y-36598000D01*
X105130566Y-36598000D01*
X108659811Y-36598000D01*
X108726850Y-36617685D01*
X108747492Y-36634319D01*
X109695681Y-37582508D01*
X109729166Y-37643831D01*
X109732000Y-37670189D01*
X109732000Y-40860570D01*
X109763433Y-41018594D01*
X109763436Y-41018606D01*
X109825093Y-41167461D01*
X109825100Y-41167474D01*
X109914617Y-41301444D01*
X109914620Y-41301448D01*
X112608551Y-43995379D01*
X112608555Y-43995382D01*
X112742527Y-44084900D01*
X112742528Y-44084900D01*
X112742532Y-44084903D01*
X112812063Y-44113703D01*
X112891398Y-44146565D01*
X113047795Y-44177674D01*
X113049429Y-44177999D01*
X113049433Y-44178000D01*
X113049434Y-44178000D01*
X113210566Y-44178000D01*
X113863294Y-44178000D01*
X113930333Y-44197685D01*
X113936180Y-44201682D01*
X114039649Y-44276857D01*
X114091356Y-44303203D01*
X114189994Y-44353462D01*
X114189997Y-44353463D01*
X114270234Y-44379533D01*
X114350473Y-44405604D01*
X114427659Y-44417829D01*
X114517127Y-44432000D01*
X114517132Y-44432000D01*
X116082873Y-44432000D01*
X116163665Y-44419203D01*
X116249527Y-44405604D01*
X116410005Y-44353462D01*
X116560351Y-44276857D01*
X116696861Y-44177676D01*
X116816176Y-44058361D01*
X116915357Y-43921851D01*
X116991962Y-43771505D01*
X117044104Y-43611027D01*
X117060633Y-43506668D01*
X117070500Y-43444373D01*
X117070500Y-43275626D01*
X117050284Y-43147994D01*
X117044104Y-43108973D01*
X116991962Y-42948495D01*
X116991962Y-42948494D01*
X116915356Y-42798148D01*
X116835813Y-42688667D01*
X116816176Y-42661639D01*
X116696861Y-42542324D01*
X116560351Y-42443143D01*
X116410005Y-42366537D01*
X116410002Y-42366536D01*
X116249528Y-42314396D01*
X116082873Y-42288000D01*
X116082868Y-42288000D01*
X114517132Y-42288000D01*
X114517127Y-42288000D01*
X114350471Y-42314396D01*
X114189997Y-42366536D01*
X114189994Y-42366537D01*
X114039648Y-42443143D01*
X113936180Y-42518318D01*
X113870373Y-42541798D01*
X113863294Y-42542000D01*
X113520189Y-42542000D01*
X113453150Y-42522315D01*
X113432508Y-42505681D01*
X111404319Y-40477492D01*
X111370834Y-40416169D01*
X111368000Y-40389811D01*
X111368000Y-37199433D01*
X111367999Y-37199429D01*
X111363657Y-37177600D01*
X111336565Y-37041398D01*
X111277228Y-36898149D01*
X111275584Y-36893551D01*
X111185382Y-36758554D01*
X109571448Y-35144620D01*
X109571444Y-35144617D01*
X109467408Y-35075102D01*
X109422603Y-35021490D01*
X109413896Y-34952165D01*
X109444051Y-34889137D01*
X109503494Y-34852418D01*
X109536299Y-34848000D01*
X109909811Y-34848000D01*
X109976850Y-34867685D01*
X109997492Y-34884319D01*
X111695681Y-36582507D01*
X111729166Y-36643830D01*
X111732000Y-36670188D01*
X111732000Y-39860570D01*
X111763433Y-40018595D01*
X111763435Y-40018601D01*
X111783897Y-40068000D01*
X111783896Y-40068000D01*
X111783897Y-40068001D01*
X111825097Y-40167468D01*
X111825098Y-40167471D01*
X111914617Y-40301444D01*
X111914620Y-40301448D01*
X112954618Y-41341445D01*
X113068555Y-41455382D01*
X113077987Y-41461684D01*
X113202533Y-41544903D01*
X113276965Y-41575733D01*
X113351398Y-41606565D01*
X113507795Y-41637674D01*
X113509429Y-41637999D01*
X113509433Y-41638000D01*
X113509434Y-41638000D01*
X113863294Y-41638000D01*
X113930333Y-41657685D01*
X113936180Y-41661682D01*
X113944144Y-41667468D01*
X114039649Y-41736857D01*
X114113389Y-41774429D01*
X114189994Y-41813462D01*
X114189997Y-41813463D01*
X114270234Y-41839533D01*
X114350473Y-41865604D01*
X114427659Y-41877829D01*
X114517127Y-41892000D01*
X114517132Y-41892000D01*
X116082873Y-41892000D01*
X116163665Y-41879203D01*
X116249527Y-41865604D01*
X116410005Y-41813462D01*
X116560351Y-41736857D01*
X116696861Y-41637676D01*
X116816176Y-41518361D01*
X116915357Y-41381851D01*
X116991962Y-41231505D01*
X117044104Y-41071027D01*
X117063706Y-40947267D01*
X117070500Y-40904373D01*
X117070500Y-40735626D01*
X117052070Y-40619267D01*
X117044104Y-40568973D01*
X117002580Y-40441173D01*
X116991963Y-40408497D01*
X116991962Y-40408494D01*
X116915356Y-40258148D01*
X116912581Y-40254328D01*
X116816176Y-40121639D01*
X116696861Y-40002324D01*
X116560351Y-39903143D01*
X116560349Y-39903142D01*
X116410005Y-39826537D01*
X116410002Y-39826536D01*
X116249528Y-39774396D01*
X116082873Y-39748000D01*
X116082868Y-39748000D01*
X114517132Y-39748000D01*
X114517127Y-39748000D01*
X114350471Y-39774396D01*
X114189997Y-39826536D01*
X114189994Y-39826537D01*
X114039650Y-39903142D01*
X114003881Y-39929129D01*
X113938074Y-39952607D01*
X113870020Y-39936780D01*
X113843317Y-39916490D01*
X113404319Y-39477492D01*
X113370834Y-39416169D01*
X113368000Y-39389811D01*
X113368000Y-38735392D01*
X113387685Y-38668353D01*
X113440489Y-38622598D01*
X113509647Y-38612654D01*
X113573203Y-38641679D01*
X113606563Y-38687945D01*
X113608035Y-38691500D01*
X113684643Y-38841851D01*
X113783824Y-38978361D01*
X113903139Y-39097676D01*
X114039649Y-39196857D01*
X114073636Y-39214174D01*
X114189994Y-39273462D01*
X114189997Y-39273463D01*
X114270234Y-39299533D01*
X114350473Y-39325604D01*
X114427659Y-39337829D01*
X114517127Y-39352000D01*
X114517132Y-39352000D01*
X116082873Y-39352000D01*
X116163665Y-39339203D01*
X116249527Y-39325604D01*
X116410005Y-39273462D01*
X116560351Y-39196857D01*
X116696861Y-39097676D01*
X116816176Y-38978361D01*
X116915357Y-38841851D01*
X116991962Y-38691505D01*
X117044104Y-38531027D01*
X117059788Y-38432000D01*
X117070500Y-38364373D01*
X117070500Y-38195626D01*
X117055143Y-38098675D01*
X117044104Y-38028973D01*
X117003050Y-37902620D01*
X116991963Y-37868497D01*
X116991962Y-37868494D01*
X116915356Y-37718148D01*
X116816176Y-37581639D01*
X116696861Y-37462324D01*
X116560351Y-37363143D01*
X116410009Y-37286539D01*
X116404315Y-37284689D01*
X116394179Y-37281395D01*
X116336506Y-37241959D01*
X116309308Y-37177600D01*
X116308500Y-37163466D01*
X116308500Y-32680670D01*
X116308499Y-32680666D01*
X116290474Y-32590047D01*
X116269744Y-32485831D01*
X116197961Y-32312532D01*
X116193722Y-32302298D01*
X116193717Y-32302289D01*
X116083354Y-32137120D01*
X116083353Y-32137119D01*
X115942881Y-31996647D01*
X115289318Y-31343084D01*
X115255833Y-31281761D01*
X115252999Y-31255403D01*
X115252999Y-30279629D01*
X115252998Y-30279623D01*
X115249637Y-30248358D01*
X115246591Y-30220017D01*
X115228118Y-30170489D01*
X115196297Y-30085171D01*
X115196293Y-30085164D01*
X115110047Y-29969955D01*
X115110044Y-29969952D01*
X114994835Y-29883706D01*
X114994828Y-29883702D01*
X114859982Y-29833408D01*
X114859983Y-29833408D01*
X114800383Y-29827001D01*
X114800381Y-29827000D01*
X114800373Y-29827000D01*
X114800365Y-29827000D01*
X113824596Y-29827000D01*
X113757557Y-29807315D01*
X113736915Y-29790681D01*
X108162884Y-24216649D01*
X108162880Y-24216646D01*
X107997710Y-24106282D01*
X107997701Y-24106277D01*
X107814169Y-24030256D01*
X107814161Y-24030254D01*
X107619333Y-23991500D01*
X107619329Y-23991500D01*
X72459097Y-23991500D01*
X72392058Y-23971815D01*
X72371416Y-23955181D01*
X69632884Y-21216649D01*
X69632880Y-21216646D01*
X69467710Y-21106282D01*
X69467706Y-21106280D01*
X69467704Y-21106279D01*
X69450925Y-21099329D01*
X69450923Y-21099328D01*
X69450922Y-21099327D01*
X69284169Y-21030256D01*
X69284161Y-21030254D01*
X69089333Y-20991500D01*
X69089329Y-20991500D01*
X65351888Y-20991500D01*
X65284849Y-20971815D01*
X65239094Y-20919011D01*
X65235706Y-20910833D01*
X65196297Y-20805171D01*
X65196293Y-20805164D01*
X65110047Y-20689955D01*
X65110044Y-20689952D01*
X64994835Y-20603706D01*
X64994828Y-20603702D01*
X64859982Y-20553408D01*
X64859983Y-20553408D01*
X64800383Y-20547001D01*
X64800381Y-20547000D01*
X64800373Y-20547000D01*
X64800364Y-20547000D01*
X62799629Y-20547000D01*
X62799623Y-20547001D01*
X62740016Y-20553408D01*
X62605171Y-20603702D01*
X62605164Y-20603706D01*
X62489955Y-20689952D01*
X62489952Y-20689955D01*
X62403706Y-20805164D01*
X62403702Y-20805171D01*
X62364294Y-20910833D01*
X62322423Y-20966766D01*
X62256959Y-20991184D01*
X62248112Y-20991500D01*
X55351888Y-20991500D01*
X55284849Y-20971815D01*
X55239094Y-20919011D01*
X55235706Y-20910833D01*
X55196297Y-20805171D01*
X55196293Y-20805164D01*
X55110047Y-20689955D01*
X55110044Y-20689952D01*
X54994835Y-20603706D01*
X54994828Y-20603702D01*
X54859982Y-20553408D01*
X54859983Y-20553408D01*
X54800383Y-20547001D01*
X54800381Y-20547000D01*
X54800373Y-20547000D01*
X54800364Y-20547000D01*
X52799629Y-20547000D01*
X52799623Y-20547001D01*
X52740016Y-20553408D01*
X52605171Y-20603702D01*
X52605164Y-20603706D01*
X52489955Y-20689952D01*
X52489952Y-20689955D01*
X52403706Y-20805164D01*
X52403702Y-20805171D01*
X52364294Y-20910833D01*
X52322423Y-20966766D01*
X52256959Y-20991184D01*
X52248112Y-20991500D01*
X28872110Y-20991500D01*
X28805071Y-20971815D01*
X28759316Y-20919011D01*
X28748820Y-20880752D01*
X28746591Y-20860016D01*
X28696297Y-20725171D01*
X28696293Y-20725164D01*
X28610047Y-20609955D01*
X28610044Y-20609952D01*
X28494835Y-20523706D01*
X28494828Y-20523702D01*
X28359982Y-20473408D01*
X28359983Y-20473408D01*
X28300383Y-20467001D01*
X28300381Y-20467000D01*
X28300373Y-20467000D01*
X28300365Y-20467000D01*
X27324596Y-20467000D01*
X27257557Y-20447315D01*
X27236915Y-20430681D01*
X27022884Y-20216649D01*
X27022880Y-20216646D01*
X26857710Y-20106282D01*
X26857701Y-20106277D01*
X26704788Y-20042939D01*
X26674169Y-20030256D01*
X26674161Y-20030254D01*
X26479333Y-19991500D01*
X26479329Y-19991500D01*
X20710671Y-19991500D01*
X20710666Y-19991500D01*
X20515838Y-20030254D01*
X20515830Y-20030256D01*
X20485212Y-20042939D01*
X20332298Y-20106277D01*
X20332289Y-20106282D01*
X20167119Y-20216646D01*
X20167115Y-20216649D01*
X14600415Y-25783351D01*
X13827119Y-26556647D01*
X13756882Y-26626884D01*
X13686645Y-26697120D01*
X13576282Y-26862289D01*
X13576277Y-26862298D01*
X13500256Y-27045830D01*
X13500254Y-27045838D01*
X13461500Y-27240666D01*
X12500500Y-27240666D01*
X12500500Y-18100000D01*
X14677026Y-18100000D01*
X14696899Y-18403207D01*
X14696901Y-18403219D01*
X14756177Y-18701222D01*
X14756181Y-18701237D01*
X14853853Y-18988967D01*
X14988241Y-19261479D01*
X14988244Y-19261483D01*
X14988246Y-19261487D01*
X15055063Y-19361486D01*
X15157059Y-19514135D01*
X15357408Y-19742591D01*
X15585863Y-19942939D01*
X15838513Y-20111754D01*
X15838517Y-20111756D01*
X15838520Y-20111758D01*
X16041290Y-20211753D01*
X16111036Y-20246148D01*
X16398770Y-20343821D01*
X16696791Y-20403101D01*
X17000000Y-20422974D01*
X17303209Y-20403101D01*
X17601230Y-20343821D01*
X17888964Y-20246148D01*
X18161487Y-20111754D01*
X18414137Y-19942939D01*
X18642591Y-19742591D01*
X18842939Y-19514137D01*
X19011754Y-19261487D01*
X19146148Y-18988964D01*
X19243821Y-18701230D01*
X19303101Y-18403209D01*
X19316420Y-18200000D01*
X144677026Y-18200000D01*
X144690345Y-18403219D01*
X144696899Y-18503207D01*
X144696901Y-18503219D01*
X144756177Y-18801222D01*
X144756181Y-18801237D01*
X144853853Y-19088967D01*
X144988241Y-19361479D01*
X144988244Y-19361483D01*
X144988246Y-19361487D01*
X145072939Y-19488240D01*
X145157059Y-19614135D01*
X145357408Y-19842591D01*
X145585862Y-20042939D01*
X145680655Y-20106277D01*
X145838513Y-20211754D01*
X145838517Y-20211756D01*
X145838520Y-20211758D01*
X146098049Y-20339743D01*
X146111036Y-20346148D01*
X146398770Y-20443821D01*
X146696791Y-20503101D01*
X147000000Y-20522974D01*
X147303209Y-20503101D01*
X147601230Y-20443821D01*
X147888964Y-20346148D01*
X148161487Y-20211754D01*
X148341881Y-20091218D01*
X148414138Y-20042939D01*
X148642591Y-19842591D01*
X148730288Y-19742591D01*
X148842939Y-19614137D01*
X149011754Y-19361487D01*
X149146148Y-19088964D01*
X149243821Y-18801230D01*
X149303101Y-18503209D01*
X149322974Y-18200000D01*
X149303101Y-17896791D01*
X149243821Y-17598770D01*
X149146148Y-17311036D01*
X149096831Y-17211032D01*
X149011758Y-17038520D01*
X149011756Y-17038517D01*
X149011754Y-17038513D01*
X148842939Y-16785863D01*
X148755242Y-16685863D01*
X148642591Y-16557408D01*
X148414135Y-16357059D01*
X148264473Y-16257059D01*
X148161487Y-16188246D01*
X148161483Y-16188244D01*
X148161479Y-16188241D01*
X147888967Y-16053853D01*
X147601237Y-15956181D01*
X147601231Y-15956179D01*
X147601230Y-15956179D01*
X147601228Y-15956178D01*
X147601222Y-15956177D01*
X147303219Y-15896901D01*
X147303209Y-15896899D01*
X147000000Y-15877026D01*
X146696791Y-15896899D01*
X146696785Y-15896900D01*
X146696780Y-15896901D01*
X146398777Y-15956177D01*
X146398762Y-15956181D01*
X146111032Y-16053853D01*
X145838520Y-16188241D01*
X145838513Y-16188246D01*
X145585864Y-16357059D01*
X145357408Y-16557408D01*
X145157059Y-16785864D01*
X144988246Y-17038513D01*
X144988241Y-17038520D01*
X144853853Y-17311032D01*
X144756181Y-17598762D01*
X144756177Y-17598777D01*
X144716792Y-17796780D01*
X144696899Y-17896791D01*
X144677026Y-18200000D01*
X19316420Y-18200000D01*
X19322974Y-18100000D01*
X19303101Y-17796791D01*
X19243821Y-17498770D01*
X19146148Y-17211036D01*
X19139743Y-17198049D01*
X19011758Y-16938520D01*
X19011756Y-16938517D01*
X19011754Y-16938513D01*
X18842939Y-16685863D01*
X18642591Y-16457408D01*
X18414135Y-16257059D01*
X18288240Y-16172939D01*
X18161487Y-16088246D01*
X18161483Y-16088244D01*
X18161479Y-16088241D01*
X17888967Y-15953853D01*
X17601237Y-15856181D01*
X17601231Y-15856179D01*
X17601230Y-15856179D01*
X17601228Y-15856178D01*
X17601222Y-15856177D01*
X17303219Y-15796901D01*
X17303209Y-15796899D01*
X17000000Y-15777026D01*
X16696791Y-15796899D01*
X16696785Y-15796900D01*
X16696780Y-15796901D01*
X16398777Y-15856177D01*
X16398762Y-15856181D01*
X16111032Y-15953853D01*
X15838520Y-16088241D01*
X15838513Y-16088246D01*
X15585864Y-16257059D01*
X15357408Y-16457408D01*
X15157059Y-16685864D01*
X14988246Y-16938513D01*
X14988241Y-16938520D01*
X14853853Y-17211032D01*
X14756181Y-17498762D01*
X14756177Y-17498777D01*
X14736286Y-17598777D01*
X14696899Y-17796791D01*
X14690345Y-17896791D01*
X14677026Y-18100000D01*
X12500500Y-18100000D01*
X12500500Y-13754500D01*
X12520185Y-13687461D01*
X12572989Y-13641706D01*
X12624500Y-13630500D01*
X151375500Y-13630500D01*
X151442539Y-13650185D01*
G37*
%TD.AperFunction*%
%TD*%
M02*
