%TF.GenerationSoftware,KiCad,Pcbnew,8.0.6*%
%TF.CreationDate,2025-02-16T20:33:08+01:00*%
%TF.ProjectId,LCD_PCF_v4,4c43445f-5043-4465-9f76-342e6b696361,rev?*%
%TF.SameCoordinates,Original*%
%TF.FileFunction,Soldermask,Bot*%
%TF.FilePolarity,Negative*%
%FSLAX46Y46*%
G04 Gerber Fmt 4.6, Leading zero omitted, Abs format (unit mm)*
G04 Created by KiCad (PCBNEW 8.0.6) date 2025-02-16 20:33:08*
%MOMM*%
%LPD*%
G01*
G04 APERTURE LIST*
%ADD10R,1.905000X1.905000*%
%ADD11R,1.524000X2.540000*%
%ADD12R,1.700000X1.700000*%
%ADD13R,2.540000X1.524000*%
%ADD14R,1.905000X1.397000*%
%ADD15R,1.905000X1.524000*%
%ADD16C,1.905000*%
%ADD17O,1.905000X1.905000*%
%ADD18R,1.397000X2.540000*%
%ADD19O,2.540000X1.143000*%
%ADD20O,1.524000X2.540000*%
G04 APERTURE END LIST*
D10*
%TO.C,J11*%
X60300000Y-64740000D03*
X60300000Y-67280000D03*
%TD*%
%TO.C,J23*%
X29000000Y-87000000D03*
X26460000Y-87000000D03*
X29000000Y-89540000D03*
X26460000Y-89540000D03*
%TD*%
%TO.C,R4*%
X27300000Y-32080000D03*
X27300000Y-21920000D03*
%TD*%
%TO.C,J25*%
X50300000Y-64740000D03*
X50300000Y-67280000D03*
%TD*%
D11*
%TO.C,J13*%
X86300000Y-47280000D03*
X88840000Y-47280000D03*
X91380000Y-47280000D03*
%TD*%
D10*
%TO.C,C1*%
X108800000Y-31280000D03*
X113800000Y-31280000D03*
%TD*%
%TO.C,J5*%
X90300000Y-98850000D03*
X90300000Y-101390000D03*
%TD*%
D12*
%TO.C,J19*%
X27000000Y-65460000D03*
X27000000Y-68000000D03*
%TD*%
D10*
%TO.C,J22*%
X29000000Y-76000000D03*
X26460000Y-76000000D03*
X29000000Y-78540000D03*
X26460000Y-78540000D03*
%TD*%
D13*
%TO.C,J18*%
X27000000Y-52460000D03*
X27000000Y-55000000D03*
X27000000Y-57540000D03*
%TD*%
D14*
%TO.C,J20*%
X127130000Y-75390000D03*
X127130000Y-77930000D03*
X127130000Y-80470000D03*
X127130000Y-83010000D03*
D15*
X127130000Y-85550000D03*
D16*
X129670000Y-85550000D03*
X129670000Y-83010000D03*
D17*
X129670000Y-80470000D03*
D16*
X129670000Y-77930000D03*
X129670000Y-75390000D03*
%TD*%
D10*
%TO.C,R2*%
X53800000Y-22000000D03*
X53800000Y-32160000D03*
%TD*%
D16*
%TO.C,J21*%
X86190000Y-75190000D03*
D17*
X86190000Y-77730000D03*
X86190000Y-80270000D03*
X86190000Y-82810000D03*
X86190000Y-85350000D03*
D14*
X88730000Y-85350000D03*
X88730000Y-82810000D03*
X88730000Y-80270000D03*
X88730000Y-77730000D03*
X88730000Y-75190000D03*
%TD*%
D10*
%TO.C,J9*%
X50300000Y-98840000D03*
X50300000Y-101380000D03*
%TD*%
D11*
%TO.C,J12*%
X86300000Y-39280000D03*
D18*
X88840000Y-39280000D03*
X91380000Y-39280000D03*
%TD*%
D11*
%TO.C,J1*%
X59985000Y-125800000D03*
X62525000Y-125800000D03*
X65065000Y-125800000D03*
X67605000Y-125800000D03*
X70145000Y-125800000D03*
X72685000Y-125800000D03*
X75225000Y-125800000D03*
X77765000Y-125800000D03*
X80305000Y-125800000D03*
X82845000Y-125800000D03*
X85385000Y-125800000D03*
X87925000Y-125800000D03*
X90465000Y-125800000D03*
X93005000Y-125800000D03*
X95545000Y-125800000D03*
X98085000Y-125800000D03*
%TD*%
D19*
%TO.C,U1*%
X107680000Y-38280000D03*
X107680000Y-40820000D03*
X107680000Y-43360000D03*
X107680000Y-45900000D03*
X107680000Y-48440000D03*
X107680000Y-50980000D03*
X107680000Y-53520000D03*
X107680000Y-56060000D03*
X115300000Y-56060000D03*
X115300000Y-53520000D03*
X115300000Y-50980000D03*
X115300000Y-48440000D03*
X115300000Y-45900000D03*
X115300000Y-43360000D03*
X115300000Y-40820000D03*
X115300000Y-38280000D03*
%TD*%
D10*
%TO.C,J10*%
X40300000Y-98840000D03*
X40300000Y-101380000D03*
%TD*%
D13*
%TO.C,J17*%
X63800000Y-39740000D03*
X63800000Y-42280000D03*
X63800000Y-44820000D03*
%TD*%
%TO.C,J15*%
X26975000Y-39250000D03*
X26975000Y-41790000D03*
X26975000Y-44330000D03*
%TD*%
D10*
%TO.C,J24*%
X40300000Y-64740000D03*
X40300000Y-67280000D03*
%TD*%
D18*
%TO.C,J14*%
X86295000Y-55280000D03*
X88835000Y-55280000D03*
D11*
X91375000Y-55280000D03*
%TD*%
D10*
%TO.C,J8*%
X60300000Y-98840000D03*
X60300000Y-101380000D03*
%TD*%
%TO.C,R3*%
X63800000Y-22000000D03*
X63800000Y-32160000D03*
%TD*%
%TO.C,R1*%
X77000000Y-66000000D03*
X77000000Y-55840000D03*
%TD*%
D13*
%TO.C,J16*%
X53825000Y-39740000D03*
X53825000Y-42280000D03*
X53825000Y-44820000D03*
%TD*%
D20*
%TO.C,J2*%
X100680000Y-101340000D03*
X103220000Y-101340000D03*
X105760000Y-101340000D03*
X108300000Y-101340000D03*
X110840000Y-101340000D03*
X113380000Y-101340000D03*
X115920000Y-101340000D03*
X118460000Y-101340000D03*
X118460000Y-98800000D03*
X115920000Y-98800000D03*
X113380000Y-98800000D03*
X110840000Y-98800000D03*
X108300000Y-98800000D03*
X105760000Y-98800000D03*
X103220000Y-98800000D03*
X100680000Y-98800000D03*
%TD*%
D10*
%TO.C,J7*%
X70300000Y-98840000D03*
X70300000Y-101380000D03*
%TD*%
%TO.C,J4*%
X139300000Y-98840000D03*
X139300000Y-101380000D03*
%TD*%
%TO.C,J3*%
X129300000Y-98840000D03*
X129300000Y-101380000D03*
%TD*%
%TO.C,RV1*%
X43300000Y-50500000D03*
X40800000Y-55500000D03*
X38300000Y-50500000D03*
%TD*%
%TO.C,J6*%
X80300000Y-98840000D03*
X80300000Y-101380000D03*
%TD*%
M02*
