M48
; DRILL file {KiCad 8.0.6} date 2025-02-16T20:33:23+0100
; FORMAT={-:-/ absolute / inch / decimal}
; #@! TF.CreationDate,2025-02-16T20:33:23+01:00
; #@! TF.GenerationSoftware,Kicad,Pcbnew,8.0.6
; #@! TF.FileFunction,Plated,1,2,PTH
FMAT,2
INCH
; #@! TA.AperFunction,Plated,PTH,ComponentDrill
T1C0.0236
; #@! TA.AperFunction,Plated,PTH,ComponentDrill
T2C0.0276
; #@! TA.AperFunction,Plated,PTH,ComponentDrill
T3C0.0354
; #@! TA.AperFunction,Plated,PTH,ComponentDrill
T4C0.0394
; #@! TA.AperFunction,Plated,PTH,ViaDrill
T5C0.1260
%
G90
G05
T1
X1.0748Y-0.863
X1.0748Y-1.263
X2.1181Y-0.8661
X2.1181Y-1.2661
X2.5118Y-0.8661
X2.5118Y-1.2661
X3.0315Y-2.1984
X3.0315Y-2.5984
X4.2835Y-1.2315
X4.4803Y-1.2315
T2
X4.2394Y-1.5071
X4.2394Y-1.6071
X4.2394Y-1.7071
X4.2394Y-1.8071
X4.2394Y-1.9071
X4.2394Y-2.0071
X4.2394Y-2.1071
X4.2394Y-2.2071
X4.5394Y-1.5071
X4.5394Y-1.6071
X4.5394Y-1.7071
X4.5394Y-1.8071
X4.5394Y-1.9071
X4.5394Y-2.0071
X4.5394Y-2.1071
X4.5394Y-2.2071
T3
X1.5079Y-1.9882
X1.6063Y-2.185
X1.7047Y-1.9882
T4
X1.0417Y-2.9921
X1.0417Y-3.0921
X1.0417Y-3.4252
X1.0417Y-3.5252
X1.062Y-1.5453
X1.062Y-1.6453
X1.062Y-1.7453
X1.063Y-2.0654
X1.063Y-2.1654
X1.063Y-2.2654
X1.063Y-2.5772
X1.063Y-2.6772
X1.1417Y-2.9921
X1.1417Y-3.0921
X1.1417Y-3.4252
X1.1417Y-3.5252
X1.5866Y-2.5488
X1.5866Y-2.6488
X1.5866Y-3.8913
X1.5866Y-3.9913
X1.9803Y-2.5488
X1.9803Y-2.6488
X1.9803Y-3.8913
X1.9803Y-3.9913
X2.1191Y-1.5646
X2.1191Y-1.6646
X2.1191Y-1.7646
X2.3616Y-4.9528
X2.374Y-2.5488
X2.374Y-2.6488
X2.374Y-3.8913
X2.374Y-3.9913
X2.4616Y-4.9528
X2.5118Y-1.5646
X2.5118Y-1.6646
X2.5118Y-1.7646
X2.5616Y-4.9528
X2.6616Y-4.9528
X2.7616Y-4.9528
X2.7677Y-3.8913
X2.7677Y-3.9913
X2.8616Y-4.9528
X2.9616Y-4.9528
X3.0616Y-4.9528
X3.1614Y-3.8913
X3.1614Y-3.9913
X3.1616Y-4.9528
X3.2616Y-4.9528
X3.3616Y-4.9528
X3.3933Y-2.9602
X3.3933Y-3.0602
X3.3933Y-3.1602
X3.3933Y-3.2602
X3.3933Y-3.3602
X3.3974Y-2.1764
X3.3976Y-1.5465
X3.3976Y-1.8614
X3.4616Y-4.9528
X3.4933Y-2.9602
X3.4933Y-3.0602
X3.4933Y-3.1602
X3.4933Y-3.2602
X3.4933Y-3.3602
X3.4974Y-2.1764
X3.4976Y-1.5465
X3.4976Y-1.8614
X3.5551Y-3.8917
X3.5551Y-3.9917
X3.5616Y-4.9528
X3.5974Y-2.1764
X3.5976Y-1.5465
X3.5976Y-1.8614
X3.6616Y-4.9528
X3.7616Y-4.9528
X3.8616Y-4.9528
X3.9638Y-3.8898
X3.9638Y-3.9898
X4.0638Y-3.8898
X4.0638Y-3.9898
X4.1638Y-3.8898
X4.1638Y-3.9898
X4.2638Y-3.8898
X4.2638Y-3.9898
X4.3638Y-3.8898
X4.3638Y-3.9898
X4.4638Y-3.8898
X4.4638Y-3.9898
X4.5638Y-3.8898
X4.5638Y-3.9898
X4.6638Y-3.8898
X4.6638Y-3.9898
X5.0051Y-2.9681
X5.0051Y-3.0681
X5.0051Y-3.1681
X5.0051Y-3.2681
X5.0051Y-3.3681
X5.0906Y-3.8913
X5.0906Y-3.9913
X5.1051Y-2.9681
X5.1051Y-3.0681
X5.1051Y-3.1681
X5.1051Y-3.2681
X5.1051Y-3.3681
X5.4843Y-3.8913
X5.4843Y-3.9913
T5
X0.6693Y-0.7126
X0.6693Y-5.0433
X2.8839Y-3.1398
X5.7874Y-0.7165
X5.7874Y-5.0394
M30
